<svg xmlns="http://www.w3.org/2000/svg" width="175.276" height="131.49" viewBox="0 0 175.276 131.49">
  <g id="Group_172" data-name="Group 172" transform="translate(1355.213 -192.28)">
    <g id="Group_171" data-name="Group 171">
      <path id="Path_811" data-name="Path 811" d="M-1276.6,207.525A101.281,101.281,0,0,0-1304,223.485a44.828,44.828,0,0,0-15.96,26.917q18.58,0,31.682,8.814t13.1,28.823q0,16.682-11.91,26.2a42.925,42.925,0,0,1-27.632,9.529q-20.97,0-30.729-14.055t-9.766-33.11q0-17.151,6.908-30.49a89.992,89.992,0,0,1,17.865-23.821,108.17,108.17,0,0,1,25.25-17.865A200.653,200.653,0,0,1-1276.6,192.28Zm95.239,0a101.281,101.281,0,0,0-27.394,15.96,44.828,44.828,0,0,0-15.96,26.917q18.58,0,31.682,8.814t13.1,28.823q0,16.682-11.91,26.2a42.925,42.925,0,0,1-27.632,9.529q-20.97,0-30.729-14.055t-9.766-33.11q0-17.151,6.908-30.49a90.015,90.015,0,0,1,17.865-23.821,108.175,108.175,0,0,1,25.25-17.865,200.708,200.708,0,0,1,28.585-12.149Z" fill="#0f0c6d"/>
    </g>
  </g>
</svg>
