<svg xmlns="http://www.w3.org/2000/svg" width="1331.975" height="580.485" viewBox="0 0 1331.975 580.485">
  <g id="Group_1223" data-name="Group 1223" transform="translate(-72.915 -5604)">
    <g id="Group_1215" data-name="Group 1215" transform="translate(1252.31 5837.586) rotate(-94)" opacity="0.518">
      <path id="Path_1544" data-name="Path 1544" d="M940.482,456.1a40.146,40.146,0,0,1-8.637-.929,1.063,1.063,0,0,1,.457-2.077c9.787,2.153,20.574.328,30.368-5.138a50.1,50.1,0,0,0,11.664-8.969,22.125,22.125,0,0,1-6.241-4.722,16.179,16.179,0,0,1-4.259-9.024c-.427-4.151,1.2-7.637,4.34-9.326a10.482,10.482,0,0,1,12.024,1.456c3.567,3.262,4.27,8.549,1.881,14.144a28.69,28.69,0,0,1-4.205,6.735q.954.364,2,.674c14.868,4.407,31.548-7.4,34.575-15.221a1.063,1.063,0,1,1,1.983.767c-2.843,7.35-15.917,17.552-29.72,17.553a26.084,26.084,0,0,1-7.442-1.06,28.953,28.953,0,0,1-2.862-1.012C968.559,448.513,955,456.1,940.482,456.1Zm32.66-39.3a8.365,8.365,0,0,0-3.96.984c-2.359,1.267-3.567,3.972-3.232,7.236.4,3.922,3.265,9.112,9.857,12.332a26.843,26.843,0,0,0,4.317-6.676c2.049-4.8,1.552-9.076-1.36-11.74A8.345,8.345,0,0,0,973.142,416.8Z" transform="translate(-931.01 -414.654)" fill="#fff"/>
    </g>
    <g id="Group_1209" data-name="Group 1209" transform="matrix(-0.99, -0.139, 0.139, -0.99, 157.572, 5805.447)" opacity="0.518">
      <path id="Path_1544-2" data-name="Path 1544" d="M940.482,456.1a40.146,40.146,0,0,1-8.637-.929,1.063,1.063,0,0,1,.457-2.077c9.787,2.153,20.574.328,30.368-5.138a50.1,50.1,0,0,0,11.664-8.969,22.125,22.125,0,0,1-6.241-4.722,16.179,16.179,0,0,1-4.259-9.024c-.427-4.151,1.2-7.637,4.34-9.326a10.482,10.482,0,0,1,12.024,1.456c3.567,3.262,4.27,8.549,1.881,14.144a28.69,28.69,0,0,1-4.205,6.735q.954.364,2,.674c14.868,4.407,31.548-7.4,34.575-15.221a1.063,1.063,0,1,1,1.983.767c-2.843,7.35-15.917,17.552-29.72,17.553a26.084,26.084,0,0,1-7.442-1.06,28.953,28.953,0,0,1-2.862-1.012C968.559,448.513,955,456.1,940.482,456.1Zm32.66-39.3a8.365,8.365,0,0,0-3.96.984c-2.359,1.267-3.567,3.972-3.232,7.236.4,3.922,3.265,9.112,9.857,12.332a26.843,26.843,0,0,0,4.317-6.676c2.049-4.8,1.552-9.076-1.36-11.74A8.345,8.345,0,0,0,973.142,416.8Z" transform="translate(-931.01 -414.654)" fill="#fff"/>
    </g>
    <g id="Group_1210" data-name="Group 1210" transform="matrix(0.891, -0.454, 0.454, 0.891, -170.546, 5187.839)" opacity="0.518">
      <g id="Group_1168" data-name="Group 1168" transform="translate(766.382 1002.479) rotate(-30)">
        <path id="Path_1541" data-name="Path 1541" d="M754.351,565.32a1.063,1.063,0,0,1-.92-.529l-11.205-19.3a1.063,1.063,0,0,1,1.839-1.068l11.205,19.3a1.063,1.063,0,0,1-.919,1.6Z" transform="translate(-742.082 -543.896)" fill="#fff"/>
      </g>
      <g id="Group_1169" data-name="Group 1169" transform="translate(783.338 978.313) rotate(-30)">
        <path id="Path_1542" data-name="Path 1542" d="M808.935,542.971a1.063,1.063,0,0,1-1.047-.884l-4.357-25.523a1.063,1.063,0,0,1,2.1-.358l4.357,25.522a1.064,1.064,0,0,1-.87,1.227A1.039,1.039,0,0,1,808.935,542.971Z" transform="translate(-803.516 -515.322)" fill="#fff"/>
      </g>
    </g>
    <g id="Group_1212" data-name="Group 1212" transform="translate(661.642 6091)" opacity="0.518">
      <g id="Group_1021" data-name="Group 1021">
        <g id="Group_1020" data-name="Group 1020">
          <g id="Group_1019" data-name="Group 1019">
            <path id="Path_1545" data-name="Path 1545" d="M1418.662,613.8a1.061,1.061,0,0,1-.831-.4,17.406,17.406,0,0,1-3.558-15.2,14.341,14.341,0,0,1,8.245-9.879c14.574-6.15,14.724-14.978,12.283-21.3-2.653-6.872-2.9-12.737-.72-17.433,1.867-4.03,5.429-6.983,10.587-8.777,4.65-1.617,7.776-4.236,9.039-7.573,1.253-3.311.693-7.231-1.618-11.337a1.063,1.063,0,0,1,1.853-1.044c2.63,4.672,3.237,9.213,1.754,13.132-1.492,3.946-5.064,7-10.328,8.83-4.593,1.6-7.741,4.175-9.356,7.662-1.924,4.152-1.663,9.459.775,15.774,2.259,5.85,1.67,11.119-1.749,15.661-3.129,4.157-8.085,6.844-11.692,8.366a12.236,12.236,0,0,0-7.01,8.443,15.3,15.3,0,0,0,3.158,13.35,1.063,1.063,0,0,1-.83,1.727Z" transform="translate(-1413.771 -520.311)" fill="#fff"/>
          </g>
        </g>
      </g>
    </g>
    <g id="Group_1216" data-name="Group 1216" transform="translate(1392.4 6005.818) rotate(73)" opacity="0.518">
      <g id="Group_1021-2" data-name="Group 1021">
        <g id="Group_1020-2" data-name="Group 1020">
          <g id="Group_1019-2" data-name="Group 1019">
            <path id="Path_1545-2" data-name="Path 1545" d="M1418.662,613.8a1.061,1.061,0,0,1-.831-.4,17.406,17.406,0,0,1-3.558-15.2,14.341,14.341,0,0,1,8.245-9.879c14.574-6.15,14.724-14.978,12.283-21.3-2.653-6.872-2.9-12.737-.72-17.433,1.867-4.03,5.429-6.983,10.587-8.777,4.65-1.617,7.776-4.236,9.039-7.573,1.253-3.311.693-7.231-1.618-11.337a1.063,1.063,0,0,1,1.853-1.044c2.63,4.672,3.237,9.213,1.754,13.132-1.492,3.946-5.064,7-10.328,8.83-4.593,1.6-7.741,4.175-9.356,7.662-1.924,4.152-1.663,9.459.775,15.774,2.259,5.85,1.67,11.119-1.749,15.661-3.129,4.157-8.085,6.844-11.692,8.366a12.236,12.236,0,0,0-7.01,8.443,15.3,15.3,0,0,0,3.158,13.35,1.063,1.063,0,0,1-.83,1.727Z" transform="translate(-1413.771 -520.311)" fill="#fff"/>
          </g>
        </g>
      </g>
    </g>
    <g id="Group_1219" data-name="Group 1219" transform="translate(325.456 5604) rotate(73)" opacity="0.518">
      <g id="Group_1021-3" data-name="Group 1021">
        <g id="Group_1020-3" data-name="Group 1020">
          <g id="Group_1019-3" data-name="Group 1019">
            <path id="Path_1545-3" data-name="Path 1545" d="M1418.662,613.8a1.061,1.061,0,0,1-.831-.4,17.406,17.406,0,0,1-3.558-15.2,14.341,14.341,0,0,1,8.245-9.879c14.574-6.15,14.724-14.978,12.283-21.3-2.653-6.872-2.9-12.737-.72-17.433,1.867-4.03,5.429-6.983,10.587-8.777,4.65-1.617,7.776-4.236,9.039-7.573,1.253-3.311.693-7.231-1.618-11.337a1.063,1.063,0,0,1,1.853-1.044c2.63,4.672,3.237,9.213,1.754,13.132-1.492,3.946-5.064,7-10.328,8.83-4.593,1.6-7.741,4.175-9.356,7.662-1.924,4.152-1.663,9.459.775,15.774,2.259,5.85,1.67,11.119-1.749,15.661-3.129,4.157-8.085,6.844-11.692,8.366a12.236,12.236,0,0,0-7.01,8.443,15.3,15.3,0,0,0,3.158,13.35,1.063,1.063,0,0,1-.83,1.727Z" transform="translate(-1413.771 -520.311)" fill="#fff"/>
          </g>
        </g>
      </g>
    </g>
    <g id="Group_1213" data-name="Group 1213" transform="translate(590.389 5823.276) rotate(124)" opacity="0.518">
      <g id="Group_1021-4" data-name="Group 1021">
        <g id="Group_1020-4" data-name="Group 1020">
          <g id="Group_1019-4" data-name="Group 1019">
            <path id="Path_1545-4" data-name="Path 1545" d="M1418.662,613.8a1.061,1.061,0,0,1-.831-.4,17.406,17.406,0,0,1-3.558-15.2,14.341,14.341,0,0,1,8.245-9.879c14.574-6.15,14.724-14.978,12.283-21.3-2.653-6.872-2.9-12.737-.72-17.433,1.867-4.03,5.429-6.983,10.587-8.777,4.65-1.617,7.776-4.236,9.039-7.573,1.253-3.311.693-7.231-1.618-11.337a1.063,1.063,0,0,1,1.853-1.044c2.63,4.672,3.237,9.213,1.754,13.132-1.492,3.946-5.064,7-10.328,8.83-4.593,1.6-7.741,4.175-9.356,7.662-1.924,4.152-1.663,9.459.775,15.774,2.259,5.85,1.67,11.119-1.749,15.661-3.129,4.157-8.085,6.844-11.692,8.366a12.236,12.236,0,0,0-7.01,8.443,15.3,15.3,0,0,0,3.158,13.35,1.063,1.063,0,0,1-.83,1.727Z" transform="translate(-1413.771 -520.311)" fill="#fff"/>
          </g>
        </g>
      </g>
    </g>
  </g>
</svg>
