<svg id="o-email" xmlns="http://www.w3.org/2000/svg" width="155.451" height="114.16" viewBox="0 0 155.451 114.16">
  <g id="Grupo_915" data-name="Grupo 915" transform="translate(0 0)">
    <g id="Grupo_914" data-name="Grupo 914">
      <path id="Caminho_1436" data-name="Caminho 1436" d="M137.234,68H18.217A18.238,18.238,0,0,0,0,86.217v77.726A18.238,18.238,0,0,0,18.217,182.16H137.234a18.238,18.238,0,0,0,18.217-18.217V86.217A18.238,18.238,0,0,0,137.234,68Zm6.072,95.943a6.079,6.079,0,0,1-6.072,6.072H18.217a6.079,6.079,0,0,1-6.072-6.072V86.217a6.079,6.079,0,0,1,6.072-6.072H137.234a6.079,6.079,0,0,1,6.072,6.072Z" transform="translate(0 -68)" fill="#fff"/>
    </g>
  </g>
  <g id="Grupo_917" data-name="Grupo 917" transform="translate(5.927 7.571)">
    <g id="Grupo_916" data-name="Grupo 916" transform="translate(0 0)">
      <path id="Caminho_1437" data-name="Caminho 1437" d="M155.87,92.937,91.32,140.95,26.771,92.937l-7.249,9.745,71.8,53.4,71.8-53.4Z" transform="translate(-19.522 -92.937)" fill="#fff"/>
    </g>
  </g>
</svg>
