<svg xmlns="http://www.w3.org/2000/svg" width="862.196" height="609.661" viewBox="0 0 862.196 609.661">
  <g id="Group_1055" data-name="Group 1055" transform="translate(-447.955 -129)">
    <g id="Group_1046" data-name="Group 1046" transform="translate(230.177 -60.152)">
      <g id="Group_1026" data-name="Group 1026" transform="translate(217.778 189.152)">
        <g id="Group_926" data-name="Group 926" transform="translate(823.55 527.648)">
          <path id="Path_1461" data-name="Path 1461" d="M2127.657,1418.891a1.064,1.064,0,0,1-1.061-1.019c-.193-4.637-6.3-13.813-17.776-15.594a1.063,1.063,0,1,1,.326-2.1,24.925,24.925,0,0,1,14.38,7.45c3.077,3.23,5.068,7.122,5.194,10.156a1.063,1.063,0,0,1-1.018,1.106Z" transform="translate(-2107.92 -1400.164)" fill="#4b77bf"/>
        </g>
        <g id="Group_927" data-name="Group 927" transform="translate(71.436 274.375)">
          <path id="Path_1462" data-name="Path 1462" d="M585.643,1024.4a1.061,1.061,0,0,1-.213-.022l-48.554-9.96a1.047,1.047,0,0,1-.169-.05,57.732,57.732,0,0,1-13.585-7.941c-8.767-6.971-12.695-15.173-11.36-23.718,1.914-12.248,12.27-17.794,20.591-22.25,5.717-3.062,10.655-5.707,11.81-9.633,2.665-9.06-5.407-14.323-19.295-19.878-6.529-2.612-11.366-9.753-12.034-17.77a19.783,19.783,0,0,1,9.386-18.985c9.021-5.492,15.233-13.392,16.21-20.619a14.06,14.06,0,0,0-3.982-11.982c-4.741-5.038-27.721-31.179-14.428-51.118a22.269,22.269,0,0,1,23.1-9.717A26.937,26.937,0,0,1,564.268,821.4c3.221,13.689,1.108,23.109-.59,30.678-.905,4.033-1.686,7.517-1.26,10.5,1.223,8.56,9.892,13.307,25.462,19.073,7.82,2.9,13.763,10.448,15.9,20.2,2.235,10.219-.131,20.323-6.176,26.368-6.448,6.448-9.693,13.086-9.138,18.693a10.169,10.169,0,0,0,4.618,7.683,60.876,60.876,0,0,1,15.056,14.035c5.9,8.154,7.461,16.413,4.657,24.546-6.275,18.2-25.76,30.542-26.587,31.058A1.062,1.062,0,0,1,585.643,1024.4Zm-48.249-12.046,48.036,9.854c2.67-1.761,19.775-13.543,25.353-29.721,5.954-17.267-11.221-31.011-18.882-36.118a12.235,12.235,0,0,1-5.554-9.243c-.619-6.252,2.843-13.5,9.75-20.406,5.538-5.538,7.685-14.891,5.6-24.41-1.978-9.041-7.419-16.018-14.557-18.661-16.339-6.052-25.454-11.154-26.828-20.767-.482-3.369.339-7.029,1.29-11.266,1.65-7.357,3.7-16.513.595-29.725a24.812,24.812,0,0,0-19.453-19.04,20.193,20.193,0,0,0-20.958,8.8c-4.724,7.085-4.953,15.913-.681,26.238,4.283,10.35,11.838,19,14.887,22.244a16.3,16.3,0,0,1,4.541,13.724c-1.078,7.965-7.512,16.245-17.212,22.15-5.921,3.6-8.972,9.8-8.373,16.992.6,7.233,4.9,13.652,10.705,15.972,11.752,4.7,24,10.7,20.545,22.452-1.406,4.781-6.708,7.62-12.846,10.907-8.317,4.454-17.743,9.5-19.494,20.7-1.227,7.855,2.333,15.165,10.582,21.725A56.677,56.677,0,0,0,537.393,1012.352Z" transform="translate(-511.505 -800.355)" fill="#89ebc9"/>
        </g>
        <g id="Group_928" data-name="Group 928" transform="translate(697.806 394.921)">
          <path id="Path_1463" data-name="Path 1463" d="M1834.082,1194.082a1.06,1.06,0,0,1-.28-.037l-13.7-3.735a1.064,1.064,0,0,1-.472-1.778,47.239,47.239,0,0,1,6.783-5.286c5.45-3.749,11.626-8,16.673-18.092,2.446-4.892,3.656-9.883,4.936-15.167,2.583-10.661,5.254-21.685,18.35-33.091,23.346-20.333,30.812-22.966,34.841-20.664a4.776,4.776,0,0,1,2.04,3.4c.721,3.484-.063,9.334-2.1,15.649a69.442,69.442,0,0,1-10.2,19.866c-11.126,14.835-55.686,58.2-56.134,58.639A1.063,1.063,0,0,1,1834.082,1194.082Zm-11.562-5.318,11.255,3.07c4.654-4.54,45.041-44.048,55.481-57.967,9.546-12.728,13.107-28.07,11.92-33.808a2.97,2.97,0,0,0-1.014-1.981c-4.787-2.733-19.824,9.478-32.389,20.422-12.585,10.961-15.175,21.651-17.679,31.989-1.31,5.405-2.547,10.511-5.1,15.617-5.292,10.583-11.709,15-17.37,18.894A61.785,61.785,0,0,0,1822.52,1188.764Z" transform="translate(-1819.323 -1095.541)" fill="#48c4da"/>
        </g>
        <g id="Group_929" data-name="Group 929" transform="translate(545.142 260.34)">
          <path id="Path_1464" data-name="Path 1464" d="M1495.057,1007.957a1.064,1.064,0,0,1-1.061-1.126c.024-.421,2.4-42.3-4.286-59.308-2.735-6.962-6.834-12.129-10.8-17.127-5.64-7.11-10.967-13.826-9.81-23.847.873-7.563,4.572-12.691,8.149-17.651,4.166-5.776,8.1-11.232,6.8-20.044-1.117-7.536-3.949-12.183-6.448-16.282-2.99-4.905-5.815-9.539-4.76-17.626a47.8,47.8,0,0,1,3.736-13.469c1.542-3.721,2.561-6.18,1.271-11.02-2.039-7.648-1.547-14.731,1.316-18.947a11.1,11.1,0,0,1,8.3-4.793h0a7.478,7.478,0,0,1,6.28,2.216c4.224,4.057,5.98,13.056,5.486,19.464-.693,9.015.473,15.235,8.418,16.294a17.284,17.284,0,0,1,12.42,8.773,18.789,18.789,0,0,1,.87,16.971c-4.96,11.778-5.16,17.919,6.447,25.464,6.744,4.383,10.992,10.015,12.284,16.285,1.241,6.021-.318,12.526-4.508,18.811-5,7.5-.814,10.613,4.984,14.915,3.374,2.5,6.863,5.092,8.777,8.92,3.348,6.7.228,13.705-2.525,19.889-1.525,3.426-2.965,6.662-2.965,9.221,0,5.74,10.535,16.659,14.595,20.381a1.063,1.063,0,0,1-.293,1.758l-34.237,14.94a1.139,1.139,0,0,1-.173.058l-28.013,6.847A1.057,1.057,0,0,1,1495.057,1007.957Zm-7.346-219.126a9.066,9.066,0,0,0-6.792,3.876c-2.521,3.712-2.9,10.144-1.02,17.2,1.477,5.536.224,8.557-1.361,12.382a45.922,45.922,0,0,0-3.591,12.929c-.958,7.345,1.436,11.272,4.466,16.244,2.6,4.273,5.556,9.115,6.736,17.078,1.432,9.666-2.943,15.732-7.175,21.6-3.418,4.738-6.952,9.638-7.761,16.651-1.055,9.146,3.774,15.233,9.365,22.282,3.872,4.881,8.26,10.413,11.111,17.67,2.886,7.347,4.508,19.724,4.82,36.786.182,9.948-.16,18.665-.317,21.991l26.536-6.487,32.681-14.261c-3.608-3.484-14.106-14.193-14.106-20.833,0-3.011,1.53-6.447,3.149-10.085,2.561-5.754,5.464-12.276,2.565-18.075-1.686-3.374-4.968-5.808-8.142-8.163-5.708-4.235-11.611-8.615-5.486-17.8,3.923-5.884,5.334-11.673,4.195-17.2-1.175-5.7-5.1-10.864-11.36-14.931-12.73-8.274-12.48-15.645-7.247-28.071a16.707,16.707,0,0,0-.755-15.09,15.153,15.153,0,0,0-10.856-7.721c-10.193-1.359-10.9-10.147-10.257-18.565.462-6.005-1.222-14.293-4.839-17.767a5.38,5.38,0,0,0-4.559-1.638Zm-.124-1.056h0Z" transform="translate(-1468.942 -786.662)" fill="#48c4da"/>
        </g>
        <g id="Group_930" data-name="Group 930" transform="translate(499.973 369.016)">
          <path id="Path_1465" data-name="Path 1465" d="M1369.951,1131.274a1.064,1.064,0,0,1-1.009-1.4c.061-.183,6.042-18.456,1.267-30.394-.442-1.1-.868-2.144-1.273-3.131-4.173-10.168-6.268-15.272,2.027-26.529,4.25-5.768,5.753-12.93,7.079-19.249,1.347-6.416,2.509-11.957,6.341-14.046h0a4.145,4.145,0,0,1,4.21.283c6.24,3.515,13.655,19.793,14.169,31.1.258,5.67,2.937,11.083,5.774,16.815,3.883,7.846,8.284,16.739,7.922,28.708a1.062,1.062,0,0,1-.693.965l-45.443,16.807A1.055,1.055,0,0,1,1369.951,1131.274Zm16.162-93.066a1.39,1.39,0,0,0-.713.183h0c-2.969,1.62-4.039,6.715-5.277,12.616-1.371,6.531-2.924,13.933-7.449,20.073-7.585,10.294-5.884,14.442-1.772,24.461.407.992.837,2.039,1.281,3.148,2.136,5.341,2.577,12.333,1.309,20.784a76.948,76.948,0,0,1-1.914,9l42.769-15.819c.152-11.083-4.025-19.522-7.718-26.985-2.938-5.937-5.715-11.545-5.992-17.662-.519-11.4-7.932-26.444-13.088-29.348A2.966,2.966,0,0,0,1386.113,1038.209Zm-1.223-.75h0Z" transform="translate(-1365.273 -1036.085)" fill="#48c4da"/>
        </g>
        <g id="Group_946" data-name="Group 946" transform="translate(580.554)">
          <g id="Group_931" data-name="Group 931" transform="translate(86.127 123.44)">
            <path id="Path_1466" data-name="Path 1466" d="M1768.073,857.452h-12.722a7.472,7.472,0,0,1-7.463-7.463V479.924a7.472,7.472,0,0,1,7.463-7.463h12.722a7.472,7.472,0,0,1,7.463,7.463V849.989A7.472,7.472,0,0,1,1768.073,857.452Zm-12.722-382.865a5.343,5.343,0,0,0-5.337,5.337V849.989a5.342,5.342,0,0,0,5.337,5.337h12.722a5.342,5.342,0,0,0,5.337-5.337V479.924a5.342,5.342,0,0,0-5.337-5.337Z" transform="translate(-1747.888 -472.461)" fill="#6879e8"/>
          </g>
          <g id="Group_932" data-name="Group 932" transform="translate(0 66.628)">
            <path id="Path_1467" data-name="Path 1467" d="M1596.945,493.969a1.084,1.084,0,0,1-.229-.025,1.064,1.064,0,0,1-.811-1.266c.036-.166,3.591-16.736-1.139-25.408-2.714-4.976-8.486-7.681-14.6-10.544-4.634-2.172-9.426-4.417-13.385-7.836a35.8,35.8,0,0,1-10.421-14.294c-2.086-5.781-1.559-11.225,1.523-15.744,3.123-4.581.732-8.579-2.294-13.642-2.424-4.053-5.169-8.647-5.36-14.359a23.373,23.373,0,0,1,3.474-13.212c1.678-3.091,2.89-5.325,1.56-9.312-4.277-12.831-2.154-21.845,5.98-25.381a10.036,10.036,0,0,1,10.284,1.279c5.266,3.774,8.8,11.888,8.215,18.874-.795,9.524-.128,15,5.712,18.5.966.58,2.168,1.2,3.44,1.857,6.915,3.573,17.364,8.973,17,21.5a69.961,69.961,0,0,1-1.661,12.479c-1.242,6.1-1.992,9.786,2.157,13.69,7.028,6.614,15.127,21.208,10.191,31.528-4.524,9.457-13.626,26.434-13.718,26.6a1.063,1.063,0,0,1-1.874-1.006c.092-.17,9.171-17.1,13.673-26.516,4.283-8.956-2.9-22.632-9.729-29.062-5.011-4.717-4.077-9.308-2.783-15.663a67.287,67.287,0,0,0,1.619-12.117c.329-11.186-9.02-16.016-15.847-19.544-1.3-.673-2.533-1.309-3.557-1.923-6.762-4.057-7.585-10.337-6.738-20.5.517-6.2-2.7-13.651-7.334-16.97a8.063,8.063,0,0,0-8.2-1.057c-4.939,2.147-9.783,7.839-4.811,22.759,1.621,4.863,0,7.844-1.708,11-1.6,2.947-3.412,6.287-3.218,12.127.172,5.164,2.657,9.319,5.06,13.339,3.144,5.259,6.115,10.227,2.226,15.93-2.681,3.932-3.123,8.712-1.279,13.825a33.658,33.658,0,0,0,9.81,13.407c3.737,3.227,8.394,5.409,12.9,7.519,6.435,3.015,12.513,5.863,15.56,11.451,5.112,9.371,1.506,26.171,1.35,26.881A1.063,1.063,0,0,1,1596.945,493.969Z" transform="translate(-1550.216 -342.072)" fill="#0fd790"/>
          </g>
          <g id="Group_933" data-name="Group 933" transform="translate(84.09 40.922)">
            <path id="Path_1468" data-name="Path 1468" d="M1744.276,390.221a1.063,1.063,0,0,1-.9-1.63c.18-.286,18.128-28.7,27.493-41.811,9.29-13.007,24.147-45.3,24.3-45.62a1.063,1.063,0,0,1,1.933.887c-.15.327-15.092,32.8-24.5,45.969-6.751,9.452-17.994,26.91-23.765,35.95,4.373-2.7,10.117-4.906,15.734-7.066,6.549-2.518,13.32-5.123,17.318-8.323,8.754-7.008,12.982-18.593,10.52-28.829-2.341-9.734,2.839-15.2,9.4-22.118.781-.824,1.585-1.673,2.4-2.555,6.98-7.54,10.135-19.194,2.662-26.88a8.95,8.95,0,0,0-7.87-2.915c-5.226.679-10.054,5.382-11.813,8.5-.625,1.109-1.385,2.683-2.265,4.506-3.518,7.282-8.833,18.288-16.232,22.351-9.71,5.333-15,11.275-16.176,18.166a1.063,1.063,0,0,1-2.1-.358c1.291-7.572,6.934-14.007,17.249-19.672,6.8-3.737,11.942-14.374,15.341-21.413.9-1.855,1.67-3.457,2.328-4.624,2.308-4.1,7.785-8.841,13.393-9.57a11.119,11.119,0,0,1,9.667,3.542c8.4,8.635,5.035,21.531-2.625,29.806-.824.889-1.634,1.744-2.42,2.574-6.352,6.7-10.942,11.546-8.871,20.158,2.65,11.021-1.873,23.473-11.258,30.986-4.255,3.407-11.183,6.071-17.884,8.647-8.2,3.151-16.669,6.41-20.221,10.931A1.061,1.061,0,0,1,1744.276,390.221Z" transform="translate(-1743.214 -283.073)" fill="#0fd790"/>
          </g>
          <g id="Group_934" data-name="Group 934" transform="translate(41.1 234.868)">
            <path id="Path_1469" data-name="Path 1469" d="M1646.783,756.264a1.063,1.063,0,0,1-.237-2.1c.091-.021,9.162-2.114,15.2-4.02,8.979-2.838,16.655-10.269,18.617-15.527.515-1.379.79-3.107.018-3.818-.538-.5-2.517-1.312-9.245,1.844-11.439,5.365-24.621,19.11-24.753,19.248a1.063,1.063,0,1,1-1.538-1.467c.549-.576,13.592-14.172,25.389-19.705,5.886-2.761,9.678-3.245,11.59-1.483,1.352,1.247,1.542,3.422.533,6.125-2.184,5.852-10.251,13.74-19.969,16.811-6.116,1.932-15.268,4.043-15.36,4.064A1.05,1.05,0,0,1,1646.783,756.264Z" transform="translate(-1644.546 -728.201)" fill="#0fd790"/>
          </g>
          <g id="Group_935" data-name="Group 935" transform="translate(33.921 124.284)">
            <path id="Path_1470" data-name="Path 1470" d="M1683.624,830.489l-.171,0a4.784,4.784,0,0,1-4.613-4.949c.029-.825,2.9-82.958,2.487-124.284-.176-17.83-2.789-29.762-8.471-38.687-5.2-8.165-12.746-13.458-22.3-20.159q-1.422-1-2.891-2.032c-20.858-14.723-25.23-37.063-12.311-62.9,5.2-10.4,11.74-16.8,17.509-22.444,6.348-6.211,11.831-11.576,15.008-21.306,6.17-18.9-.493-53.268-.561-53.613a4.784,4.784,0,0,1,9.387-1.854c.3,1.507,7.217,37.16.269,58.437-3.9,11.959-10.771,18.678-17.412,25.175-5.485,5.368-11.159,10.919-15.642,19.884-5.1,10.207-7.112,19.564-5.972,27.811,1.244,9,6.373,16.735,15.242,23q1.457,1.028,2.867,2.015c19.987,14.017,34.427,24.143,34.847,66.586.411,41.542-2.463,123.888-2.493,124.714A4.785,4.785,0,0,1,1683.624,830.489Z" transform="translate(-1628.069 -474.397)" fill="#a7e0f0"/>
          </g>
          <g id="Group_936" data-name="Group 936" transform="translate(33.809)">
            <path id="Path_1471" data-name="Path 1471" d="M1672.478,320.943a1.064,1.064,0,0,1-.367-.065c-.5-.186-12.366-4.669-15.593-15.638-.661-2.246-1.157-4.28-1.6-6.074-1.641-6.721-2.464-10.095-8.28-11.884-4.21-1.3-18.009-6.63-18.8-20.877-.5-9.081,5.413-13.9,11.136-18.553a70.424,70.424,0,0,0,5.358-4.668c3.485-3.484,6.089-9.409-1.293-17.845-4.633-5.3-5.977-19.616,2.465-30.005a16.249,16.249,0,0,1,16.914-5.632,13.927,13.927,0,0,1,10.482,11.108c.4,2.372.68,4.771.956,7.093,1.031,8.682,1.921,16.18,7.779,18.884,5.141,2.372,10.047,8.288,12.208,14.72,1.181,3.513,2.051,8.709-.51,13.512a50.273,50.273,0,0,1-5.8,8.254c-3.584,4.389-6.174,7.56-4.694,12.741a35.788,35.788,0,0,0,3.2,7.125c2.963,5.5,6.026,11.188,2.369,20.33-5.083,12.708-15.077,17.2-15.5,17.386A1.055,1.055,0,0,1,1672.478,320.943Zm-14.2-129.648a14.089,14.089,0,0,0-11.118,5.378c-5.055,6.221-8.636,20.269-2.515,27.264,6.6,7.548,7.029,14.917,1.2,20.749a71.967,71.967,0,0,1-5.52,4.814c-5.554,4.519-10.8,8.787-10.355,16.786h0c.181,3.255,1.963,14.242,17.3,18.962,6.969,2.145,8.064,6.627,9.72,13.412.433,1.772.923,3.78,1.569,5.978,2.6,8.848,11.822,13.2,13.88,14.077a31.368,31.368,0,0,0,13.992-16.039c3.288-8.219.589-13.228-2.266-18.532a37.923,37.923,0,0,1-3.371-7.549c-1.786-6.25,1.4-10.152,5.092-14.67a48.577,48.577,0,0,0,5.575-7.909c2.2-4.134,1.419-8.718.372-11.834-1.956-5.82-6.514-11.358-11.084-13.467-6.937-3.2-7.939-11.636-9-20.564-.273-2.3-.555-4.671-.942-6.994a11.679,11.679,0,0,0-8.928-9.4A14.16,14.16,0,0,0,1658.276,191.3Z" transform="translate(-1627.812 -189.152)" fill="#0fd790"/>
          </g>
          <g id="Group_937" data-name="Group 937" transform="translate(61.642 18.446)">
            <path id="Path_1472" data-name="Path 1472" d="M1708.525,344.833a1.064,1.064,0,0,1-1.036-.829c-.238-1.057-5.837-25.968-5.419-34.318.084-1.685.249-3.659.44-5.946.753-9.029,1.785-21.395-.823-31.5-1.044-4.044-2.348-8.488-3.729-13.193-2.937-10.007-5.973-20.355-6.264-26.447a1.063,1.063,0,0,1,2.124-.1c.277,5.837,3.278,16.061,6.18,25.949,1.325,4.515,2.695,9.183,3.747,13.26,2.7,10.455,1.649,23.028.883,32.208-.189,2.267-.353,4.225-.435,5.875-.4,8.061,5.312,33.487,5.37,33.743a1.063,1.063,0,0,1-1.038,1.3Z" transform="translate(-1691.692 -231.487)" fill="#48c4da"/>
          </g>
          <g id="Group_938" data-name="Group 938" transform="translate(74.299 159.96)">
            <path id="Path_1473" data-name="Path 1473" d="M1759.571,558.4h-37.765a1.063,1.063,0,1,1,0-2.126h37.765a1.063,1.063,0,0,1,0,2.126Z" transform="translate(-1720.742 -556.278)" fill="#6879e8"/>
          </g>
          <g id="Group_939" data-name="Group 939" transform="translate(74.299 163.487)">
            <path id="Path_1474" data-name="Path 1474" d="M1759.571,566.5h-37.765a1.063,1.063,0,1,1,0-2.126h37.765a1.063,1.063,0,0,1,0,2.126Z" transform="translate(-1720.742 -564.374)" fill="#6879e8"/>
          </g>
          <g id="Group_940" data-name="Group 940" transform="translate(74.299 167.015)">
            <path id="Path_1475" data-name="Path 1475" d="M1759.571,574.6h-37.765a1.063,1.063,0,1,1,0-2.126h37.765a1.063,1.063,0,0,1,0,2.126Z" transform="translate(-1720.742 -572.47)" fill="#6879e8"/>
          </g>
          <g id="Group_941" data-name="Group 941" transform="translate(74.299 170.542)">
            <path id="Path_1476" data-name="Path 1476" d="M1759.571,582.692h-37.765a1.063,1.063,0,1,1,0-2.126h37.765a1.063,1.063,0,0,1,0,2.126Z" transform="translate(-1720.742 -580.566)" fill="#6879e8"/>
          </g>
          <g id="Group_942" data-name="Group 942" transform="translate(78.657 316.414)">
            <path id="Path_1477" data-name="Path 1477" d="M1766.874,917.484h-35.067a1.063,1.063,0,1,1,0-2.126h35.067a1.063,1.063,0,1,1,0,2.126Z" transform="translate(-1730.743 -915.358)" fill="#6879e8"/>
          </g>
          <g id="Group_943" data-name="Group 943" transform="translate(79.902 319.941)">
            <path id="Path_1478" data-name="Path 1478" d="M1768.487,925.58h-33.822a1.063,1.063,0,0,1,0-2.126h33.822a1.063,1.063,0,1,1,0,2.126Z" transform="translate(-1733.601 -923.454)" fill="#6879e8"/>
          </g>
          <g id="Group_944" data-name="Group 944" transform="translate(81.354 323.469)">
            <path id="Path_1479" data-name="Path 1479" d="M1770.367,933.676H1738a1.063,1.063,0,0,1,0-2.126h32.37a1.063,1.063,0,1,1,0,2.126Z" transform="translate(-1736.934 -931.55)" fill="#6879e8"/>
          </g>
          <g id="Group_945" data-name="Group 945" transform="translate(82.678 326.997)">
            <path id="Path_1480" data-name="Path 1480" d="M1772.082,941.773h-31.046a1.063,1.063,0,1,1,0-2.126h31.046a1.063,1.063,0,1,1,0,2.126Z" transform="translate(-1739.973 -939.647)" fill="#6879e8"/>
          </g>
        </g>
        <g id="Group_947" data-name="Group 947" transform="translate(637.248 242.309)">
          <path id="Path_1481" data-name="Path 1481" d="M1703.362,979c-19.112,0-22.6-6.535-22.738-6.813a1.072,1.072,0,0,1-.11-.4c-1.309-19.634,4.509-65.371,20.759-86.621,3.26-4.263,6.774-8.716,10.495-13.432,14.477-18.348,30.885-39.144,37.293-55.409,1.722-4.371,3.485-10.155,5.351-16.279,3.539-11.613,7.55-24.776,13.21-35.385,6.706-12.567,14.379-18.9,23.459-19.35,7.945-.4,14.048,3.29,17.634,10.666,3.009,6.19,4.052,14.887,2.859,23.861-1.165,8.769-4.238,16.565-8.433,21.389-12.28,14.121-13.8,22.853-5.6,32.217,4.507,5.151,6.258,12.919,4.568,20.271a25.02,25.02,0,0,1-14.913,17.513c-10.018,4.238-15.895,8.748-17.468,13.405-.867,2.569-.485,5.225,1.17,8.12,4.52,7.909,12.083,21.147-.333,29.425-1.284.856-2.576,1.685-3.825,2.486-9.906,6.353-17.731,11.372-15.635,24.474.66,4.123-.736,8.242-4.148,12.243C1737.962,971.921,1717.155,979,1703.362,979Zm-20.744-7.631c.662.9,4.837,5.5,20.744,5.5,13.045,0,33.491-6.931,41.971-16.876,2.989-3.506,4.223-7.048,3.667-10.527-2.316-14.477,6.865-20.365,16.586-26.6,1.241-.8,2.525-1.62,3.794-2.465,9.935-6.623,5.283-16.773-.333-26.6-1.946-3.406-2.4-6.722-1.338-9.856,1.8-5.332,7.9-10.135,18.654-14.683a22.915,22.915,0,0,0,13.669-16.031c1.539-6.7-.03-13.749-4.1-18.4-8.968-10.248-7.4-20.065,5.6-35.012,8.46-9.729,11.068-30.991,5.266-42.925-2.221-4.567-6.744-9.915-15.616-9.472-18.808.94-28.018,31.163-34.742,53.231-1.879,6.166-3.654,11.989-5.406,16.439-6.522,16.557-23.034,37.483-37.6,55.947-3.715,4.709-7.225,9.156-10.475,13.406-4.927,6.442-11.808,19.21-16.609,43.447C1682.8,947.817,1682.122,963.357,1682.618,971.371Z" transform="translate(-1680.336 -745.28)" fill="#48c4da"/>
        </g>
        <g id="Group_948" data-name="Group 948" transform="translate(757.851 464.849)">
          <path id="Path_1482" data-name="Path 1482" d="M1998.684,1264.6c3.424-4.2,9.493-8.4,15.251-8.559s10.271,4.357,9.96,8.4-2.179,7.625,2.023,9.8,8.092,5.447,7.159,10.116-6.069,7.626-5.914,10.582,5.447,5.291,4.824,12.761a17.174,17.174,0,0,1-9.96,14.473c-4.513,1.867-7.781-.156-11.672,2.023s-6.38,5.291-13.384,4.98-7.781-3.579-11.2-3.891-8.4,2.179-16.03-.311a121.888,121.888,0,0,1-12.606-4.824l11.205-32.837Z" transform="translate(-1957.132 -1256.034)" fill="#4b77bf"/>
        </g>
        <g id="Group_949" data-name="Group 949" transform="translate(532.04 450.578)">
          <path id="Path_1483" data-name="Path 1483" d="M1617.129,1311.875c-6.25,1.9-12.064,3.692-15.319,4.582-6.848,1.867-53.174,1.973-53.174,1.973l-109.765-29.363,20.854-46.531,29.257-9.182c11.516,0,26.456,3.424,26.456,3.424l41.28-13.5s18.792,12.252,29.374,19.1c10.34,6.692,19.789,12.786,28.056,15.967C1608.545,1275.166,1610.531,1298.436,1617.129,1311.875Z" transform="translate(-1438.871 -1223.28)" fill="#89ebc9"/>
        </g>
        <g id="Group_957" data-name="Group 957" transform="translate(212.595 160.906)">
          <g id="Group_950" data-name="Group 950">
            <path id="Path_1484" data-name="Path 1484" d="M941.428,577.359c15.77,8.715,43.99,30.71,55.195,69.719s13.7,78.85,13.7,78.85l-82.585,6.225,1.245-51.875L933,704.789l-23.844,7.235-27.071,41.709-9.96,117.859-166.414-.83s16.6-62.664,34.445-95.865,43.16-66.814,52.29-80.509S819,646.664,819,646.664l-40.255,44.4-66.4-50.63s15.594-28.134,54.78-52.29c30.295-18.675,53.959-24.416,78.02-27.8,29.465-4.15,48.97-.83,62.25,3.735S941.428,577.359,941.428,577.359Z" transform="translate(-705.709 -558.451)" fill="#4881f1"/>
          </g>
          <g id="Group_951" data-name="Group 951" transform="translate(113.281 34.03)">
            <path id="Path_1485" data-name="Path 1485" d="M966.234,691.982a.532.532,0,0,1-.457-.8c14.319-24.138,22.274-53.931,22.353-54.23a.532.532,0,1,1,1.028.272c-.079.3-8.07,30.232-22.467,54.5A.532.532,0,0,1,966.234,691.982Z" transform="translate(-965.703 -636.554)" fill="#303145"/>
          </g>
          <g id="Group_952" data-name="Group 952" transform="translate(62.652 102.089)">
            <path id="Path_1486" data-name="Path 1486" d="M874.129,796.628c-6.594,0-15.9-.512-24.237-2.828a.532.532,0,1,1,.284-1.024c14.67,4.075,32.415,2.489,32.593,2.473a.531.531,0,1,1,.1,1.058C882.789,796.315,879.288,796.628,874.129,796.628Z" transform="translate(-849.502 -792.757)" fill="#303145"/>
          </g>
          <g id="Group_953" data-name="Group 953" transform="translate(178.436 141.099)">
            <path id="Path_1487" data-name="Path 1487" d="M1115.772,899.952a.532.532,0,0,1-.191-1.028c.182-.07,18.315-7.135,29.734-16.515a.532.532,0,1,1,.675.822c-11.552,9.489-29.842,16.614-30.026,16.685A.526.526,0,0,1,1115.772,899.952Z" transform="translate(-1115.241 -882.289)" fill="#303145"/>
          </g>
          <g id="Group_954" data-name="Group 954" transform="translate(85.892 125.744)">
            <path id="Path_1488" data-name="Path 1488" d="M903.373,882.971a.534.534,0,0,1-.529-.59c.942-8.48,7.006-27.28,9.569-34.969a.531.531,0,1,1,1.008.336c-2.552,7.657-8.589,26.372-9.52,34.75A.532.532,0,0,1,903.373,882.971Z" transform="translate(-902.841 -847.048)" fill="#303145"/>
          </g>
          <g id="Group_955" data-name="Group 955" transform="translate(224.086 148.569)">
            <path id="Path_1489" data-name="Path 1489" d="M1228.429,918.342a.531.531,0,0,1-.456-.258c-.256-.427-6.288-10.535-7.948-18a.532.532,0,0,1,1.038-.231c1.622,7.3,7.76,17.584,7.822,17.687a.531.531,0,0,1-.456.805Z" transform="translate(-1220.012 -899.433)" fill="#303145"/>
          </g>
          <g id="Group_956" data-name="Group 956" transform="translate(210.806 76.774)">
            <path id="Path_1490" data-name="Path 1490" d="M1190.065,759.79a.531.531,0,0,1-.21-1.02c12.721-5.452,17.242-11.065,21.23-16.018,2.348-2.916,4.566-5.669,8.153-8.009a.532.532,0,1,1,.58.891c-3.446,2.247-5.612,4.937-7.906,7.785-4.067,5.049-8.675,10.772-21.64,16.328A.531.531,0,0,1,1190.065,759.79Z" transform="translate(-1189.533 -734.657)" fill="#303145"/>
          </g>
        </g>
        <g id="Group_965" data-name="Group 965" transform="translate(0 411.541)">
          <g id="Group_958" data-name="Group 958">
            <path id="Path_1491" data-name="Path 1491" d="M632.166,1180.306s-20.854-2.8-51.667-.311c-27.413,2.215-154.379,4.046-204.386,14.421-15.938,3.307-60.382,12.657-74.7,14.317s-23.136-2.075-31.851-7.885-17.326-32.162-18.986-42.122-1.579-18.158-6.329-23.032c-3.943-4.046-9.338-.726-9.338-.726a13.6,13.6,0,0,0-5.6.1,7.125,7.125,0,0,0-4.876,3.942c-5.188,1.556-7.573,8.611-6.328,22.2,1.155,12.606,5.983,32.969,8.818,45.857,3.424,15.563,4.15,20.75,4.98,39.84S248.5,1266,265.308,1266H656.236Z" transform="translate(-217.778 -1133.686)" fill="#f7e5dd"/>
          </g>
          <g id="Group_959" data-name="Group 959" transform="translate(6.199 5.364)">
            <path id="Path_1492" data-name="Path 1492" d="M240.085,1157.75a.531.531,0,0,1-.522-.437c-1.164-6.4-4.026-10.611-6.957-10.228a.532.532,0,1,1-.137-1.054c3.573-.46,6.848,3.992,8.139,11.093a.531.531,0,0,1-.428.618A.5.5,0,0,1,240.085,1157.75Z" transform="translate(-232.006 -1145.998)" fill="#f3a8a3"/>
          </g>
          <g id="Group_960" data-name="Group 960" transform="translate(10.635 1.736)">
            <path id="Path_1493" data-name="Path 1493" d="M249.721,1151.416l-.045,0a.532.532,0,0,1-.485-.574c.053-.941-2.3-11.811-6.511-12.109a.531.531,0,1,1,.075-1.06,4.782,4.782,0,0,1,3.245,1.884c2.944,3.436,4.317,10.59,4.251,11.375A.532.532,0,0,1,249.721,1151.416Z" transform="translate(-242.186 -1137.67)" fill="#f3a8a3"/>
          </g>
          <g id="Group_961" data-name="Group 961" transform="translate(16.47 1.658)">
            <path id="Path_1494" data-name="Path 1494" d="M261.713,1150.848a.532.532,0,0,1-.529-.493c-.312-4.3-3.784-11.094-5.31-11.858a.531.531,0,1,1,.476-.951c2.169,1.084,5.584,8.462,5.894,12.731a.532.532,0,0,1-.491.569Z" transform="translate(-255.58 -1137.491)" fill="#f3a8a3"/>
          </g>
          <g id="Group_962" data-name="Group 962" transform="translate(1.609 9.508)">
            <path id="Path_1495" data-name="Path 1495" d="M230.327,1167.786a.508.508,0,0,1-.117-.014.531.531,0,0,1-.4-.635c0-.011.351-2-1.768-7.552-.655-1.716-1.722-2.773-3-2.977a2.869,2.869,0,0,0-2.622.943.532.532,0,0,1-.827-.669,3.916,3.916,0,0,1,3.615-1.325c.97.155,2.757.834,3.831,3.648,2.231,5.844,1.861,7.945,1.812,8.165A.531.531,0,0,1,230.327,1167.786Z" transform="translate(-221.47 -1155.508)" fill="#f3a8a3"/>
          </g>
          <g id="Group_963" data-name="Group 963" transform="translate(20.361 0.101)">
            <path id="Path_1496" data-name="Path 1496" d="M273.129,1146.449c-5.866,0-7.5-7.083-8.607-11.879a.532.532,0,0,1,1.036-.239c1.452,6.292,3.21,11.867,8.733,10.955a.532.532,0,0,1,.173,1.049A8.192,8.192,0,0,1,273.129,1146.449Z" transform="translate(-264.509 -1133.919)" fill="#f3a8a3"/>
          </g>
          <g id="Group_964" data-name="Group 964" transform="translate(2.931 9.751)">
            <path id="Path_1497" data-name="Path 1497" d="M230.939,1164.38a5.749,5.749,0,0,1-4.08-1.531c-2.184-2.05-2.354-5.3-2.354-6.252a.532.532,0,0,1,1.063,0,7.788,7.788,0,0,0,2.019,5.477,4.869,4.869,0,0,0,3.8,1.229.532.532,0,1,1,.067,1.061C231.278,1164.374,231.106,1164.38,230.939,1164.38Z" transform="translate(-224.505 -1156.065)" fill="#f3a8a3"/>
          </g>
        </g>
        <g id="Group_966" data-name="Group 966" transform="translate(371.447 455.72)">
          <path id="Path_1498" data-name="Path 1498" d="M1208.267,1237.938s-68.6-4.222-114.584-2.4l-21.847,16.614c-2.773,22.184-1.593,55.483,1.779,71.068H1137.3Z" transform="translate(-1070.291 -1235.081)" fill="#100c27"/>
        </g>
        <g id="Group_967" data-name="Group 967" transform="translate(109.469 323.359)">
          <path id="Path_1499" data-name="Path 1499" d="M552.747,1115.9c10.492-8.493,26.56-40.67,35.275-64.324s34.445-84.245,61.42-104.995,53.12-17.845,78.85-6.225,61,43.575,76.775,66.4,46.065,65.154,46.065,65.154l26.145,79.887H798.011c-29.465,0-60.59-42.122-68.474-58.722s-39.01-75.115-39.01-75.115-56.855,86.32-65.57,101.674-4.98,30.5-26.145,32.162-118.689,0-124.914,0-7.055-15.562.83-20.957,25.522-7.47,37.557-8.508S548.39,1119.427,552.747,1115.9Z" transform="translate(-469.021 -931.297)" fill="#e6d0c5"/>
        </g>
        <g id="Group_968" data-name="Group 968" transform="translate(220.316 333.716)">
          <path id="Path_1500" data-name="Path 1500" d="M955.658,1035a10.6,10.6,0,0,0,3.081-.329c-3.685-5.247-7.155-10.215-10.113-14.5-1.3-1.881-2.744-3.829-4.292-5.818-14.59,1.77-28.654,7.563-41.35,15.253-3.51-5.393-8.654-13.059-14.571-21.127q-8.152-11.116-15.174-19.07c6.7-11.39,13.91-18.845,20.781-21.329a10.554,10.554,0,0,0,1.023-.432,149.005,149.005,0,0,0-20.454-12.578q-9.056,7.042-17.024,19.409a40.422,40.422,0,0,0-6.914-4.177c-12.9-5.938-25.809-4.976-37.334,2.778-8.784,5.911-17.035,15.926-25.153,30.525-8.528-5.976-15.078-11-19.609-14.821-3.792,5.869-7.438,12.112-10.88,18.451,5.927,4.839,13.095,10.111,20.623,15.317-9.706,19.17-20.178,40.873-25.731,52.472-7.853-3.312-14.99-6.683-21.049-9.861-2.276,6.163-5.049,12.9-8.088,19.636a348.959,348.959,0,0,0,60.411,23.7c3.721-5.805,7.821-12.159,12.029-18.651-7.977-2.086-15.888-4.538-23.489-7.193,5.437-11.343,14.8-30.726,23.682-48.33,9.892,6.287,19.213,11.786,25.988,15.38,5.988-9.136,10.4-15.842,11.665-17.764-6.694-3.371-16.973-9.455-27.912-16.5,18.41-34.006,30.254-28.556,36-25.913a26.343,26.343,0,0,1,5.647,3.854,230.812,230.812,0,0,0-13.119,38.446c1.084,2.04,5.764,10.85,11.585,21.9a102.316,102.316,0,0,1,3.891-12.966c3.891-11.2,8.56-20.387,13.448-30.309,7.809,9.712,15.923,21.228,22.443,31.337a173.055,173.055,0,0,0-29.867,30.836c4.012,7.685,7.953,15.291,11.2,21.672a10.71,10.71,0,0,0,.733-1.208c3.575-6.911,15.208-22.183,32.605-35.932C913.78,1046.56,934.255,1034.125,955.658,1035Z" transform="translate(-723.428 -955.069)" fill="#303145"/>
        </g>
        <g id="Group_978" data-name="Group 978" transform="translate(210.277 244.956)">
          <g id="Group_969" data-name="Group 969">
            <path id="Path_1501" data-name="Path 1501" d="M711.681,751.355s-19.92,22.41-6.848,63.806,20.853,60.071,32.992,79.991,16.318,26.793,23.811,33.2c7.159,6.121,9.273,6.64,13.176,6.64,3.32,0,3.527-2.075,3.527-2.075s1.555,2.089,5.913,2.386c4.565.311,4.669-3.32,4.669-3.32s2.014,2,6.536,1.453c3.424-.415,3.631-3.009,3.631-3.009s7.989.208,7.366-5.81c-.418-4.037-4.917-8.529-9.493-15.615-4.825-7.47-7.989-15.822-7.522-19.868A119.027,119.027,0,0,0,795.1,899.82c2.8,4.513,7.626,8.093,11.205,4.669s0-15.562-2.334-21.943A33.033,33.033,0,0,0,791.2,866.206c-5.914-3.735-11.205-4.824-13.384-12.294s-13.073-62.561-13.073-62.561Z" transform="translate(-700.388 -751.355)" fill="#f7e5dd"/>
          </g>
          <g id="Group_970" data-name="Group 970" transform="translate(79.391 159.138)">
            <path id="Path_1502" data-name="Path 1502" d="M901.91,1137.061a.536.536,0,0,1-.237-.056c-7.487-3.744-16.7-15-19.016-19.639a.531.531,0,0,1,.95-.475c2.317,4.633,11.521,15.653,18.542,19.164a.532.532,0,0,1-.238,1.007Z" transform="translate(-882.6 -1116.596)" fill="#f3a8a3"/>
          </g>
          <g id="Group_971" data-name="Group 971" transform="translate(70.158 162.77)">
            <path id="Path_1503" data-name="Path 1503" d="M879.473,1143.528a.53.53,0,0,1-.313-.1c-6.5-4.749-16.356-15.27-17.687-17.709a.532.532,0,1,1,.933-.509c1.12,2.054,10.771,12.533,17.381,17.359a.531.531,0,0,1-.314.961Z" transform="translate(-861.408 -1124.932)" fill="#f3a8a3"/>
          </g>
          <g id="Group_972" data-name="Group 972" transform="translate(62.48 167.439)">
            <path id="Path_1504" data-name="Path 1504" d="M859.052,1150.612a.529.529,0,0,1-.338-.121c-3.758-3.1-12.728-10.669-14.844-14.029a.532.532,0,1,1,.9-.567c1.411,2.24,6.876,7.39,14.621,13.775a.531.531,0,0,1-.339.942Z" transform="translate(-843.788 -1135.646)" fill="#f3a8a3"/>
          </g>
          <g id="Group_973" data-name="Group 973" transform="translate(99.304 141.294)">
            <path id="Path_1505" data-name="Path 1505" d="M929.775,1088.531a.532.532,0,0,1-.5-.341,16.966,16.966,0,0,1-.969-6.018c.113-3.405,3.643-5.858,7.07-6.522a.532.532,0,1,1,.2,1.044c-2.94.569-6.115,2.694-6.209,5.513a16.15,16.15,0,0,0,.9,5.6.533.533,0,0,1-.306.687A.543.543,0,0,1,929.775,1088.531Z" transform="translate(-928.302 -1075.641)" fill="#f3a8a3"/>
          </g>
          <g id="Group_974" data-name="Group 974" transform="translate(89.766 168.237)">
            <path id="Path_1506" data-name="Path 1506" d="M921.469,1145.524a.533.533,0,0,1-.5-.338,13.118,13.118,0,0,0-5.372-5.854c-3.791-2.179-7.231.735-8.236,2.042a.532.532,0,0,1-.843-.649c1.163-1.511,5.156-4.875,9.609-2.315a13.952,13.952,0,0,1,5.833,6.389.532.532,0,0,1-.5.724Z" transform="translate(-906.412 -1137.479)" fill="#f3a8a3"/>
          </g>
          <g id="Group_975" data-name="Group 975" transform="translate(83.023 174.391)">
            <path id="Path_1507" data-name="Path 1507" d="M904.747,1158.683a.531.531,0,0,1-.45-.248,12.774,12.774,0,0,0-8.032-5.64,5.6,5.6,0,0,0-4.478.8.531.531,0,1,1-.642-.847,6.717,6.717,0,0,1,5.309-1,13.692,13.692,0,0,1,8.741,6.118.532.532,0,0,1-.449.816Z" transform="translate(-890.935 -1151.604)" fill="#f3a8a3"/>
          </g>
          <g id="Group_976" data-name="Group 976" transform="translate(73.582 176.597)">
            <path id="Path_1508" data-name="Path 1508" d="M883.078,1163.406a.53.53,0,0,1-.421-.205c-2.3-2.963-7.88-7.708-12.556-4.455a.531.531,0,1,1-.607-.873,7.807,7.807,0,0,1,5.922-1.031c2.841.581,5.635,2.555,8.082,5.707a.531.531,0,0,1-.42.857Z" transform="translate(-869.266 -1156.664)" fill="#f3a8a3"/>
          </g>
          <g id="Group_977" data-name="Group 977" transform="translate(64.763 177.68)">
            <path id="Path_1509" data-name="Path 1509" d="M860.348,1164.809a.53.53,0,0,1-.43-.219c-1.43-1.966-5.275-6.239-10.1-3.483a.532.532,0,1,1-.528-.923c1.856-1.06,6.689-2.814,11.483,3.78a.532.532,0,0,1-.429.844Z" transform="translate(-849.026 -1159.151)" fill="#f3a8a3"/>
          </g>
        </g>
        <g id="Group_987" data-name="Group 987" transform="translate(325.577 329.097)">
          <g id="Group_979" data-name="Group 979" transform="translate(0)">
            <path id="Path_1510" data-name="Path 1510" d="M1016.788,961.9c-11.229,3.917-21.683,9.13-35.9,24.174s-18.571,25.522-14.318,31.021,12.554-2.075,12.554-2.075-5.291,10.686.207,14.94,7.366,3.424,7.366,3.424-.1,3.735,4.669,4.772,6.744-.83,6.744-.83,3.112,6.121,11.309,2.594,25.107-23.862,35.171-26.663,29.776-4.669,49.281-8.715,47.31-9.856,56.336-24.381,5.914-35.69,5.914-35.69l-80.3,6.121S1034.633,955.673,1016.788,961.9Z" transform="translate(-965.015 -944.468)" fill="#f7e5dd"/>
          </g>
          <g id="Group_980" data-name="Group 980" transform="translate(13.58 47.089)">
            <path id="Path_1511" data-name="Path 1511" d="M996.714,1076.535a.532.532,0,0,1-.467-.786c6.93-12.7,12.757-20.488,17.319-23.134a.532.532,0,0,1,.534.92c-4.329,2.511-10.18,10.368-16.919,22.724A.533.533,0,0,1,996.714,1076.535Z" transform="translate(-996.182 -1052.543)" fill="#f3a8a3"/>
          </g>
          <g id="Group_981" data-name="Group 981" transform="translate(21.092 56.634)">
            <path id="Path_1512" data-name="Path 1512" d="M1014.016,1107.26a.532.532,0,0,1-.526-.464c-1.1-8.555,11.775-28.908,17.908-32.281a.532.532,0,1,1,.512.932c-5.788,3.183-18.4,23.17-17.367,31.214a.532.532,0,0,1-.459.595A.545.545,0,0,1,1014.016,1107.26Z" transform="translate(-1013.424 -1074.449)" fill="#f3a8a3"/>
          </g>
          <g id="Group_982" data-name="Group 982" transform="translate(32.543 64.415)">
            <path id="Path_1513" data-name="Path 1513" d="M1040.259,1121.28a.531.531,0,0,1-.527-.471c-.65-5.737,10.958-22.98,17.3-28.374a.532.532,0,0,1,.688.81c-6.042,5.136-17.541,22.087-16.935,27.444a.531.531,0,0,1-.468.588A.486.486,0,0,1,1040.259,1121.28Z" transform="translate(-1039.706 -1092.308)" fill="#f3a8a3"/>
          </g>
          <g id="Group_983" data-name="Group 983" transform="translate(3.931 55.389)">
            <path id="Path_1514" data-name="Path 1514" d="M977.474,1090.5a.532.532,0,0,1-.471-.777c2.242-4.3,2.8-9.182,1.468-12.735a7.179,7.179,0,0,0-4.094-4.369.531.531,0,1,1,.385-.99,8.212,8.212,0,0,1,4.7,4.984c1.461,3.886.893,8.971-1.52,13.6A.532.532,0,0,1,977.474,1090.5Z" transform="translate(-974.038 -1071.593)" fill="#f3a8a3"/>
          </g>
          <g id="Group_984" data-name="Group 984" transform="translate(14.098 69.188)">
            <path id="Path_1515" data-name="Path 1515" d="M1001.536,1122.274a.533.533,0,0,1-.5-.7c2.474-7.492,1.66-11.7.54-13.909a6.519,6.519,0,0,0-3.831-3.367.532.532,0,0,1,.328-1.011,7.56,7.56,0,0,1,4.451,3.9c1.735,3.427,1.569,8.518-.48,14.723A.532.532,0,0,1,1001.536,1122.274Z" transform="translate(-997.373 -1103.261)" fill="#f3a8a3"/>
          </g>
          <g id="Group_985" data-name="Group 985" transform="translate(24.162 77.073)">
            <path id="Path_1516" data-name="Path 1516" d="M1025.774,1138.4a.533.533,0,0,1-.5-.707c1.515-4.337,1.384-9.112-.331-12.165a5.985,5.985,0,0,0-4.051-3.117.532.532,0,1,1,.223-1.04,7.1,7.1,0,0,1,4.755,3.636c1.858,3.307,2.018,8.424.408,13.036A.532.532,0,0,1,1025.774,1138.4Z" transform="translate(-1020.47 -1121.36)" fill="#f3a8a3"/>
          </g>
          <g id="Group_986" data-name="Group 986" transform="translate(36.301 82.467)">
            <path id="Path_1517" data-name="Path 1517" d="M1053.53,1147.876a.532.532,0,0,1-.486-.746,9.615,9.615,0,0,0,.34-7.578,8.729,8.729,0,0,0-4.726-4.79.531.531,0,1,1,.407-.982,9.8,9.8,0,0,1,5.306,5.376,10.573,10.573,0,0,1-.354,8.4A.532.532,0,0,1,1053.53,1147.876Z" transform="translate(-1048.33 -1133.74)" fill="#f3a8a3"/>
          </g>
        </g>
        <g id="Group_988" data-name="Group 988" transform="translate(387.705 440.253)">
          <path id="Path_1518" data-name="Path 1518" d="M1133.978,1232.742c-15.529,15.322-23.063,29.947-26.372,38.027,13.608,16.25,32.5,32.418,50.753,32.418h94.619l-41.5-79.887s-7.462-10.426-16.906-23.719C1173.788,1204.142,1146.607,1220.281,1133.978,1232.742Z" transform="translate(-1107.606 -1199.582)" fill="#303145"/>
        </g>
        <g id="Group_989" data-name="Group 989" transform="translate(479.112 432.846)">
          <path id="Path_1519" data-name="Path 1519" d="M1439.42,1212.568s2.905-5.291-1.037-8.611c0,0,2.075-4.98-5.81-9.544a23.675,23.675,0,0,0-10.894-7.289,95.343,95.343,0,0,0-12.761-3.087,62.186,62.186,0,0,0-12.243-1.453c-6.018,0-37.765,4.98-53.535,19.92s-25.108,26.56-25.73,46.687c-.662,21.4,18.882,38.6,27.6,41.5s32.577,4.15,52.7,4.15,82.377.622,82.377.622,4.979-18.26,4.565-31.125-5.187-30.5-5.187-30.5-25.937-1.245-46.48-.623-45.442-.208-45.442-.208,9.96-8.3,20.957-12.035S1439.42,1212.568,1439.42,1212.568Z" transform="translate(-1317.395 -1182.584)" fill="#f7e5dd"/>
        </g>
        <g id="Group_990" data-name="Group 990" transform="translate(110.079 528.594)">
          <path id="Path_1520" data-name="Path 1520" d="M470.953,1414.293a.531.531,0,0,1-.532-.531c0-4.441,7.713-10.935,20.275-11.425a.531.531,0,1,1,.042,1.062c-11.753.458-19.254,6.444-19.254,10.363A.531.531,0,0,1,470.953,1414.293Z" transform="translate(-470.421 -1402.337)" fill="#f3a8a3"/>
        </g>
        <g id="Group_991" data-name="Group 991" transform="translate(108.989 525.715)">
          <path id="Path_1521" data-name="Path 1521" d="M468.452,1405.584h-.019a.533.533,0,0,1-.513-.55c.092-2.658,5.97-8.1,12.5-9.3a.532.532,0,1,1,.191,1.046c-6.472,1.184-11.564,6.49-11.625,8.288A.532.532,0,0,1,468.452,1405.584Z" transform="translate(-467.919 -1395.728)" fill="#f3a8a3"/>
        </g>
        <g id="Group_992" data-name="Group 992" transform="translate(110.312 523.381)">
          <path id="Path_1522" data-name="Path 1522" d="M471.487,1396.571a.532.532,0,0,1-.48-.76,12,12,0,0,1,6.486-5.42.532.532,0,0,1,.285,1.025,11.156,11.156,0,0,0-5.809,4.85A.532.532,0,0,1,471.487,1396.571Z" transform="translate(-470.956 -1390.372)" fill="#f3a8a3"/>
        </g>
        <g id="Group_993" data-name="Group 993" transform="translate(111.324 529.761)">
          <path id="Path_1523" data-name="Path 1523" d="M474.193,1418.146c-.24,0-.382-.006-.408-.007a.532.532,0,0,1-.505-.557.538.538,0,0,1,.556-.505,20.118,20.118,0,0,0,6.651-1.062c3.347-1.139,5.045-7.271,4.173-10.322a.531.531,0,0,1,1.022-.292c.978,3.423-.885,10.27-4.852,11.621A21.438,21.438,0,0,1,474.193,1418.146Z" transform="translate(-473.279 -1405.015)" fill="#f3a8a3"/>
        </g>
        <g id="Group_994" data-name="Group 994" transform="translate(564.89 450.048)">
          <path id="Path_1524" data-name="Path 1524" d="M1514.8,1226.974a.532.532,0,0,1-.206-1.022c3.544-1.483,11.344-3.108,16.406-3.695,6.686-.774,15.294.854,18.8,3.557a.532.532,0,0,1-.65.843c-2.9-2.234-11.017-4.157-18.03-3.343-5.6.649-12.982,2.307-16.119,3.619A.522.522,0,0,1,1514.8,1226.974Z" transform="translate(-1514.266 -1222.064)" fill="#f3a8a3"/>
        </g>
        <g id="Group_995" data-name="Group 995" transform="translate(585.76 455.001)">
          <path id="Path_1525" data-name="Path 1525" d="M1562.834,1245.06a.531.531,0,0,1-.522-.436c-.547-3.006.339-8.067,4.02-9.908s10.359-1.172,10.642-1.143a.532.532,0,0,1-.109,1.058c-.066-.007-6.659-.664-10.057,1.036-1.508.754-4.337,3.89-3.449,8.766a.532.532,0,0,1-.428.618A.558.558,0,0,1,1562.834,1245.06Z" transform="translate(-1562.164 -1233.432)" fill="#f3a8a3"/>
        </g>
        <g id="Group_996" data-name="Group 996" transform="translate(561.233 438.142)">
          <path id="Path_1526" data-name="Path 1526" d="M1536.983,1200.895a.532.532,0,0,1-.23-.053c-.4-.191-.834-.417-1.316-.666-4.622-2.385-13.225-6.824-28.9-2.646a.532.532,0,0,1-.274-1.027c16.069-4.286,24.909.277,29.657,2.728.472.244.9.465,1.29.652a.532.532,0,0,1-.231,1.011Z" transform="translate(-1505.871 -1194.739)" fill="#f3a8a3"/>
        </g>
        <g id="Group_997" data-name="Group 997" transform="translate(549.483 433.885)">
          <path id="Path_1527" data-name="Path 1527" d="M1479.437,1188.534a.532.532,0,0,1-.188-1.029c5.456-2.067,14.826-2.817,19.142-2.445a.531.531,0,1,1-.091,1.059c-4.668-.4-13.842.549-18.674,2.38A.535.535,0,0,1,1479.437,1188.534Z" transform="translate(-1478.905 -1184.969)" fill="#f3a8a3"/>
        </g>
        <g id="Group_998" data-name="Group 998" transform="translate(500.851 482.717)">
          <path id="Path_1528" data-name="Path 1528" d="M1367.819,1301.187a.532.532,0,0,1-.147-1.043c5.7-1.65,25.689-3.3,48.033-3.081a.531.531,0,0,1,0,1.063h-.005c-22.248-.214-42.1,1.41-47.727,3.04A.538.538,0,0,1,1367.819,1301.187Z" transform="translate(-1367.288 -1297.043)" fill="#f3a8a3"/>
        </g>
        <g id="Group_999" data-name="Group 999" transform="translate(704.046 466.246)">
          <path id="Path_1529" data-name="Path 1529" d="M1947.669,1286.632c-.224-.143-5.521-3.5-9.331-.305-3.891,3.268-3.268,4.357-4.825,7.47s-3.424.467-5.447-.467-7.47-.622-8.092.622,1.867,3.735,5.447,5.914,9.182,7.47,6.225,12.761-6.692,8.4-14.473,6.848-10.894-5.758-11.827-7.626c0,0-5.758-1.089-9.338.467s-8.56,9.649-8.56,9.649-18.519,2.334-28.168,4.669c-5.067,1.226-12.487,3.436-19.385,5.534-6.6-13.44-8.584-36.709-2.981-53.528.193.074.386.149.579.218,8.4,3.113,47,5.6,47,5.6s1.557-8.715,7.781-13.384,8.329-4.669,8.329-4.669,4.2,5.055,5.833,6.922,4.127,1.407,3.654.312-3.654-8.715-3.654-8.715a22.475,22.475,0,0,1,4.358-.772s0-4.668,2.259-4.905,4.669,4.98,4.669,4.98a49.675,49.675,0,0,1,8.168.155c3.735.467,11.441,2.957,13.931,5.291s3.187,4.669,4.588,9.182A43.609,43.609,0,0,0,1947.669,1286.632Z" transform="translate(-1833.643 -1259.24)" fill="#f7e5dd"/>
        </g>
        <g id="Group_1000" data-name="Group 1000" transform="translate(640.653 483.567)">
          <path id="Path_1530" data-name="Path 1530" d="M1740.972,1324.957a.532.532,0,0,1-.484-.311c-9.273-20.323-33.291-24.589-51.806-24.589a.532.532,0,0,1,0-1.063c18.827,0,43.265,4.374,52.773,25.211a.532.532,0,0,1-.483.753Z" transform="translate(-1688.151 -1298.994)" fill="#303145"/>
        </g>
        <g id="Group_1004" data-name="Group 1004" transform="translate(789.048 478.332)">
          <g id="Group_1003" data-name="Group 1003">
            <g id="Group_1002" data-name="Group 1002">
              <g id="Group_1001" data-name="Group 1001">
                <path id="Path_1531" data-name="Path 1531" d="M2028.793,1288.8c-.232-.762.218-1.322,1.334-1.662s1.8-.124,2.033.638-.218,1.322-1.334,1.662S2029.025,1289.558,2028.793,1288.8Z" transform="translate(-2028.734 -1286.978)" fill="#100c27"/>
              </g>
            </g>
          </g>
        </g>
        <g id="Group_1005" data-name="Group 1005" transform="translate(796.796 473.711)">
          <path id="Path_1532" data-name="Path 1532" d="M2049.226,1285.737a.532.532,0,0,1-.5-.724c.646-1.663.037-6.564-1.938-7.641a.531.531,0,1,1,.509-.933c2.567,1.4,3.206,6.937,2.42,8.959A.531.531,0,0,1,2049.226,1285.737Z" transform="translate(-2046.516 -1276.374)" fill="#4b77bf"/>
        </g>
        <g id="Group_1006" data-name="Group 1006" transform="translate(754.362 490.933)">
          <path id="Path_1533" data-name="Path 1533" d="M1955.883,1329.828a.529.529,0,0,1-.413-.2c-.207-.254-5.08-6.3-6.336-13.1a.532.532,0,0,1,1.046-.193c1.2,6.527,6.065,12.566,6.114,12.626a.531.531,0,0,1-.412.867Z" transform="translate(-1949.126 -1315.9)" fill="#f3a8a3"/>
        </g>
        <g id="Group_1007" data-name="Group 1007" transform="translate(782.167 513.861)">
          <path id="Path_1534" data-name="Path 1534" d="M2026.857,1373.944a.529.529,0,0,1-.278-.079c-1.259-.775-10.468-3.55-13.243-4.3a.532.532,0,0,1,.277-1.026c2.153.58,12.028,3.5,13.524,4.418a.532.532,0,0,1-.279.984Z" transform="translate(-2012.941 -1368.523)" fill="#f3a8a3"/>
        </g>
        <g id="Group_1013" data-name="Group 1013" transform="translate(754.549 465.43)">
          <g id="Group_1008" data-name="Group 1008">
            <path id="Path_1535" data-name="Path 1535" d="M1965.566,1301.26a.528.528,0,0,1-.382-.162c-.532-.549-13.067-13.524-15.567-19.461a.522.522,0,0,1-.039-.162c-.011-.127-.934-12.748,10.3-20.1s21.085-2.36,21.183-2.309a.532.532,0,0,1,.256.647c-.665,1.9-.1,14.351,1.161,20.993,1.23,6.459,1.963,10.127,1.97,10.163a.531.531,0,0,1-.115.448.58.58,0,0,1-.424.188c-.059,0-6.012-.173-9.77,2.1-3.82,2.312-8.125,7.41-8.168,7.461a.532.532,0,0,1-.389.189Zm-14.934-19.953c2.254,5.209,12.72,16.333,14.913,18.632a40.929,40.929,0,0,1,8.046-7.239c3.3-2,7.966-2.241,9.691-2.26-.26-1.315-.909-4.616-1.845-9.532-1.157-6.077-1.82-17.891-1.239-21.069a18.657,18.657,0,0,0-5.637-1.356,22.029,22.029,0,0,0-14.1,3.784C1950.23,1268.961,1950.575,1280.239,1950.632,1281.307Z" transform="translate(-1949.556 -1257.367)" fill="#4ebdcc"/>
          </g>
          <g id="Group_1009" data-name="Group 1009" transform="translate(11.952 27.475)">
            <path id="Path_1536" data-name="Path 1536" d="M1984.884,1332.381a.531.531,0,0,1-.391-.17,42.316,42.316,0,0,1-7.466-11.048.532.532,0,0,1,.979-.414,42.084,42.084,0,0,0,7.267,10.74.531.531,0,0,1-.39.892Z" transform="translate(-1976.986 -1320.425)" fill="#4ebdcc"/>
          </g>
          <g id="Group_1010" data-name="Group 1010" transform="translate(21.704 23.947)">
            <path id="Path_1537" data-name="Path 1537" d="M2004.155,1323.559a.532.532,0,0,1-.5-.352c-.917-2.547-4.207-10.058-4.24-10.134a.531.531,0,1,1,.973-.427c.136.31,3.337,7.62,4.267,10.2a.531.531,0,0,1-.32.68A.518.518,0,0,1,2004.155,1323.559Z" transform="translate(-1999.369 -1312.328)" fill="#4ebdcc"/>
          </g>
          <g id="Group_1011" data-name="Group 1011" transform="translate(15.479 42.83)">
            <path id="Path_1538" data-name="Path 1538" d="M1990.074,1361.5a.53.53,0,0,1-.34-.123,26.191,26.191,0,0,1-4.573-4.9.532.532,0,1,1,.9-.56,25.642,25.642,0,0,0,4.35,4.644.532.532,0,0,1-.341.94Z" transform="translate(-1985.082 -1355.666)" fill="#4ebdcc"/>
          </g>
          <g id="Group_1012" data-name="Group 1012" transform="translate(33.843 33.077)">
            <path id="Path_1539" data-name="Path 1539" d="M2029.731,1338.08a.532.532,0,0,1-.516-.4,8.455,8.455,0,0,0-1.816-3.474.532.532,0,0,1,.721-.781,9.376,9.376,0,0,1,2.126,4,.531.531,0,0,1-.386.645A.537.537,0,0,1,2029.731,1338.08Z" transform="translate(-2027.228 -1333.282)" fill="#4ebdcc"/>
          </g>
        </g>
        <g id="Group_1014" data-name="Group 1014" transform="translate(774.478 507.741)">
          <path id="Path_1540" data-name="Path 1540" d="M1996.563,1366.121a.531.531,0,0,1-.462-.268,8.821,8.821,0,0,1-.118-7.135,6.869,6.869,0,0,1,4.371-4.221.532.532,0,0,1,.3,1.02,5.83,5.83,0,0,0-3.687,3.6,7.7,7.7,0,0,0,.055,6.211.531.531,0,0,1-.461.8Z" transform="translate(-1995.293 -1354.475)" fill="#f3a8a3"/>
        </g>
        <g id="Group_1015" data-name="Group 1015" transform="translate(228.444 154.565)">
          <path id="Path_1541" data-name="Path 1541" d="M754.351,565.32a1.063,1.063,0,0,1-.92-.529l-11.205-19.3a1.063,1.063,0,0,1,1.839-1.068l11.205,19.3a1.063,1.063,0,0,1-.919,1.6Z" transform="translate(-742.082 -543.896)" fill="#48c4da"/>
        </g>
        <g id="Group_1016" data-name="Group 1016" transform="translate(255.211 142.115)">
          <path id="Path_1542" data-name="Path 1542" d="M808.935,542.971a1.063,1.063,0,0,1-1.047-.884l-4.357-25.523a1.063,1.063,0,0,1,2.1-.358l4.357,25.522a1.064,1.064,0,0,1-.87,1.227A1.039,1.039,0,0,1,808.935,542.971Z" transform="translate(-803.516 -515.322)" fill="#48c4da"/>
        </g>
        <g id="Group_1017" data-name="Group 1017" transform="translate(196.09 191.031)">
          <path id="Path_1543" data-name="Path 1543" d="M638.5,665.329a10.712,10.712,0,1,1,10.712-10.712A10.725,10.725,0,0,1,638.5,665.329Zm0-19.3a8.586,8.586,0,1,0,8.585,8.586A8.6,8.6,0,0,0,638.5,646.031Z" transform="translate(-627.785 -643.905)" fill="#b9f3df"/>
        </g>
        <g id="Group_1018" data-name="Group 1018" transform="translate(310.761 98.253)">
          <path id="Path_1544" data-name="Path 1544" d="M940.482,456.1a40.146,40.146,0,0,1-8.637-.929,1.063,1.063,0,0,1,.457-2.077c9.787,2.153,20.574.328,30.368-5.138a50.1,50.1,0,0,0,11.664-8.969,22.125,22.125,0,0,1-6.241-4.722,16.179,16.179,0,0,1-4.259-9.024c-.427-4.151,1.2-7.637,4.34-9.326a10.482,10.482,0,0,1,12.024,1.456c3.567,3.262,4.27,8.549,1.881,14.144a28.69,28.69,0,0,1-4.205,6.735q.954.364,2,.674c14.868,4.407,31.548-7.4,34.575-15.221a1.063,1.063,0,1,1,1.983.767c-2.843,7.35-15.917,17.552-29.72,17.553a26.084,26.084,0,0,1-7.442-1.06,28.953,28.953,0,0,1-2.862-1.012C968.559,448.513,955,456.1,940.482,456.1Zm32.66-39.3a8.365,8.365,0,0,0-3.96.984c-2.359,1.267-3.567,3.972-3.232,7.236.4,3.922,3.265,9.112,9.857,12.332a26.843,26.843,0,0,0,4.317-6.676c2.049-4.8,1.552-9.076-1.36-11.74A8.345,8.345,0,0,0,973.142,416.8Z" transform="translate(-931.01 -414.654)" fill="#9384e8"/>
        </g>
        <g id="Group_1022" data-name="Group 1022" transform="translate(521.104 144.289)">
          <g id="Group_1021" data-name="Group 1021">
            <g id="Group_1020" data-name="Group 1020">
              <g id="Group_1019" data-name="Group 1019">
                <path id="Path_1545" data-name="Path 1545" d="M1418.662,613.8a1.061,1.061,0,0,1-.831-.4,17.406,17.406,0,0,1-3.558-15.2,14.341,14.341,0,0,1,8.245-9.879c14.574-6.15,14.724-14.978,12.283-21.3-2.653-6.872-2.9-12.737-.72-17.433,1.867-4.03,5.429-6.983,10.587-8.777,4.65-1.617,7.776-4.236,9.039-7.573,1.253-3.311.693-7.231-1.618-11.337a1.063,1.063,0,0,1,1.853-1.044c2.63,4.672,3.237,9.213,1.754,13.132-1.492,3.946-5.064,7-10.328,8.83-4.593,1.6-7.741,4.175-9.356,7.662-1.924,4.152-1.663,9.459.775,15.774,2.259,5.85,1.67,11.119-1.749,15.661-3.129,4.157-8.085,6.844-11.692,8.366a12.236,12.236,0,0,0-7.01,8.443,15.3,15.3,0,0,0,3.158,13.35,1.063,1.063,0,0,1-.83,1.727Z" transform="translate(-1413.771 -520.311)" fill="#edd602"/>
              </g>
            </g>
          </g>
        </g>
        <g id="Group_1051" data-name="Group 1051" transform="translate(216.941 272.676) rotate(124)">
          <g id="Group_1021-2" data-name="Group 1021" transform="translate(0 0)">
            <g id="Group_1020-2" data-name="Group 1020">
              <g id="Group_1019-2" data-name="Group 1019">
                <path id="Path_1545-2" data-name="Path 1545" d="M4.891,93.485a1.061,1.061,0,0,1-.831-.4A17.406,17.406,0,0,1,.5,77.886a14.341,14.341,0,0,1,8.245-9.879c14.574-6.15,14.724-14.978,12.283-21.3-2.653-6.872-2.9-12.737-.72-17.433,1.867-4.03,5.43-6.983,10.587-8.777,4.65-1.617,7.776-4.236,9.038-7.573,1.253-3.311.694-7.231-1.618-11.337A1.063,1.063,0,0,1,40.17.542c2.63,4.672,3.237,9.213,1.754,13.132-1.492,3.946-5.064,7-10.328,8.83-4.593,1.6-7.741,4.175-9.356,7.662-1.924,4.152-1.663,9.459.775,15.774,2.259,5.85,1.67,11.119-1.749,15.661-3.129,4.157-8.085,6.844-11.692,8.366a12.236,12.236,0,0,0-7.01,8.443,15.3,15.3,0,0,0,3.158,13.35,1.063,1.063,0,0,1-.83,1.727Z" fill="#edd602"/>
              </g>
            </g>
          </g>
        </g>
        <g id="Group_1023" data-name="Group 1023" transform="translate(46.007 345.585)">
          <path id="Path_1546" data-name="Path 1546" d="M401.509,1212.48a1.059,1.059,0,0,1-.6-.187l-23.3-16.02a1.063,1.063,0,1,1,1.2-1.752l23.3,16.019a1.063,1.063,0,0,1-.6,1.939Z" transform="translate(-377.144 -1194.334)" fill="#89ebc9"/>
        </g>
        <g id="Group_1024" data-name="Group 1024" transform="translate(45.486 404.899)">
          <path id="Path_1547" data-name="Path 1547" d="M452.344,1139.036a1.062,1.062,0,0,1-.831-.4l-14.94-18.675a1.063,1.063,0,0,1,1.661-1.328l14.94,18.675a1.064,1.064,0,0,1-.83,1.728Z" transform="translate(-436.34 -1118.234)" fill="#fff"/>
        </g>
        <g id="Group_1025" data-name="Group 1025" transform="translate(4.76 544.04)">
          <path id="Path_1548" data-name="Path 1548" d="M1067.2,1503.408H247.638a18.956,18.956,0,0,1-18.935-18.935v-27.751a18.956,18.956,0,0,1,18.935-18.935H1067.2a18.956,18.956,0,0,1,18.935,18.935v27.752A18.956,18.956,0,0,1,1067.2,1503.408Zm-819.567-63.5a16.828,16.828,0,0,0-16.808,16.809v27.751a16.828,16.828,0,0,0,16.808,16.808H1067.2a16.828,16.828,0,0,0,16.809-16.808v-27.752a16.828,16.828,0,0,0-16.809-16.808Z" transform="translate(-228.703 -1437.786)" fill="#0fd790"/>
        </g>
      </g>
      <g id="Group_1044" data-name="Group 1044" transform="translate(629.033 267.335)">
        <g id="Group_1027" data-name="Group 1027" transform="translate(27.925 0)">
          <path id="Path_1549" data-name="Path 1549" d="M1293.861,387.258s-2.792-9.761-14.079-14.834c-12.111-5.442-23.775-5.025-34.8.84a36.385,36.385,0,0,0-19.087,27.572c-1.162,10.767,5.074,16.926,5.074,16.926l6.5,11.213,29.115,7.5s11.19,8.507,23.2,8.417,17.36-4.1,16.625-6.1-4.489-7.9-2.675-17.2,3.1-18.183-.156-25.51A15.475,15.475,0,0,0,1293.861,387.258Z" transform="translate(-1225.746 -368.591)" fill="#303145"/>
        </g>
        <g id="Group_1028" data-name="Group 1028" transform="translate(0 20.339)">
          <path id="Path_1550" data-name="Path 1550" d="M1255.395,420.958c1.457,3.556,1.449,9.317.066,14.218a50.247,50.247,0,0,1-4.445,10.078s1.7,3.5,2.375,4.924a1.447,1.447,0,0,1-1.646,2.119c-1.131-.191-2.943-.587-2.943-.587s-1.17,3.005-1.844,3.025-2.555-1.183-4.31-2.661a21.409,21.409,0,0,1-3.164-3.46s-1.477,1.754-.841,3.49,5,6.2,5,6.2a27.947,27.947,0,0,1-7.391,5.666c-4.168,2.06-9.893,1.736-9.893,1.736s-10.179,16.235-13.4,21.507-11.976,20.833-11.976,20.833-8.11,13.2-12.333,19.45-9.979,13.889-11.432,13.437-8.915-21.2-11.572-30.3-4.5-22.59-3.873-25.624c0,0,14.949-16.243,20.142-23.148S1194.8,444.1,1194.8,444.1s4.181,4.375,6.175,4.855,10.19-14.345,10.19-14.345-5.364-4.812-2.911-10.825,7.189-10.138,11.306-7.9a8.385,8.385,0,0,1,4.3,8.309c-.287,1.7-1.471,4.972-.787,5.289s3.94.827,7.024-4.4,6.535-9.443,12.645-8.276A65.846,65.846,0,0,1,1255.395,420.958Z" transform="translate(-1161.654 -415.271)" fill="#f7e5dd"/>
        </g>
        <g id="Group_1029" data-name="Group 1029" transform="translate(79.675 41.068)">
          <path id="Path_1551" data-name="Path 1551" d="M1345.087,465.76c.635.294,1.178-.03,1.608-.96s.327-1.553-.308-1.847-1.178.029-1.608.959S1344.452,465.465,1345.087,465.76Z" transform="translate(-1344.518 -462.848)" fill="#100c27"/>
        </g>
        <g id="Group_1030" data-name="Group 1030" transform="translate(78.714 31.653)">
          <path id="Path_1552" data-name="Path 1552" d="M1352.654,448.261a.8.8,0,0,1-.7-.413c-1.347-2.448-5.488-5.16-8.807-5.006a.8.8,0,1,1-.078-1.593c4.065-.2,8.677,2.913,10.282,5.83a.8.8,0,0,1-.7,1.182Z" transform="translate(-1342.311 -441.239)" fill="#303145"/>
        </g>
        <g id="Group_1031" data-name="Group 1031" transform="translate(87.89 45.19)">
          <path id="Path_1553" data-name="Path 1553" d="M1364.843,477.971a.532.532,0,0,1-.495-.337c-.955-2.428-1.207-4.069-.767-5.018a.532.532,0,0,1,.965.447c-.139.3-.341,1.308.791,4.182a.531.531,0,0,1-.495.726Z" transform="translate(-1363.372 -472.307)" fill="#f3a8a3"/>
        </g>
        <g id="Group_1032" data-name="Group 1032" transform="translate(83.864 55.305)">
          <path id="Path_1554" data-name="Path 1554" d="M1357.415,497.528a.552.552,0,0,1-.095-.008,14.62,14.62,0,0,1-2.88-.983.532.532,0,1,1,.447-.965,13.769,13.769,0,0,0,2.622.9.532.532,0,0,1-.094,1.055Z" transform="translate(-1354.132 -495.523)" fill="#f3a8a3"/>
        </g>
        <g id="Group_1033" data-name="Group 1033" transform="translate(68.407 42.783)">
          <path id="Path_1555" data-name="Path 1555" d="M1321.2,477.215c2.331.6,3.965-.829,4.845-4.242s.142-5.456-2.188-6.057-3.964.83-4.845,4.243S1318.874,476.614,1321.2,477.215Z" transform="translate(-1318.657 -466.782)" fill="#f3a8a3"/>
        </g>
        <g id="Group_1034" data-name="Group 1034" transform="translate(50.199 54.761)">
          <path id="Path_1556" data-name="Path 1556" d="M1291.374,510.815h-.021c-6.01-.232-14.388-5.922-14.486-16a.532.532,0,0,1,.526-.537h.005a.532.532,0,0,1,.532.526,15,15,0,0,0,13.464,14.952.532.532,0,0,1-.02,1.063Z" transform="translate(-1276.867 -494.274)" fill="#f3a8a3"/>
        </g>
        <g id="Group_1035" data-name="Group 1035" transform="translate(53.713 24.774)">
          <path id="Path_1557" data-name="Path 1557" d="M1285.483,437.022a.531.531,0,0,1-.526-.467,20.437,20.437,0,0,1,.677-4.967,36.727,36.727,0,0,0,.861-5.618.531.531,0,0,1,.531-.52h.012a.531.531,0,0,1,.519.543,36.752,36.752,0,0,1-.881,5.8,21.03,21.03,0,0,0-.664,4.628.531.531,0,0,1-.464.591A.545.545,0,0,1,1285.483,437.022Z" transform="translate(-1284.933 -425.45)" fill="#f3a8a3"/>
        </g>
        <g id="Group_1036" data-name="Group 1036" transform="translate(76.476 53.135)">
          <path id="Path_1558" data-name="Path 1558" d="M1342.568,501.085a.53.53,0,0,1-.307-.1,16.581,16.581,0,0,1-4.684-5.279,5.555,5.555,0,0,1,.46-4.911.575.575,0,0,1,.6-.24.565.565,0,0,1,.4.374,16.551,16.551,0,0,0,2.708,2.916c1.7,1.514,2.461,2.148,4.219,2.656a.532.532,0,0,1-.3,1.021,10.507,10.507,0,0,1-4.631-2.884,23.619,23.619,0,0,1-2.465-2.542,4.2,4.2,0,0,0-.044,3.131,15.623,15.623,0,0,0,4.349,4.89.532.532,0,0,1-.308.965Zm-3.521-10.107h0Zm-.018-.058" transform="translate(-1337.175 -490.542)" fill="#f3a8a3"/>
        </g>
        <g id="Group_1042" data-name="Group 1042" transform="translate(50.64 30.256)">
          <g id="Group_1037" data-name="Group 1037" transform="translate(1.101 6.469)">
            <path id="Path_1559" data-name="Path 1559" d="M1299.107,488.142c-4.943,0-10.113-.881-14.916-5.779-4.749-4.841-3.7-16.754-3.658-17.258a.534.534,0,0,1,.246-.4c.036-.023,3.667-2.32,6.436-4.231,2.706-1.868,6.8-7.325,6.841-7.38a.531.531,0,0,1,.834-.023c.076.091,7.675,9.131,13.335,11.11,2.934,1.027,5.257,1.773,7.122,2.373,1.838.591,3.166,1.018,4.055,1.388a.53.53,0,0,1,.272.252c.125.25,3.04,6.175-.074,11.219-3.2,5.185-13.411,8.57-19.322,8.715C1299.889,488.137,1299.5,488.142,1299.107,488.142Zm-17.535-22.683c-.125,1.76-.661,12.039,3.379,16.159,4.626,4.717,9.469,5.591,15.3,5.445,7.772-.19,16.147-4.491,18.443-8.21,2.519-4.08.548-9.021.109-10.007-.85-.337-2.1-.739-3.782-1.28-1.871-.6-4.2-1.351-7.148-2.382-5.2-1.82-11.643-8.941-13.368-10.927-1.121,1.451-4.322,5.459-6.686,7.091C1285.432,463,1282.412,464.926,1281.572,465.46Z" transform="translate(-1280.405 -452.88)" fill="#4ebdcc"/>
          </g>
          <g id="Group_1038" data-name="Group 1038" transform="translate(0 9.912)">
            <path id="Path_1560" data-name="Path 1560" d="M1279.637,470.145a.532.532,0,0,1-.524-.443c-.042-.247-1.03-6.091-1.232-8.341a.531.531,0,1,1,1.059-.1c.2,2.209,1.212,8.2,1.222,8.258a.532.532,0,0,1-.435.613A.518.518,0,0,1,1279.637,470.145Z" transform="translate(-1277.879 -460.782)" fill="#4ebdcc"/>
          </g>
          <g id="Group_1039" data-name="Group 1039" transform="translate(10.908)">
            <path id="Path_1561" data-name="Path 1561" d="M1307.183,445.565a.531.531,0,0,1-.437-.228c-1.449-2.087-3.678-6.346-3.772-6.526a.531.531,0,1,1,.942-.492c.023.044,2.293,4.381,3.7,6.412a.531.531,0,0,1-.134.74A.525.525,0,0,1,1307.183,445.565Z" transform="translate(-1302.914 -438.032)" fill="#4ebdcc"/>
          </g>
          <g id="Group_1040" data-name="Group 1040" transform="translate(11.49 10.412)">
            <path id="Path_1562" data-name="Path 1562" d="M1313.229,472.391a.527.527,0,0,1-.275-.077c-1.891-1.145-7.08-7.366-8.609-9.549a.531.531,0,1,1,.87-.61c1.608,2.295,6.666,8.267,8.289,9.25a.531.531,0,0,1-.275.986Z" transform="translate(-1304.249 -461.928)" fill="#4ebdcc"/>
          </g>
          <g id="Group_1041" data-name="Group 1041" transform="translate(5.73 15.309)">
            <path id="Path_1563" data-name="Path 1563" d="M1296.947,486.119a.53.53,0,0,1-.419-.2c-2.144-2.741-5.122-9.325-5.494-12.146a.532.532,0,0,1,1.054-.139c.347,2.634,3.257,9.047,5.277,11.629a.532.532,0,0,1-.418.859Z" transform="translate(-1291.03 -473.168)" fill="#4ebdcc"/>
          </g>
        </g>
        <g id="Group_1043" data-name="Group 1043" transform="translate(48.978 39.149)">
          <path id="Path_1564" data-name="Path 1564" d="M1277.906,460.755a5.857,5.857,0,0,1-3.635-1.361.532.532,0,0,1,.65-.842c2.27,1.751,4.128,1.189,5.8.321a.532.532,0,1,1,.49.943A7.18,7.18,0,0,1,1277.906,460.755Z" transform="translate(-1274.064 -458.442)" fill="#f3a8a3"/>
        </g>
      </g>
      <g id="Group_1045" data-name="Group 1045" transform="translate(619.214 424.551)">
        <path id="Path_1565" data-name="Path 1565" d="M1139.652,831.491a.532.532,0,0,1-.45-.814l14.073-22.46a.532.532,0,0,1,.353-.241c8.62-1.609,22.609-4.911,23.451-6.917.882-2.1-2.218-16.949-4.517-26.42a.532.532,0,0,1,.092-.445l33.578-44.564a.532.532,0,1,1,.849.64l-33.427,44.363c.814,3.374,5.669,23.832,4.405,26.838-1.288,3.067-19.714,6.7-24.008,7.508L1140.1,831.242A.532.532,0,0,1,1139.652,831.491Z" transform="translate(-1139.121 -729.419)" fill="#303145"/>
      </g>
    </g>
    <g id="Group_1054" data-name="Group 1054" transform="translate(-7188.298 -3220.949) rotate(25)">
      <path id="Path_1568" data-name="Path 1568" d="M219.927,86.959c-.959-.023-1.96-.023-3,.008-.731.023-1.439.057-2.124.107.072-.274.148-.544.221-.818a3.541,3.541,0,0,0,1.108-.327,2.9,2.9,0,0,0,1.18-.917,3.141,3.141,0,0,0,.461-1.15c.247-.9.369-1.351.4-1.473.247-1.214.567-2.413.849-3.62.194-.837.495-2.052.933-3.544a.584.584,0,0,0-.8-.67.824.824,0,0,1,.19-.662c.175-.156.373-.126.963-.126a10.047,10.047,0,0,0,1.115-.126,7.021,7.021,0,0,0,1-.24q-.765,3.038-1.526,6.072-.845,3.375-1.686,6.749l.681.046C219.889,86.5,219.908,86.731,219.927,86.959Z" transform="translate(8553.979 -225.368)" fill="#9bbaf7"/>
      <path id="Path_1569" data-name="Path 1569" d="M239.641,25.437h.655c.015.415.08.86.289.921.225.065.442-.358.971-.826a5.425,5.425,0,0,1,1.7-.944c1.146-.472,1.344-.251,1.926-.544a3.78,3.78,0,0,0,1.587-4.45,3.126,3.126,0,0,0-1.138-1.309c-2.151-1.568-5.36-1.26-7.6-.289A9.563,9.563,0,0,0,234.3,20.93c.16.171.316.343.476.514a8.274,8.274,0,0,1,2.756-2.273,8.1,8.1,0,0,1,2.885-.837,4.468,4.468,0,0,1,3,.426,2.7,2.7,0,0,1,.994,1.039,3.047,3.047,0,0,1,.011,2.448,3.655,3.655,0,0,1-.594.994,4.542,4.542,0,0,1-.971.872,4.356,4.356,0,0,1-3.045.411C239.755,24.828,239.7,25.132,239.641,25.437Z" transform="translate(8535.221 -171.295)" fill="#9bbaf7"/>
      <path id="Path_1570" data-name="Path 1570" d="M163.9,91.3" transform="translate(8602.941 -242.587)" fill="#9bbaf7"/>
      <path id="Path_1571" data-name="Path 1571" d="M421.063,279.8a32.077,32.077,0,0,0,1.138,3.255c1.115,2.7,1.782,4.252,3.274,4.884a5.435,5.435,0,0,0,1.854.388,8.006,8.006,0,0,0,1.915-.251c.586-.114,1.374-.282,2.318-.506.046.225.091.445.137.67-.51.145-1.23.343-2.1.56a10.107,10.107,0,0,1-2.836.495,5.942,5.942,0,0,1-2.235-.567,7.6,7.6,0,0,1-2.95-2.882,11.8,11.8,0,0,1-1.3-2.429,12.048,12.048,0,0,1-.582-1.976,4.254,4.254,0,0,1,1.363-1.641Z" transform="translate(8356.878 -423.912)" fill="#9bbaf7"/>
      <path id="Path_1572" data-name="Path 1572" d="M361.569,211.165a.844.844,0,0,0,.579.088.811.811,0,0,0,.529-.495c.164-.449-.2-.94-.362-1.214-.815-1.389-.008-3.4.08-3.613a5.323,5.323,0,0,1,3.118-2.828,8,8,0,0,1,2.139-.377c.78-.061.841.019,2.094.023.83,0,1.545-.03,3.045-.023.651,0,1.629.019,1.781.43a1.589,1.589,0,0,1,.046.4,3.186,3.186,0,0,1-.034.662,3.352,3.352,0,0,1-.183.708c.282.015.56.027.841.042.232-1.153.464-2.311.7-3.464a40.31,40.31,0,0,1-6.2.285,10.135,10.135,0,0,0-4.218.373,7.552,7.552,0,0,0-2.729,1.69,7.247,7.247,0,0,0-1.561,2.265,6.029,6.029,0,0,0-.571,2.615C360.675,208.984,360.728,210.746,361.569,211.165Z" transform="translate(8413.666 -348.592)" fill="#9bbaf7"/>
      <path id="Path_1573" data-name="Path 1573" d="M508.058,233.019q-.731,2.786-1.458,5.577c.461.883.917,1.766,1.378,2.649.137-.617.27-1.23.407-1.846,1.089.019,2.174.042,3.262.061a.477.477,0,0,1,.3.168.458.458,0,0,1,.1.324c-.034.293-.065.59-.1.883.251,0,.5,0,.75-.008.221-1.112.442-2.219.659-3.331-.24-.011-.48-.019-.719-.03a1.205,1.205,0,0,1-.388.841,1.073,1.073,0,0,1-.689.194c-.693,0-1.705.008-2.962-.008l1.45-5.493C509.386,233.008,508.724,233.012,508.058,233.019Z" transform="translate(8273.287 -378.893)" fill="#9bbaf7"/>
      <path id="Path_1574" data-name="Path 1574" d="M400.859,479c.541.495,1.081.986,1.622,1.481q-.423,1.262-.849,2.52c.936.03,1.873.065,2.813.1l-.148.731c-.236.011-.647.03-1.157.03-1.816.011-2.554-.175-4.024-.084-.312.019-.807.061-1.416.16.03-.24.065-.48.1-.719a2.535,2.535,0,0,0,.738-.156,2.882,2.882,0,0,0,1.416-1.325,6.565,6.565,0,0,0,.483-1.256C400.627,479.876,400.768,479.362,400.859,479Z" transform="translate(8378.041 -615.529)" fill="#9bbaf7"/>
      <g id="Group_1052" data-name="Group 1052" transform="translate(8761.343 -151.245)">
        <g id="Group_921" data-name="Group 921">
          <path id="Path_1447" data-name="Path 1447" d="M27.849,93.017c-.312.377-.624.758-.936,1.134a3.728,3.728,0,0,0-2.627-.4.538.538,0,0,0-.354.244,7.36,7.36,0,0,0-3.746,2.208c-1.237,1.492-.7,2.2.2,3.373v0a.536.536,0,0,0,.175.544.547.547,0,1,0,.7-.841.532.532,0,0,0-.324-.114l-.008-.011c-.868-1.138-1.1-1.447-.213-2.516a6.719,6.719,0,0,1,3.35-1.968.509.509,0,0,0,.388.1,2.611,2.611,0,0,1,2.071.369,2.614,2.614,0,0,1,.75,1.964.531.531,0,0,0,.167.365,6.745,6.745,0,0,1-1.317,3.662c-.891,1.073-1.23.9-2.516.251H23.6a.54.54,0,1,0-.3.617h0c1.317.662,2.116,1.066,3.357-.43a7.332,7.332,0,0,0,1.477-4.1.519.519,0,0,0,.175-.392,3.722,3.722,0,0,0-.872-2.5L29.265,92.4C28.8,92.613,28.325,92.815,27.849,93.017Z" transform="translate(-19.462 -92.4)" fill="#9bbaf7"/>
        </g>
      </g>
      <g id="Group_1053" data-name="Group 1053" transform="translate(8783.986 -138.478)">
        <g id="Group_923" data-name="Group 923" transform="translate(0)">
          <path id="Path_1448" data-name="Path 1448" d="M621.224,431.87a2.062,2.062,0,1,0-2.471-1.949l-3.864.9-.59.818,4.591-1.051A2.065,2.065,0,0,0,621.224,431.87Zm-1.762-1.74a1.374,1.374,0,1,1,1.622,1.062A1.379,1.379,0,0,1,619.462,430.13Z" transform="translate(-614.3 -427.789)" fill="#9bbaf7"/>
        </g>
      </g>
    </g>
  </g>
</svg>
