<svg xmlns="http://www.w3.org/2000/svg" width="740.249" height="478.522" viewBox="0 0 740.249 478.522">
  <g id="Group_1201" data-name="Group 1201" transform="translate(-258.613 -4949.531)">
    <g id="Group_1164" data-name="Group 1164" transform="translate(258.613 4949.531)">
      <g id="Group_1062" data-name="Group 1062" transform="translate(52.332 415.171)">
        <path id="Path_1576" data-name="Path 1576" d="M1341.83,4055.211H732.875a.9.9,0,0,1,0-1.8H1341.83a.9.9,0,0,1,0,1.8Z" transform="translate(-731.974 -4053.409)" fill="#48c4da"/>
      </g>
      <g id="Group_1076" data-name="Group 1076" transform="translate(13.663 83.932)">
        <g id="Group_1063" data-name="Group 1063" transform="translate(236.996)">
          <path id="Path_1577" data-name="Path 1577" d="M1269.991,3473.616a.9.9,0,0,1-.878-1.1c.185-.8,4.639-19.683,13.487-28.389,6.063-5.966,4.028-14.314,2.233-21.68a49.027,49.027,0,0,1-1.468-7.646c-.308-4.309,1.578-10.323,5.175-16.5a49.6,49.6,0,0,1,14.245-15.826c2.715-1.858,7.691-7.342,10.512-23.2,1.795-10.092,1.78-19.81.728-23.375-2.472-8.385,9.131-17.35,23.391-27.356,8.929-6.267,9.78-16.177,10.464-24.14.369-4.3.687-8.013,2.247-10.317,1.832-2.708,4.545-4.378,7.168-5.993,3.484-2.144,6.493-4,6.648-7.811a49.86,49.86,0,0,0-.625-7.326c-1.078-8.433-2.555-19.982,3.638-29.026,3.865-5.644,9.255-9.191,14.011-12.321,5.548-3.651,10.34-6.8,11.849-12.287a88.124,88.124,0,0,0,2.015-10.47c1.059-7.058,2.058-13.724,6.745-20.244,4.913-6.835,14.47-13.48,20.337-12.082,1.679.4,3.8,1.65,4.379,5.332a50.358,50.358,0,0,1,.133,12.652,57.1,57.1,0,0,0,.433,15.875c2.338,13.24,4.6,31.972-2.718,41.73a45.25,45.25,0,0,1-7.856,7.55c-6.527,5.332-13.277,10.845-13.075,24.6.291,19.738.4,27.124-6.357,39.255-.89,1.6-1.747,3.074-2.575,4.5-5.153,8.88-8.557,14.747-5.879,26.224a119.334,119.334,0,0,1,2.668,28.76c-.285,9-1.894,21.481-7.95,29.808-10.481,14.412-17.33,41-17.4,41.271a.9.9,0,0,1-1.746-.444c.069-.271,7.005-27.2,17.687-41.886,10.1-13.885,8.417-42.391,4.985-57.1-2.841-12.172.9-18.618,6.075-27.538.825-1.421,1.677-2.89,2.56-4.475,6.522-11.71,6.423-18.423,6.13-38.351-.215-14.63,7.2-20.685,13.737-26.026a43.248,43.248,0,0,0,7.555-7.236c7.7-10.262,3.7-32.9,2.386-40.335a58.571,58.571,0,0,1-.455-16.331,48.966,48.966,0,0,0-.117-12.232c-.344-2.194-1.331-3.456-3.017-3.858-4.594-1.088-13.389,4.331-18.456,11.381-4.432,6.166-5.4,12.624-6.426,19.459a89.458,89.458,0,0,1-2.06,10.681c-1.689,6.137-6.987,9.624-12.6,13.314-4.843,3.187-9.851,6.482-13.515,11.833-5.806,8.478-4.379,19.634-3.337,27.78a50.766,50.766,0,0,1,.638,7.627c-.194,4.774-3.91,7.061-7.5,9.273-2.461,1.515-5.005,3.082-6.62,5.468-1.3,1.916-1.6,5.413-1.944,9.462-.678,7.9-1.606,18.711-11.224,25.461-13.177,9.247-24.829,18.145-22.7,25.372,1.287,4.367.994,14.771-.683,24.2-1.26,7.085-4.4,19.673-11.268,24.373A47.765,47.765,0,0,0,1290.1,3399.2c-3.368,5.785-5.213,11.566-4.935,15.464a47.872,47.872,0,0,0,1.421,7.347c1.814,7.444,4.072,16.708-2.719,23.391-8.478,8.343-12.951,27.32-13,27.511A.9.9,0,0,1,1269.991,3473.616Z" transform="translate(-1269.089 -3156.334)" fill="#a7e0f0"/>
        </g>
        <g id="Group_1064" data-name="Group 1064" transform="translate(353.093 66.519)">
          <path id="Path_1578" data-name="Path 1578" d="M1585.841,3587.248a.9.9,0,0,1-.882-.726c-.189-.954-4.546-23.444,2.831-31.128,4.948-5.155,16.422-19.149,16.1-37.718-.3-17.532,4.017-32.076,11.852-39.9,4.118-4.113.028-12.062-4.3-20.479-3.2-6.212-6.5-12.636-7.247-18.616-1.755-14.041,4.072-28.39,16.409-40.4,10.751-10.469,11.223-17.053,12.08-29,.063-.882.128-1.791.2-2.731,1.061-13.94,18.723-27.289,23.037-29.845a1.415,1.415,0,0,1,1.44-.03c.866.479,2.667,1.476,4.134,24.078.711,10.947.987,21.791.989,21.9.009.532.825,52.718-5.237,74.009a175.479,175.479,0,0,1-6.91,18.455c-7.446,17.92-15.885,38.232-10.865,62.438,2,9.63,3.665,23.912.264,37.257-2.054,8.058-4.965,11.927-5.088,12.088a.9.9,0,0,1-1.432-1.094c.113-.148,11.25-15.3,4.492-47.885-5.133-24.75,3.42-45.334,10.965-63.5a174.237,174.237,0,0,0,6.842-18.257c5.989-21.035,5.178-72.957,5.169-73.479,0-.1-.273-10.708-.966-21.511-1.178-18.359-2.605-22.047-3.11-22.785-4.521,2.776-20.942,15.354-21.926,28.292q-.107,1.406-.2,2.723c-.86,11.984-1.379,19.218-12.621,30.165-11.922,11.61-17.561,25.42-15.878,38.888.708,5.663,3.938,11.942,7.062,18.015,4.638,9.018,9.02,17.536,3.972,22.579-7.49,7.482-11.618,21.55-11.324,38.6.319,18.548-10.266,32.394-16.6,39-6.729,7.009-2.407,29.305-2.363,29.529a.9.9,0,0,1-.885,1.077Z" transform="translate(-1583.51 -3336.485)" fill="#4b77bf"/>
        </g>
        <g id="Group_1065" data-name="Group 1065" transform="translate(421.589 122.355)">
          <path id="Path_1579" data-name="Path 1579" d="M1773.39,3682.627a.9.9,0,0,1-.865-.653c-.08-.278-7.867-28.041.015-50.793,2.746-7.929,5.521-14.837,7.969-20.933,4.527-11.274,8.1-20.179,8.485-28.174.434-9.108,6.4-20.322,11.67-30.215,2.124-3.991,4.131-7.761,5.654-11.145,1.911-4.247,4.906-9.744,8.076-15.563,5.774-10.6,12.318-22.609,14.546-31.078.566-2.151,2.256-7.068,5.771-6.29,4.5,1,7.841,11.3,5.427,24.472-1.8,9.844-5.965,23.36-10.37,37.669-4.241,13.773-8.626,28.015-10.8,38.911-2.134,10.674-1.527,22.264-.991,32.491.58,11.073,1.038,19.819-1.946,24.509-5.39,8.47-10.128,35.769-10.175,36.043a.9.9,0,1,1-1.775-.3c.195-1.137,4.847-27.933,10.43-36.706,2.675-4.2,2.208-13.122,1.667-23.448s-1.155-22.042,1.024-32.938c2.2-10.986,6.595-25.272,10.849-39.089,4.39-14.257,8.536-27.723,10.32-37.463,2.448-13.358-1.39-21.8-4.047-22.389-1.359-.3-2.747,1.61-3.636,4.99-2.283,8.68-8.883,20.793-14.706,31.481-3.154,5.789-6.133,11.257-8.016,15.441-1.547,3.439-3.568,7.234-5.707,11.252-5.178,9.726-11.046,20.75-11.461,29.455-.395,8.3-4.021,17.328-8.613,28.76-2.44,6.076-5.206,12.963-7.938,20.85-7.693,22.207-.063,49.436.015,49.708a.9.9,0,0,1-.618,1.114A.913.913,0,0,1,1773.39,3682.627Z" transform="translate(-1769.014 -3487.7)" fill="#48c4da"/>
        </g>
        <g id="Group_1066" data-name="Group 1066" transform="translate(580.128 20.679)">
          <path id="Path_1580" data-name="Path 1580" d="M2220.943,3274.537a.9.9,0,0,1-.679-1.493c.151-.174,15.147-17.449,19.2-27.883a33.906,33.906,0,0,0,1.882-17c-.926-5.939-3.572-10.493-7.453-12.821a8.086,8.086,0,0,0-6.9-.743c-6.737,2.161-12.691,11.138-15.745,18.17a72.2,72.2,0,0,0-3.308,9.136c-1.222,4.071-2.278,7.586-7.882,17.618a.9.9,0,1,1-1.573-.878c5.508-9.861,6.537-13.289,7.729-17.258a73.653,73.653,0,0,1,3.381-9.336c3.2-7.377,9.538-16.824,16.847-19.168a9.82,9.82,0,0,1,8.379.914c9.4,5.642,10.6,21.015,6.323,32.023-4.173,10.728-18.9,27.7-19.525,28.414A.9.9,0,0,1,2220.943,3274.537Z" transform="translate(-2198.374 -3212.338)" fill="#48c4da"/>
        </g>
        <g id="Group_1067" data-name="Group 1067" transform="translate(593.805 69.762)">
          <path id="Path_1581" data-name="Path 1581" d="M2255.148,3405.362a.9.9,0,0,1-.774-1.36,285.724,285.724,0,0,0,17.845-36.409c5.071-12.5,6.616-18.979,6.468-20.523-3.044.221-14,7.149-21.957,21.552a164.968,164.968,0,0,1-8.847,14.062c-4.2,6.141-7.82,11.446-10.711,20.177a.9.9,0,0,1-1.711-.566c2.97-8.973,6.66-14.374,10.933-20.628a163.347,163.347,0,0,0,8.758-13.917c8.2-14.834,20.268-22.975,24.1-22.46a1.308,1.308,0,0,1,1,.756c.337.694.513,2.2-1.13,7.721-1.146,3.852-2.934,8.81-5.172,14.337a287.465,287.465,0,0,1-18.032,36.817A.9.9,0,0,1,2255.148,3405.362Z" transform="translate(-2235.417 -3345.266)" fill="#6879e8"/>
        </g>
        <g id="Group_1068" data-name="Group 1068" transform="translate(639.34 155.186)">
          <path id="Path_1582" data-name="Path 1582" d="M2359.638,3738.86a.924.924,0,0,1-.226-.029.9.9,0,0,1-.647-1.1c.151-.586,3.819-14.38,13.75-16.708,8.783-2.058,11.762-9.4,14.188-22.235,2.134-11.3,8.683-20.2,19.463-26.456,4.348-2.524,4.848-7.659,5.378-13.1.483-4.957.983-10.084,4.575-13.377,7.114-6.521,13.454-20.65,15.775-35.159,1.15-7.187,4.9-14,7.912-19.466,3.161-5.74,5.657-10.273,3.66-12.145-.929-.871-2.549-.743-3.744-.483-6.987,1.524-18.7,11.354-22.756,21.278-4.834,11.816-11.882,17.663-22.178,18.4-7.942.567-17.246,8-17.339,8.08a.9.9,0,1,1-1.132-1.4c.4-.321,9.833-7.868,18.342-8.475,9.536-.682,16.094-6.173,20.639-17.283,4.33-10.583,16.478-20.708,24.041-22.356,2.93-.639,4.532.153,5.36.929,3.018,2.83.223,7.9-3.315,14.329-2.945,5.349-6.61,12-7.71,18.881-2.381,14.879-8.946,29.427-16.337,36.2-3.083,2.826-3.528,7.391-4,12.224-.551,5.649-1.12,11.49-6.267,14.479-10.307,5.983-16.564,14.473-18.6,25.232-1.049,5.552-2.364,11.289-4.862,15.638a15.773,15.773,0,0,1-10.685,8.017c-8.881,2.082-12.382,15.271-12.417,15.4A.9.9,0,0,1,2359.638,3738.86Z" transform="translate(-2358.736 -3576.615)" fill="#9ebcf8"/>
        </g>
        <g id="Group_1069" data-name="Group 1069" transform="translate(578.088 88.664)">
          <path id="Path_1583" data-name="Path 1583" d="M2193.752,3588.7a.9.9,0,0,1-.4-1.707c9.93-4.965,11.874-15.824,13.59-25.4,1-5.578,1.942-10.846,4.406-14.206,6.814-9.29,12.167-8.172,24.685-4.5,16.023,4.7,27.536.134,34.222-13.555,4.373-8.955.187-18.982-3.507-27.829-3.171-7.6-5.911-14.157-2.315-18.351,4.09-4.772,10.615-3.708,17.525-2.582,6.041.985,12.288,2,17.657-.568,5.547-2.658,7.762-7.9,8.644-11.827,1.4-6.235.277-13.617-2.61-17.171a16.642,16.642,0,0,1-4.017-10.167,11.577,11.577,0,0,1,3.287-8.482c1.978-1.977,5.112-3.06,8.43-4.2,3.527-1.218,7.176-2.477,8.93-4.817a19.269,19.269,0,0,0,3.344-13.948,13.12,13.12,0,0,0-6.275-8.933,14.291,14.291,0,0,0-12.686-1.245,22.9,22.9,0,0,0-13.339,13.464c-2.7,7.811-9.012,7.849-17,7.9a77.665,77.665,0,0,0-11.076.63c-12.08,1.776-14.583,11.758-15.488,22.279-.867,10.083-6.916,21.391-21.021,21.392-.7,0-1.41-.027-2.146-.084-17.175-1.318-25.646,5.1-29.729,10.719a.9.9,0,1,1-1.457-1.06c4.353-5.989,13.327-12.838,31.325-11.455,3.244.249,19.5.472,21.235-19.666.605-7.037,1.865-21.679,17.021-23.908a79.031,79.031,0,0,1,11.327-.648c7.841-.047,13.021-.078,15.308-6.684a24.792,24.792,0,0,1,14.444-14.575,15.957,15.957,0,0,1,14.243,1.42,14.854,14.854,0,0,1,7.087,10.13,21.212,21.212,0,0,1-3.674,15.356c-2.086,2.782-6,4.133-9.784,5.439-3.116,1.076-6.06,2.092-7.744,3.776-4.677,4.678-2.836,11.7.855,16.239,3.255,4.006,4.5,11.871,2.97,18.7-1.37,6.1-4.788,10.74-9.623,13.057-5.88,2.817-12.705,1.7-18.727.722-6.673-1.089-12.435-2.028-15.867,1.975-2.874,3.352-.332,9.438,2.61,16.485,3.65,8.744,8.194,19.626,3.462,29.313-3.922,8.032-9.494,13.168-16.56,15.267-5.65,1.678-12.307,1.418-19.788-.773-12.72-3.727-16.657-4.432-22.725,3.842-2.217,3.022-3.125,8.091-4.085,13.457-1.79,10-3.819,21.329-14.558,26.7A.9.9,0,0,1,2193.752,3588.7Z" transform="translate(-2192.85 -3396.458)" fill="#80eac4"/>
        </g>
        <g id="Group_1070" data-name="Group 1070" transform="translate(571.838 236.058)">
          <path id="Path_1584" data-name="Path 1584" d="M2176.831,3875.572a.9.9,0,0,1-.9-.883c-.247-12.506,7.6-20.333,13.335-26.048,1.355-1.351,2.524-2.517,3.429-3.591,2.165-2.571,3.42-6.971,4.634-11.226,1.394-4.889,2.71-9.5,5.4-11.689a16.519,16.519,0,0,1,5.465-2.717c2.995-1.019,5.36-1.822,6.518-6.513,2.282-9.246,8.883-14.437,14.018-17.163a.9.9,0,1,1,.845,1.591c-4.811,2.554-10.991,7.4-13.114,16-1.395,5.648-4.594,6.735-7.688,7.787a14.856,14.856,0,0,0-4.908,2.41c-2.248,1.826-3.489,6.178-4.8,10.785-1.266,4.437-2.574,9.026-4.989,11.893-.955,1.134-2.208,2.383-3.535,3.707-5.5,5.485-13.037,13-12.806,24.736a.9.9,0,0,1-.883.918Z" transform="translate(-2175.925 -3795.637)" fill="#9ebcf8"/>
        </g>
        <g id="Group_1071" data-name="Group 1071" transform="translate(0 224.928)">
          <path id="Path_1585" data-name="Path 1585" d="M651.654,3858.145a.9.9,0,0,1-.85-.6c-1.019-2.911-3.284-6.016-5.681-9.3-3.977-5.453-8.09-11.091-7.041-16.731.215-1.154.438-2.269.656-3.35,1.358-6.766,2.431-12.11-.7-17.648-3.656-6.459-6.805-13.552-5.1-21.641.626-2.976-1.154-6.456-2.877-9.822-2.347-4.586-4.773-9.329-.314-12.345a5.538,5.538,0,0,1,5.4-.829c2.03.823,3.852,3.011,5.415,6.5a47.223,47.223,0,0,1,2.863,9.276c.746,3.583,3.216,5.627,6.075,7.994,2.776,2.3,5.923,4.9,7.753,9.376a34.478,34.478,0,0,1,2.163,9.65c.5,4.3.927,8.009,4.776,11.859,1.7,1.7,3.164,2.987,4.458,4.123,3.827,3.362,6.136,5.391,7.678,12.173,1.971,8.675,3.177,20.211,3.189,20.327a.9.9,0,0,1-1.792.185c-.012-.115-1.207-11.545-3.154-20.112-1.412-6.213-3.316-7.886-7.11-11.219-1.314-1.155-2.8-2.463-4.542-4.2-4.294-4.293-4.779-8.487-5.292-12.926a32.525,32.525,0,0,0-2.041-9.174c-1.659-4.056-4.493-6.4-7.234-8.67-2.99-2.475-5.815-4.814-6.69-9.015-1.646-7.906-4.335-13.317-7.192-14.476a3.8,3.8,0,0,0-3.711.652c-2.986,2.02-1.6,5.128.909,10.032,1.865,3.645,3.794,7.415,3.036,11.014-1.58,7.5,1.424,14.231,4.907,20.382,3.466,6.123,2.277,12.04.9,18.891-.216,1.073-.438,2.179-.651,3.325-.907,4.877,2.973,10.2,6.725,15.34,2.478,3.4,4.819,6.606,5.926,9.77a.9.9,0,0,1-.553,1.147A.889.889,0,0,1,651.654,3858.145Z" transform="translate(-627.248 -3765.494)" fill="#a7e0f0"/>
        </g>
        <g id="Group_1072" data-name="Group 1072" transform="translate(0.257 151.44)">
          <path id="Path_1586" data-name="Path 1586" d="M699.271,3732.313a.9.9,0,0,1-.733-1.424,4.418,4.418,0,0,0,.656-3.347c-.357-1.272-1.518-2.344-3.453-3.183-6.523-2.83-14.642-6.352-10.808-18.492.66-2.091,1.344-4.015,1.947-5.712,2.678-7.536,4.154-11.686-.891-16.137-2.523-2.226-5.674-2.388-9.01-2.559-4.811-.248-10.263-.529-13.045-8.114-2.693-7.344-.874-13.122.732-18.22,1.057-3.359,2.056-6.531,1.6-9.715l-.113-.8c-1.168-8.3-2.769-19.677-19.976-27.3-7.975-3.533-13.891-10.616-16.658-19.946-2.484-8.375-1.989-17.649,1.2-22.551a17.761,17.761,0,0,1,12.961-8.264c5.168-.528,10.353,1.55,14.6,5.843,4.823,4.876,7.006,10.559,8.931,15.574,1.683,4.385,3.138,8.172,5.935,9.746,7.22,4.062,14.33,12.022,13.938,20.649-.467,10.281,2.561,16.209,9.259,18.123,1.437.41,3.1.737,4.857,1.083,8.257,1.624,19.566,3.848,24.3,18.452,3.275,10.109,2.359,16.771,1.55,22.65-.576,4.187-1.073,7.8.049,11.969,1.248,4.635,5.965,6.813,10.959,9.12,5.542,2.56,11.274,5.207,13.216,11.463a.9.9,0,0,1-1.721.534c-1.7-5.491-7.065-7.967-12.25-10.362-5.151-2.378-10.476-4.838-11.943-10.286-1.217-4.52-.671-8.485-.094-12.684.782-5.686,1.669-12.132-1.479-21.849-4.4-13.6-14.677-15.616-22.931-17.239-1.8-.354-3.495-.687-5-1.119-7.513-2.146-11.067-8.854-10.564-19.937.357-7.862-6.283-15.206-13.021-19-3.363-1.892-4.925-5.96-6.734-10.671-1.862-4.849-3.973-10.346-8.53-14.953-3.912-3.955-8.454-5.793-13.137-5.317a15.97,15.97,0,0,0-11.634,7.455c-2.925,4.492-3.33,13.15-.985,21.056,2.615,8.815,8.176,15.5,15.661,18.81,18.122,8.027,19.872,20.465,21.03,28.7l.113.793c.513,3.589-.546,6.951-1.667,10.51-1.593,5.059-3.24,10.291-.758,17.059,2.371,6.467,6.576,6.683,11.445,6.934,3.5.18,7.116.366,10.11,3.008,5.959,5.258,4.144,10.364,1.4,18.092-.6,1.684-1.276,3.592-1.927,5.651-3.345,10.592,3.044,13.363,9.807,16.3,2.467,1.07,3.973,2.541,4.477,4.372a6.2,6.2,0,0,1-.933,4.861A.9.9,0,0,1,699.271,3732.313Z" transform="translate(-627.945 -3566.471)" fill="#31a2d8"/>
        </g>
        <g id="Group_1073" data-name="Group 1073" transform="translate(33.666 34.344)">
          <path id="Path_1587" data-name="Path 1587" d="M777.353,3435.053a.9.9,0,0,1-.864-.647c-1.357-4.612-6.53-8.214-11.533-11.7-1.9-1.326-3.873-2.7-5.615-4.112-6.847-5.563-6.644-12.832-3.876-24.3,2.31-9.571-2.266-18.533-12.242-23.975a31.855,31.855,0,0,1-11.9-12.046c-3.242-5.8-4.094-11.9-2.4-17.169,3.175-9.877-2.19-19.9-6.108-27.219-.335-.627-.66-1.234-.968-1.819-4.134-7.854-.1-17.259,3.454-25.557l.083-.194c3.306-7.714-.887-15.064-5.076-21.347-2.853-4.28-2.2-10.389.2-13.41a5.383,5.383,0,0,1,6.421-1.809c4.513,1.692,8.765,6.008,12.877,10.183,1.853,1.88,3.77,3.826,5.634,5.441,2.339,2.027,5.961,2.534,9.8,3.07,5.38.752,10.943,1.531,13.422,6.738a26.317,26.317,0,0,1,2.271,8.433c.528,3.842.909,6.617,5.741,9.838a40.276,40.276,0,0,0,9.393,4.1c6.79,2.323,13.812,4.724,17.11,12.969a.9.9,0,0,1-1.673.669c-2.99-7.476-9.319-9.641-16.02-11.933a42.2,42.2,0,0,1-9.809-4.3c-5.507-3.671-5.979-7.11-6.526-11.092a24.8,24.8,0,0,0-2.113-7.9c-2.062-4.331-6.911-5.009-12.045-5.728-3.925-.549-7.984-1.117-10.726-3.494-1.918-1.662-3.859-3.633-5.737-5.539-3.975-4.035-8.086-8.208-12.226-9.76a3.6,3.6,0,0,0-4.377,1.242c-1.962,2.473-2.489,7.718-.107,11.291,3.215,4.823,9.2,13.8,5.232,23.056l-.083.194c-3.564,8.315-7.249,16.914-3.516,24.008.306.582.629,1.185.963,1.808,4.069,7.6,9.643,18.017,6.234,28.622-3.524,10.962,5.547,22.771,13.449,27.082,10.736,5.856,15.644,15.568,13.131,25.979-2.655,11-2.879,17.492,3.26,22.48,1.69,1.373,3.631,2.725,5.508,4.032,5.259,3.661,10.7,7.448,12.232,12.667a.9.9,0,0,1-.865,1.155Z" transform="translate(-718.423 -3249.346)" fill="#4e76dd"/>
        </g>
        <g id="Group_1074" data-name="Group 1074" transform="translate(563.221 99.61)">
          <path id="Path_1588" data-name="Path 1588" d="M2153.487,3590.252a.9.9,0,0,1-.746-1.405c40.52-59.9,119.232-147.8,133.913-162.481a.9.9,0,1,1,1.274,1.275c-14.656,14.657-93.24,102.414-133.694,162.216A.9.9,0,0,1,2153.487,3590.252Z" transform="translate(-2152.587 -3426.102)" fill="#80eac4"/>
        </g>
        <g id="Group_1075" data-name="Group 1075" transform="translate(13.097 165.619)">
          <path id="Path_1589" data-name="Path 1589" d="M747.471,3749.4a.9.9,0,0,1-.837-.566c-14.628-36.569-50.545-91.558-72.005-124.413-4.693-7.185-8.746-13.389-11.77-18.164a.9.9,0,1,1,1.522-.964c3.017,4.763,7.067,10.963,11.756,18.143,21.5,32.91,57.476,87.993,72.17,124.729a.9.9,0,0,1-.836,1.235Z" transform="translate(-662.719 -3604.872)" fill="#31a2d8"/>
        </g>
      </g>
      <g id="Group_1117" data-name="Group 1117" transform="translate(264.8 16.146)">
        <g id="Group_1077" data-name="Group 1077" transform="translate(238.178 328.267)">
          <path id="Path_1590" data-name="Path 1590" d="M1952.565,3890.919c-.3,6.542,0,26.76,0,26.76H2091.01s-7.119-41.33-12.273-55.9Z" transform="translate(-1952.433 -3861.779)" fill="#82eac5"/>
        </g>
        <g id="Group_1078" data-name="Group 1078" transform="translate(0 220.728)">
          <path id="Path_1591" data-name="Path 1591" d="M1464.03,3570.539l-5.154,13.479-69.776,20.616s-1.586-18.237-12.29-19.823-40.042,4.361-40.042,4.361l-19.03,25.77s-11.1,1.982-10.308,8.326,7.929,4.758,7.929,4.758-5.749,2.378-4.758,7.334,8.127,3.568,8.127,3.568-4.559,1.785-2.973,7.335,6.145,3.766,6.145,3.766-3.965,2.379-1.586,7.334,15.263,5.352,28.149,3.964,65.811-12.092,88.608-18.435,46.98-12.29,60.657-25.968,18.237-23.589,18.237-23.589Z" transform="translate(-1307.389 -3570.539)" fill="#e6d0c5"/>
        </g>
        <g id="Group_1079" data-name="Group 1079" transform="translate(156.64 111.009)">
          <path id="Path_1592" data-name="Path 1592" d="M1864.124,3273.393c18.138,1.09,58.576,13.38,74.038,49.458s13.479,86.229,13.479,86.229l-30.725-.991s6.938,42.024,11.3,53.521,11.1,28.148,11.1,30.527-44.8,17.444-67.4,22.6-61.451,7.433-66.208,6.244c-1.487-11.6-5.154-68.091-5.947-95.05s-2.379-32.906-2.379-32.906-6.343,19.823-8.326,21.012-40.042-17.444-47.574-21.8a158.1,158.1,0,0,1-13.876-9.119s12.687-40.042,21.409-59.469,23.391-32.113,38.853-38.06,42.024-10.7,42.024-10.7Z" transform="translate(-1731.609 -3273.393)" fill="#4881f1"/>
        </g>
        <g id="Group_1097" data-name="Group 1097" transform="translate(200.051 0)">
          <g id="Group_1080" data-name="Group 1080">
            <path id="Path_1593" data-name="Path 1593" d="M1882.083,2980.188a25.327,25.327,0,0,1,18.732-7.433c13.083.149,23.341,5.352,30.775,15.164a35.858,35.858,0,0,1,5.649,32.559c-3.42,10.11-11.547,13.033-11.547,13.033l-10.456,7.334-29.14-5.352s-13.529,2.973-24.233-2.081-13.826-10.853-12.34-12.34,7.285-5.2,9.515-14.272,4.757-17.543,10.7-22.747A15.251,15.251,0,0,1,1882.083,2980.188Z" transform="translate(-1849.176 -2972.753)" fill="#303145"/>
          </g>
          <g id="Group_1081" data-name="Group 1081" transform="translate(20.986 14.968)">
            <path id="Path_1594" data-name="Path 1594" d="M1916.941,3013.29c-2.775,2.577-5.154,7.731-5.947,12.687a49.509,49.509,0,0,0-.2,10.853s-2.974,2.428-4.163,3.419a1.426,1.426,0,0,0,.595,2.577c1.09.3,2.874.694,2.874.694s-.2,3.172.4,3.469,2.775,0,4.956-.594a21.127,21.127,0,0,0,4.262-1.784s.595,2.18-.694,3.469-7.037,3.469-7.037,3.469a27.555,27.555,0,0,0,4.262,8.127c2.875,3.568,8.127,5.65,8.127,5.65s2.379,18.732,3.073,24.779,2.081,23.589,2.081,23.589,1.784,15.164,2.974,22.5,3.172,16.552,4.658,16.75,16.75-15.264,22.9-22.3,13.38-18.336,14.074-21.31c0,0-6.641-20.715-8.425-29.04s-4.163-21.21-4.163-21.21-5.55,2.18-7.533,1.784-3.171-17.047-3.171-17.047,6.789-2.082,7.087-8.475-2.23-12.042-6.839-11.745a8.262,8.262,0,0,0-7.285,5.649c-.446,1.635-.743,5.055-1.487,5.055s-3.865-.892-4.46-6.839-1.933-11.15-7.88-12.637A64.868,64.868,0,0,0,1916.941,3013.29Z" transform="translate(-1906.01 -3013.29)" fill="#f7e5dd"/>
          </g>
          <g id="Group_1082" data-name="Group 1082" transform="translate(35.509 33.564)">
            <path id="Path_1595" data-name="Path 1595" d="M1946.383,3066.7c-.69,0-1.041-.514-1.041-1.524s.351-1.524,1.041-1.524,1.041.514,1.041,1.524S1947.072,3066.7,1946.383,3066.7Z" transform="translate(-1945.342 -3063.653)" fill="#100c27"/>
          </g>
          <g id="Group_1083" data-name="Group 1083" transform="translate(30.521 24.999)">
            <path id="Path_1596" data-name="Path 1596" d="M1932.512,3043.638a.676.676,0,0,1-.4-1.22c2.617-1.924,7.981-2.785,11.492-.946a.676.676,0,1,1-.627,1.2c-2.936-1.538-7.821-.812-10.065.838A.672.672,0,0,1,1932.512,3043.638Z" transform="translate(-1931.835 -3040.455)" fill="#303145"/>
          </g>
          <g id="Group_1084" data-name="Group 1084" transform="translate(25.32 34.266)">
            <path id="Path_1597" data-name="Path 1597" d="M1918.2,3070.246a.451.451,0,0,1-.311-.777c2.223-2.121,2.463-3.129,2.463-3.465a.45.45,0,0,1,.9,0c0,1-.922,2.381-2.741,4.118A.451.451,0,0,1,1918.2,3070.246Z" transform="translate(-1917.749 -3065.554)" fill="#f3a8a3"/>
          </g>
          <g id="Group_1085" data-name="Group 1085" transform="translate(24.626 44.747)">
            <path id="Path_1598" data-name="Path 1598" d="M1919.17,3095.138a14.331,14.331,0,0,1-2.964-.312.45.45,0,0,1,.227-.872,13.69,13.69,0,0,0,2.737.283.451.451,0,0,1,0,.9Z" transform="translate(-1915.869 -3093.939)" fill="#f3a8a3"/>
          </g>
          <g id="Group_1086" data-name="Group 1086" transform="translate(38.259 38.337)">
            <path id="Path_1599" data-name="Path 1599" d="M1955.563,3086.959c-2.333-.427-3.2-2.383-2.575-5.8s2.131-4.937,4.464-4.51,3.2,2.383,2.575,5.8S1957.9,3087.387,1955.563,3086.959Z" transform="translate(-1952.791 -3076.579)" fill="#f3a8a3"/>
          </g>
          <g id="Group_1087" data-name="Group 1087" transform="translate(38.899 58.499)">
            <path id="Path_1600" data-name="Path 1600" d="M1959.8,3141.025a13.126,13.126,0,0,1-5-.923.451.451,0,1,1,.347-.832c5.111,2.131,14.323.6,18.326-7.831a.45.45,0,1,1,.813.387A15.887,15.887,0,0,1,1959.8,3141.025Z" transform="translate(-1954.522 -3131.182)" fill="#f3a8a3"/>
          </g>
          <g id="Group_1088" data-name="Group 1088" transform="translate(62.711 29.583)">
            <path id="Path_1601" data-name="Path 1601" d="M2019.462,3063.807a.445.445,0,0,1-.236-.067.451.451,0,0,1-.146-.62,20.67,20.67,0,0,0,1.333-4.436,36.151,36.151,0,0,1,1.611-5.542.45.45,0,0,1,.826.359,36.227,36.227,0,0,0-1.56,5.391,20.144,20.144,0,0,1-1.443,4.7A.451.451,0,0,1,2019.462,3063.807Z" transform="translate(-2019.013 -3052.871)" fill="#f3a8a3"/>
          </g>
          <g id="Group_1089" data-name="Group 1089" transform="translate(25.271 45.829)">
            <path id="Path_1602" data-name="Path 1602" d="M1919.5,3104.569a.451.451,0,0,1-.082-.894,15.5,15.5,0,0,0,5.947-2.586,4.318,4.318,0,0,0,1.292-3,21.877,21.877,0,0,1-3.359,1.3,10.3,10.3,0,0,1-5.3.658.45.45,0,1,1,.137-.89c1.8.276,2.746.023,4.905-.63a16.028,16.028,0,0,0,3.658-1.5.485.485,0,0,1,.446-.152.494.494,0,0,1,.382.408,5.388,5.388,0,0,1-1.6,4.508,16.263,16.263,0,0,1-6.343,2.766A.435.435,0,0,1,1919.5,3104.569Zm7.172-7.511h0Z" transform="translate(-1917.615 -3096.87)" fill="#f3a8a3"/>
          </g>
          <g id="Group_1095" data-name="Group 1095" transform="translate(19.014 31.887)">
            <g id="Group_1090" data-name="Group 1090" transform="translate(0 4.238)">
              <path id="Path_1603" data-name="Path 1603" d="M1924.477,3102.385a22.582,22.582,0,0,1-10.112-2.77c-5.21-2.57-12.916-9.8-13.628-15.737-.692-5.76,4.338-9.826,4.553-10a.438.438,0,0,1,.3-.1c.945.038,2.308.206,4.195.438,1.917.236,4.3.53,7.353.828,5.9.567,16.458-4.369,16.564-4.419a.453.453,0,0,1,.392,0,.448.448,0,0,1,.24.31c.014.066,1.417,6.651,3.07,9.453,1.685,2.858,3.981,6.416,4,6.452a.449.449,0,0,1,.046.395,42,42,0,0,1-2.8,6.01c-2.4,4.225-4.944,6.871-7.573,7.865A18.5,18.5,0,0,1,1924.477,3102.385Zm-18.752-27.692c-.757.657-4.666,4.306-4.094,9.077.515,4.3,6.241,11.639,13.133,15.037,5.178,2.553,9.88,3.781,15.995,1.469,5.39-2.037,9.191-11.6,9.768-13.128-.5-.778-2.431-3.8-3.9-6.293-1.457-2.471-2.674-7.5-3.054-9.175-2.09.943-9.949,4.316-15.42,4.317q-.572,0-1.1-.051c-3.062-.3-5.454-.594-7.376-.83C1907.922,3074.9,1906.628,3074.741,1905.724,3074.692Z" transform="translate(-1900.671 -3070.588)" fill="#4ebdcc"/>
            </g>
            <g id="Group_1091" data-name="Group 1091" transform="translate(39.905 13.38)">
              <path id="Path_1604" data-name="Path 1604" d="M2009.2,3103.162a.45.45,0,0,1-.371-.705c.034-.05,3.423-4.988,4.516-6.884a.451.451,0,0,1,.781.45c-1.111,1.926-4.413,6.739-4.553,6.943A.45.45,0,0,1,2009.2,3103.162Z" transform="translate(-2008.745 -3095.347)" fill="#4ebdcc"/>
            </g>
            <g id="Group_1092" data-name="Group 1092" transform="translate(32.769)">
              <path id="Path_1605" data-name="Path 1605" d="M1989.869,3064.249a.45.45,0,0,1-.229-.839c2.107-1.235,5.937-4.176,5.975-4.206a.451.451,0,1,1,.549.714c-.159.122-3.913,3.005-6.068,4.269A.445.445,0,0,1,1989.869,3064.249Z" transform="translate(-1989.418 -3059.111)" fill="#4ebdcc"/>
            </g>
            <g id="Group_1093" data-name="Group 1093" transform="translate(22.511 9.069)">
              <path id="Path_1606" data-name="Path 1606" d="M1962.086,3089.479a.45.45,0,0,1-.049-.9c1.866-.207,8.879-3.458,11.271-4.848a.45.45,0,0,1,.452.779c-2.269,1.317-9.468,4.725-11.624,4.964A.44.44,0,0,1,1962.086,3089.479Z" transform="translate(-1961.636 -3083.672)" fill="#4ebdcc"/>
            </g>
            <g id="Group_1094" data-name="Group 1094" transform="translate(27.343 15.833)">
              <path id="Path_1607" data-name="Path 1607" d="M1975.173,3111.292a.45.45,0,0,1-.206-.852c2.885-1.478,8.158-6.021,9.563-8.24a.45.45,0,0,1,.761.481c-1.495,2.361-6.868,7-9.913,8.56A.453.453,0,0,1,1975.173,3111.292Z" transform="translate(-1974.722 -3101.991)" fill="#4ebdcc"/>
            </g>
          </g>
          <g id="Group_1096" data-name="Group 1096" transform="translate(59.515 42.74)">
            <path id="Path_1608" data-name="Path 1608" d="M2015.188,3091.884a5.832,5.832,0,0,1-4.739-2.654.45.45,0,1,1,.713-.551c1.149,1.486,2.6,2.772,5.392,2.14a.45.45,0,1,1,.2.878A7.041,7.041,0,0,1,2015.188,3091.884Z" transform="translate(-2010.355 -3088.504)" fill="#f3a8a3"/>
          </g>
        </g>
        <g id="Group_1098" data-name="Group 1098" transform="translate(206.54 149.312)">
          <path id="Path_1609" data-name="Path 1609" d="M1886.625,3458.9a.45.45,0,0,1-.447-.4l-2.751-23.975c-3.109-2.054-16.281-10.924-16.281-13.74,0-2.742,10.346-16.932,12.21-19.465l-12.553-23.537a.45.45,0,0,1,.795-.424l12.687,23.787a.451.451,0,0,1-.035.479c-4.9,6.646-12.2,17.232-12.2,19.159,0,.979,4.358,5.4,16.052,13.1a.45.45,0,0,1,.2.325l2.775,24.183a.45.45,0,0,1-.4.5A.41.41,0,0,1,1886.625,3458.9Z" transform="translate(-1866.749 -3377.126)" fill="#303145"/>
        </g>
        <g id="Group_1099" data-name="Group 1099" transform="translate(296.931 151.295)">
          <path id="Path_1610" data-name="Path 1610" d="M2112,3473.393a.483.483,0,0,1-.1-.012.451.451,0,0,1-.339-.54c1.894-8.264,4.774-24.34,7.822-41.359,3.85-21.5,7.832-43.723,9.637-48.689a.45.45,0,1,1,.847.308c-1.779,4.893-5.754,27.082-9.6,48.541-3.051,17.03-5.932,33.116-7.831,41.4A.451.451,0,0,1,2112,3473.393Z" transform="translate(-2111.551 -3382.496)" fill="#303145"/>
        </g>
        <g id="Group_1112" data-name="Group 1112" transform="translate(134.827 241.741)">
          <g id="Group_1101" data-name="Group 1101">
            <path id="Path_1611" data-name="Path 1611" d="M1900.107,3632.2l-65.019-4.757-6.74,30.923-95.447,30.626a60.524,60.524,0,0,0-24.382-1.189c-13.678,2.082-18.732,4.857-19.129,8.821s6.938,7.731,15.263,7.334a49.81,49.81,0,0,1-14.669.595c-6.938-.991-13.479-2.577-15.462,1.387s0,6.542,1.189,7.136a5.383,5.383,0,0,0-3.171,5.154,6.92,6.92,0,0,0,2.577,5.352,4.022,4.022,0,0,0-2.379,3.568c-.2,2.775,5.154,6.344,5.154,6.344s-1.388,1.586-.595,4.956,9.515,6.74,18.237,7.929,37.862-.4,53.323-4.163,80.679-20.616,103.277-32.312,28.545-21.012,36.474-35.284S1900.107,3632.2,1900.107,3632.2Z" transform="translate(-1672.533 -3627.445)" fill="#f7e5dd"/>
          </g>
          <g id="Group_1102" data-name="Group 1102" transform="translate(31.671 68.979)">
            <path id="Path_1612" data-name="Path 1612" d="M1758.755,3822.244a.451.451,0,0,1-.092-.892c7.411-1.55,15.519-6.965,15.6-7.02a.451.451,0,0,1,.5.748c-.082.055-8.338,5.568-15.918,7.154A.448.448,0,0,1,1758.755,3822.244Z" transform="translate(-1758.305 -3814.256)" fill="#f3a8a3"/>
          </g>
          <g id="Group_1103" data-name="Group 1103" transform="translate(17.101 61.546)">
            <path id="Path_1613" data-name="Path 1613" d="M1722.174,3803.375a24.149,24.149,0,0,1-2.936-.176.45.45,0,1,1,.119-.893c.043.005,4.384.567,7.069-.422,3.153-1.162,4.564-3.543,4.315-7.279a.451.451,0,0,1,.419-.479.461.461,0,0,1,.48.42c.276,4.13-1.374,6.883-4.9,8.184A13.884,13.884,0,0,1,1722.174,3803.375Z" transform="translate(-1718.846 -3794.126)" fill="#f3a8a3"/>
          </g>
          <g id="Group_1104" data-name="Group 1104" transform="translate(2.73 85.184)">
            <path id="Path_1614" data-name="Path 1614" d="M1703.846,3865.426c-9.637,0-19.5-3.429-23.732-6.466a.45.45,0,1,1,.525-.732c4.734,3.4,17.471,7.474,28.121,5.966a.45.45,0,1,1,.126.892A36,36,0,0,1,1703.846,3865.426Z" transform="translate(-1679.926 -3858.144)" fill="#f3a8a3"/>
          </g>
          <g id="Group_1105" data-name="Group 1105" transform="translate(2.135 95.69)">
            <path id="Path_1615" data-name="Path 1615" d="M1703.666,3893.4c-7.166,0-18.808-2.125-25.135-5.973a.45.45,0,0,1,.468-.77c7.448,4.529,22.412,6.623,28.232,5.591a.45.45,0,1,1,.157.887A22.017,22.017,0,0,1,1703.666,3893.4Z" transform="translate(-1678.315 -3886.596)" fill="#f3a8a3"/>
          </g>
          <g id="Group_1106" data-name="Group 1106" transform="translate(4.91 105.601)">
            <path id="Path_1616" data-name="Path 1616" d="M1706.964,3919.869c-6.926,0-16.867-2.8-20.938-5.609a.451.451,0,0,1,.511-.742c4.529,3.121,16.532,6.242,23.07,5.277a.451.451,0,0,1,.131.892A19.269,19.269,0,0,1,1706.964,3919.869Z" transform="translate(-1685.831 -3913.438)" fill="#f3a8a3"/>
          </g>
          <g id="Group_1107" data-name="Group 1107" transform="translate(1.837 79.138)">
            <path id="Path_1617" data-name="Path 1617" d="M1688.07,3852.384h-.013a.45.45,0,0,1-.438-.462c0-.034.074-3.444-1.4-5.471-1.562-2.148-5.539-3.688-8.274-3.779a.45.45,0,0,1,.015-.9h.016c2.947.1,7.255,1.79,8.971,4.15,1.658,2.278,1.578,5.874,1.573,6.026A.45.45,0,0,1,1688.07,3852.384Z" transform="translate(-1677.509 -3841.77)" fill="#f3a8a3"/>
          </g>
          <g id="Group_1108" data-name="Group 1108" transform="translate(0.152 88.355)">
            <path id="Path_1618" data-name="Path 1618" d="M1681.723,3877.644a.452.452,0,0,1-.433-.577,10.051,10.051,0,0,0-.683-5.76c-1.255-3.316-5.461-3.674-7.211-3.674a.45.45,0,0,1,0-.9c1.937,0,6.6.415,8.053,4.256a10.688,10.688,0,0,1,.705,6.331A.451.451,0,0,1,1681.723,3877.644Z" transform="translate(-1672.946 -3866.732)" fill="#f3a8a3"/>
          </g>
          <g id="Group_1109" data-name="Group 1109" transform="translate(0.45 98.862)">
            <path id="Path_1619" data-name="Path 1619" d="M1682.429,3904.611a.45.45,0,0,1-.432-.578,7.206,7.206,0,0,0-.463-4.818c-1.122-2.157-4.963-3.127-7.332-3.127a.45.45,0,1,1,0-.9c2.417,0,6.762.981,8.13,3.613a8,8,0,0,1,.528,5.49A.451.451,0,0,1,1682.429,3904.611Z" transform="translate(-1673.752 -3895.186)" fill="#f3a8a3"/>
          </g>
          <g id="Group_1110" data-name="Group 1110" transform="translate(4.513 108.475)">
            <path id="Path_1620" data-name="Path 1620" d="M1691.055,3928.466a.449.449,0,0,1-.446-.521c.341-2.131-3.1-5.448-5.474-5.828a.451.451,0,0,1,.142-.89c2.558.41,6.675,4.024,6.222,6.859A.451.451,0,0,1,1691.055,3928.466Z" transform="translate(-1684.756 -3921.222)" fill="#f3a8a3"/>
          </g>
          <g id="Group_1111" data-name="Group 1111" transform="translate(155.365 29.832)">
            <path id="Path_1621" data-name="Path 1621" d="M2093.749,3709.78a.451.451,0,0,1-.049-.9,196.929,196.929,0,0,1,20.577-.6.452.452,0,0,1,.44.461.461.461,0,0,1-.461.439,195.47,195.47,0,0,0-20.456.592Z" transform="translate(-2093.298 -3708.239)" fill="#f3a8a3"/>
          </g>
        </g>
        <g id="Group_1113" data-name="Group 1113" transform="translate(187.312 203.825)">
          <path id="Path_1622" data-name="Path 1622" d="M1841.292,3546.178a.451.451,0,0,1-.409-.26c-2.007-4.3-7.091-6.966-12.474-9.787-5.446-2.854-11.077-5.806-13.682-10.708a.451.451,0,0,1,.8-.423c2.474,4.657,7.979,7.542,13.3,10.333,5.521,2.893,10.736,5.627,12.872,10.2a.45.45,0,0,1-.218.6A.444.444,0,0,1,1841.292,3546.178Z" transform="translate(-1814.674 -3524.76)" fill="#303145"/>
        </g>
        <g id="Group_1114" data-name="Group 1114" transform="translate(303.87 202.933)">
          <path id="Path_1623" data-name="Path 1623" d="M2130.792,3556.25a.45.45,0,0,1-.26-.819c2.346-1.655,4.3-8.038,6.376-14.794,2.245-7.32,4.567-14.89,7.838-18.16a.45.45,0,0,1,.636.637c-3.112,3.112-5.4,10.573-7.613,17.787-2.119,6.909-4.121,13.434-6.718,15.267A.448.448,0,0,1,2130.792,3556.25Z" transform="translate(-2130.341 -3522.345)" fill="#303145"/>
        </g>
        <g id="Group_1115" data-name="Group 1115" transform="translate(240.238 261.807)">
          <path id="Path_1624" data-name="Path 1624" d="M1981.953,3696.665a.451.451,0,0,1-.422-.292c-.261-.7-3.823-2.147-6.965-3.427-6.842-2.787-15.356-6.255-16.538-10.587a.45.45,0,1,1,.869-.237c1.065,3.9,9.7,7.421,16.009,9.99,4.645,1.893,7.086,2.927,7.468,3.946a.451.451,0,0,1-.422.609Z" transform="translate(-1958.012 -3681.789)" fill="#303145"/>
        </g>
        <g id="Group_1116" data-name="Group 1116" transform="translate(329.441 309.381)">
          <path id="Path_1625" data-name="Path 1625" d="M2200.044,3829.373a.451.451,0,0,1-.107-.888c8.739-2.14,12.761-7.611,15.992-12.007,2.057-2.8,3.834-5.215,6.306-5.833a.45.45,0,1,1,.219.874c-2.158.54-3.764,2.725-5.8,5.493-3.318,4.514-7.447,10.13-16.5,12.349A.449.449,0,0,1,2200.044,3829.373Z" transform="translate(-2199.594 -3810.631)" fill="#303145"/>
        </g>
      </g>
      <g id="Group_1145" data-name="Group 1145" transform="translate(105.069 7.66)">
        <g id="Group_1120" data-name="Group 1120" transform="translate(160.763 247.699)">
          <g id="Group_1118" data-name="Group 1118">
            <path id="Path_1626" data-name="Path 1626" d="M1310.183,3632.345s17.841,66.6,24.68,84.445,20.423,48.764,20.423,48.764h72.942s0-14.173-9.812-19.029c-7.631-3.777-12.786-2.379-12.786-2.379s-14.57-51.143-22.3-75.228-15.016-48.318-15.016-48.318a251.08,251.08,0,0,1-27.5,7.879A171.308,171.308,0,0,1,1310.183,3632.345Z" transform="translate(-1310.183 -3620.6)" fill="#f7e5dd"/>
          </g>
          <g id="Group_1119" data-name="Group 1119" transform="translate(66.158 128.595)">
            <path id="Path_1627" data-name="Path 1627" d="M1503.777,3985.825h-.033a15.2,15.2,0,0,1-11.125-6.052c-2.472-3.248-3.723-7.485-3.111-10.542a.45.45,0,0,1,.883.177c-.469,2.346.26,6.292,2.945,9.821a14.143,14.143,0,0,0,10.472,5.7.451.451,0,0,1-.032.9Z" transform="translate(-1489.355 -3968.867)" fill="#f3a8a3"/>
          </g>
        </g>
        <g id="Group_1121" data-name="Group 1121" transform="translate(0 91.023)">
          <path id="Path_1628" data-name="Path 1628" d="M1020.3,3201.265c-22.6-3.964-50.35-10.7-80.877,4.361s-48.368,61.451-53.918,76.516-10.7,40.438-10.7,40.438l50.746,21.012-8.821,154.32h95.942L1026.245,3365s8.326,3.172,23.391,1.982,46.782-12.687,46.782-12.687,1.982-54.711,1.585-78.1-.793-36.077-11.893-46.385a100.659,100.659,0,0,0-24.58-16.255Z" transform="translate(-874.799 -3196.282)" fill="#89ebc9"/>
        </g>
        <g id="Group_1132" data-name="Group 1132" transform="translate(135.718)">
          <g id="Group_1122" data-name="Group 1122" transform="translate(29.574)">
            <path id="Path_1629" data-name="Path 1629" d="M1398.5,2979.667c5.947.4,9.217-4.064,9.713-9.119s-4.064-10.9-9.713-11.993c-4.486-.865-7.731.793-9.713-.2s-2.974-5.154-7.632-7.533c-3.155-1.611-7.83-1.685-12.29,1.983s-6.938,4.262-10.506,3.568-7.533-4.064-13.281-.793-6.541,11.2-7.136,14.669-3.866,6.74-7.632,8.127-8.722,5.055-7.731,11.4,10.209,7.879,10.209,7.879l25.423,23.787s6.888,2.429,11.745,1.338,13.628-5.1,13.579-6.839-1.572-2.2-3.618-4.659c-1.735-2.082-2.527-4.658-1.239-5.253s3.667,1.388,4.857,2.379,3.577,3.414,5.055,3.072c1.933-.446,5.6-6.69,5.6-6.69l2.131-18.088Z" transform="translate(-1322.451 -2949.77)" fill="#3160d8"/>
          </g>
          <g id="Group_1123" data-name="Group 1123" transform="translate(77.559 28.253)">
            <path id="Path_1630" data-name="Path 1630" d="M1480.47,3027.929s1.784,6.1,1.189,11a18.846,18.846,0,0,1-2.23,7.433s4.311,5.055,3.865,6.393-7.136.3-7.136.3-5.452-3.766-9.912-3.915-11.939,1.7-13.281-1.883-.446-7.879,4.46-13.677,7.582-7.136,11.448-7.285S1480.47,3027.929,1480.47,3027.929Z" transform="translate(-1452.405 -3026.285)" fill="#f7e5dd"/>
          </g>
          <g id="Group_1124" data-name="Group 1124" transform="translate(0 17.792)">
            <path id="Path_1631" data-name="Path 1631" d="M1282.269,3028.049a21.821,21.821,0,0,0,10.258-1.041,27.4,27.4,0,0,0,7.879-4.46s-6.165-4.2-6.442-10.308c-.3-6.542,2.428-13.479,9.119-14.223s11.943,5.3,12.389,8.276a16.67,16.67,0,0,1-4.063,12.538,29.639,29.639,0,0,0-6.542,15.76c-.892,7.879,2.825,17.245,2.825,17.245a23.2,23.2,0,0,0,11.745,1.338l-27.653,50.994s-16.057,8.028-32.262-.743-17.543-18.138-17.1-21.557c2.974-4.906,7.731-11.15,13.529-18.435S1282.269,3028.049,1282.269,3028.049Z" transform="translate(-1242.357 -2997.954)" fill="#f7e5dd"/>
          </g>
          <g id="Group_1125" data-name="Group 1125" transform="translate(93.485 43.457)">
            <path id="Path_1632" data-name="Path 1632" d="M1496.057,3070.086c-.573-.257-.673-.815-.3-1.654s.859-1.135,1.432-.879.673.815.3,1.654S1496.63,3070.343,1496.057,3070.086Z" transform="translate(-1495.537 -3067.464)" fill="#100c27"/>
          </g>
          <g id="Group_1126" data-name="Group 1126" transform="translate(90.401 35.497)">
            <path id="Path_1633" data-name="Path 1633" d="M1498.989,3051.166a.9.9,0,0,1-.765-.425,6.988,6.988,0,0,0-3.465-2.638,8.607,8.607,0,0,0-6.315.461.9.9,0,1,1-.714-1.654,10.421,10.421,0,0,1,7.56-.53,8.724,8.724,0,0,1,4.465,3.408.9.9,0,0,1-.764,1.377Z" transform="translate(-1487.185 -3045.905)" fill="#2f456e"/>
          </g>
          <g id="Group_1127" data-name="Group 1127" transform="translate(80.189 45.01)">
            <path id="Path_1634" data-name="Path 1634" d="M1463.742,3071.731c-2.114-.387-3.478.991-4.045,4.086a9.541,9.541,0,0,0-.167,1.864,18,18,0,0,0,6.315.309c.087-.312.165-.646.23-1C1466.642,3073.891,1465.855,3072.119,1463.742,3071.731Z" transform="translate(-1459.529 -3071.668)" fill="#f3a8a3"/>
          </g>
          <g id="Group_1128" data-name="Group 1128" transform="translate(60.944 24.317)">
            <path id="Path_1635" data-name="Path 1635" d="M1407.859,3029.091h-.018a.45.45,0,0,1-.433-.468c0-.1.367-9.737.076-12.5a.45.45,0,1,1,.9-.094c.3,2.824-.057,12.228-.072,12.626A.451.451,0,0,1,1407.859,3029.091Z" transform="translate(-1407.408 -3015.627)" fill="#f3a8a3"/>
          </g>
          <g id="Group_1129" data-name="Group 1129" transform="translate(57.599 41.934)">
            <path id="Path_1636" data-name="Path 1636" d="M1403.259,3065.429a9.883,9.883,0,0,1-4.7-1.26.45.45,0,1,1,.485-.759,9.12,9.12,0,0,0,4.218,1.118.45.45,0,0,1,0,.9Z" transform="translate(-1398.349 -3063.339)" fill="#f3a8a3"/>
          </g>
          <g id="Group_1130" data-name="Group 1130" transform="translate(53.436 57.842)">
            <path id="Path_1637" data-name="Path 1637" d="M1398.973,3120.7a.45.45,0,0,1-.146-.025c-2.739-.935-10.948-6.138-11.75-13.759a.45.45,0,0,1,.9-.094c.715,6.794,8.161,11.982,11.145,13a.451.451,0,0,1-.146.877Z" transform="translate(-1387.075 -3106.42)" fill="#f3a8a3"/>
          </g>
          <g id="Group_1131" data-name="Group 1131" transform="translate(100.936 52.828)">
            <path id="Path_1638" data-name="Path 1638" d="M1516.167,3093.776a.451.451,0,0,1-.044-.9,8.925,8.925,0,0,1,1.576,0,.451.451,0,0,1-.089.9,8.208,8.208,0,0,0-1.4,0Z" transform="translate(-1515.717 -3092.842)" fill="#f3a8a3"/>
          </g>
        </g>
        <g id="Group_1138" data-name="Group 1138" transform="translate(196.092 25.679)">
          <g id="Group_1133" data-name="Group 1133" transform="translate(1.09 13.282)">
            <path id="Path_1639" data-name="Path 1639" d="M1425.03,3091.667c-3.871,0-6.978-.662-8.322-1.787-3.9-3.268-7.191-16.942-7.886-21.287a.451.451,0,0,1,.35-.511c.073-.016,7.307-1.6,11.452-4.2,4.214-2.646,9.468-8.388,9.521-8.446a.45.45,0,0,1,.75.134c1.2,2.957,3.9,8.222,8.487,10.263,4.317,1.919,14.673,1.748,14.775,1.746a.464.464,0,0,1,.332.136c.158.162,3.753,4.081-5.134,14.483C1443.512,3089.033,1432.753,3091.667,1425.03,3091.667Zm-15.249-22.8c.892,5.169,4.1,17.467,7.505,20.321,1.595,1.336,7.175,2.1,13.752,1.065,4.421-.7,12.589-2.744,17.63-8.644,7.438-8.705,5.761-12.4,5.278-13.129-1.6.017-10.743.035-14.931-1.826-4.555-2.024-7.32-6.946-8.685-10.1a56.839,56.839,0,0,1-9.229,8.087C1417.361,3066.992,1411.417,3068.486,1409.782,3068.868Z" transform="translate(-1408.817 -3055.287)" fill="#4ebdcc"/>
          </g>
          <g id="Group_1134" data-name="Group 1134" transform="translate(0 17.345)">
            <path id="Path_1640" data-name="Path 1640" d="M1407.4,3075.915a.45.45,0,0,1-.447-.4c-.391-3.425-1.082-8.662-1.09-8.714a.451.451,0,0,1,.894-.118c.007.052.7,5.3,1.091,8.73a.45.45,0,0,1-.4.5A.415.415,0,0,1,1407.4,3075.915Z" transform="translate(-1405.864 -3066.292)" fill="#4ebdcc"/>
          </g>
          <g id="Group_1135" data-name="Group 1135" transform="translate(12.291)">
            <path id="Path_1641" data-name="Path 1641" d="M1449.61,3033.5a.45.45,0,0,1-.4-.244c-1.448-2.8-9.874-13.1-9.958-13.2a.45.45,0,0,1,.7-.571c.349.426,8.571,10.477,10.062,13.36a.45.45,0,0,1-.4.658Z" transform="translate(-1439.149 -3019.316)" fill="#4ebdcc"/>
          </g>
          <g id="Group_1136" data-name="Group 1136" transform="translate(6.641 24.482)">
            <path id="Path_1642" data-name="Path 1642" d="M1427.471,3098.116a.451.451,0,0,1-.414-.273c-1.093-2.552-3-7.9-3.207-11.75a.45.45,0,0,1,.9-.048c.2,3.727,2.066,8.947,3.136,11.443a.45.45,0,0,1-.236.591A.44.44,0,0,1,1427.471,3098.116Z" transform="translate(-1423.849 -3085.618)" fill="#4ebdcc"/>
          </g>
          <g id="Group_1137" data-name="Group 1137" transform="translate(15.066 20.12)">
            <path id="Path_1643" data-name="Path 1643" d="M1452.765,3084.421a.451.451,0,0,1-.391-.226c-.041-.072-4.178-7.26-5.645-9.706a.451.451,0,1,1,.773-.464c1.472,2.453,5.612,9.648,5.653,9.721a.45.45,0,0,1-.39.675Z" transform="translate(-1446.665 -3073.806)" fill="#4ebdcc"/>
          </g>
        </g>
        <g id="Group_1139" data-name="Group 1139" transform="translate(72.101 127.074)">
          <path id="Path_1644" data-name="Path 1644" d="M1070.516,3392.146a.45.45,0,0,1-.016-.9l5.179-.185c.919-5.854,12.371-78.809,15.206-96.765a.45.45,0,0,1,.89.141c-2.94,18.616-15.141,96.348-15.264,97.131a.449.449,0,0,1-.429.38l-5.55.2Z" transform="translate(-1070.065 -3293.916)" fill="#303145"/>
        </g>
        <g id="Group_1140" data-name="Group 1140" transform="translate(150.995 146.5)">
          <path id="Path_1645" data-name="Path 1645" d="M1284.182,3460.22h-.027a.45.45,0,0,1-.423-.476l1.784-30.329a.457.457,0,0,1,.051-.184c.449-.854,1.4-2.55,2.713-4.9,4.516-8.064,12.922-23.075,18.288-34.728,6.671-14.486,16.393-34.406,21.835-42.872a.451.451,0,0,1,.758.487c-5.418,8.427-15.116,28.3-21.775,42.762-5.381,11.684-13.8,26.715-18.32,34.79-1.268,2.264-2.2,3.921-2.657,4.791l-1.778,30.231A.45.45,0,0,1,1284.182,3460.22Z" transform="translate(-1283.731 -3346.528)" fill="#303145"/>
        </g>
        <g id="Group_1141" data-name="Group 1141" transform="translate(5.1 179.802)">
          <path id="Path_1646" data-name="Path 1646" d="M889.062,3466.164a.51.51,0,0,1-.072-.005.451.451,0,0,1-.374-.516c.77-4.843,5.084-10.626,9.255-16.219,3.455-4.633,6.719-9.009,7.6-12.37a.451.451,0,0,1,.871.229c-.929,3.529-4.244,7.974-7.753,12.679-4.106,5.506-8.352,11.2-9.087,15.822A.451.451,0,0,1,889.062,3466.164Z" transform="translate(-888.611 -3436.718)" fill="#303145"/>
        </g>
        <g id="Group_1142" data-name="Group 1142" transform="translate(161.104 213.699)">
          <path id="Path_1647" data-name="Path 1647" d="M1314.93,3569.66a.451.451,0,0,1-.429-.589c.02-.061,1.955-6.126,1.763-10.746a88.206,88.206,0,0,0-2.068-10.446c-1.764-7.668-3.763-16.36-2.865-19.052a.45.45,0,0,1,.855.284c-.818,2.453,1.237,11.387,2.888,18.566a85.7,85.7,0,0,1,2.09,10.611c.2,4.783-1.723,10.805-1.805,11.06A.45.45,0,0,1,1314.93,3569.66Z" transform="translate(-1311.109 -3528.518)" fill="#303145"/>
        </g>
        <g id="Group_1143" data-name="Group 1143" transform="translate(74.335 302.703)">
          <path id="Path_1648" data-name="Path 1648" d="M1086.424,3809.713a.45.45,0,0,1-.447-.4c-.442-3.752-2.249-8.427-4.161-13.375-3.213-8.311-6.854-17.73-5.349-26.008a.45.45,0,0,1,.886.161c-1.46,8.029,2.133,17.323,5.3,25.522,1.934,5,3.761,9.728,4.216,13.594a.451.451,0,0,1-.395.5A.394.394,0,0,1,1086.424,3809.713Z" transform="translate(-1076.116 -3769.563)" fill="#303145"/>
        </g>
        <g id="Group_1144" data-name="Group 1144" transform="translate(125.82 236.099)">
          <path id="Path_1649" data-name="Path 1649" d="M1216,3625.765a.445.445,0,0,1-.274-.093.45.45,0,0,1-.084-.631c3.578-4.679,5.774-11.009,7.9-17.13,2.515-7.25,4.89-14.1,9.389-18.6a.45.45,0,1,1,.637.637c-4.352,4.352-6.694,11.1-9.174,18.254-2.147,6.189-4.367,12.588-8.032,17.381A.45.45,0,0,1,1216,3625.765Z" transform="translate(-1215.551 -3589.183)" fill="#303145"/>
        </g>
      </g>
      <g id="Group_1146" data-name="Group 1146" transform="translate(37.254 432.714)">
        <path id="Path_1650" data-name="Path 1650" d="M1331.608,4146.729a.9.9,0,0,1-.9-.9v-21.7a21.192,21.192,0,0,0-21.18-21.4H714.12a21.191,21.191,0,0,0-21.179,21.4v21.709a.9.9,0,0,1-1.8,0v-21.7a22.993,22.993,0,0,1,22.981-23.206h595.407a22.993,22.993,0,0,1,22.981,23.211v21.7A.9.9,0,0,1,1331.608,4146.729Z" transform="translate(-691.139 -4100.92)" fill="#4881f1"/>
      </g>
      <g id="Group_1147" data-name="Group 1147" transform="translate(0 399.412)">
        <path id="Path_1651" data-name="Path 1651" d="M1305.224,4089.84a.9.9,0,0,1-.9-.9v-27.052a49.412,49.412,0,0,0-49.356-49.356H641.4a49.412,49.412,0,0,0-49.356,49.356v27.052a.9.9,0,0,1-1.8,0v-27.052a51.216,51.216,0,0,1,51.158-51.158h613.563a51.217,51.217,0,0,1,51.158,51.158v27.052A.9.9,0,0,1,1305.224,4089.84Z" transform="translate(-590.246 -4010.729)" fill="#4881f1"/>
      </g>
      <g id="Group_1156" data-name="Group 1156" transform="translate(99.096 226.17)">
        <g id="Group_1148" data-name="Group 1148">
          <path id="Path_1652" data-name="Path 1652" d="M869.353,3541.549a106.647,106.647,0,0,0,32.906,6.343c17.841.4,34.888,0,34.888,0s-13.083,76.516-13.876,91.185-3.568,47.575-3.568,47.575,21.607,2.378,22,13.479-4.559,20.615-6.343,23.787-3.072,6.938-6.74,8.722c-1.3.631-3.171-.4-3.171-.4s-1.982,3.171-4.559,3.766a14.1,14.1,0,0,1-5.352,0s-3.37,4.163-8.325,2.974-5.154-7.136-5.154-7.136-2.577,8.326-8.524,7.731-4.163-5.154-2.974-8.326,1.982-9.911.595-11.5-5.154-2.973-13.48-3.171-17.246-.991-18.237-18.832a772.771,772.771,0,0,1,.595-82.264C862.019,3585.357,869.353,3541.549,869.353,3541.549Z" transform="translate(-858.623 -3541.549)" fill="#f7e5dd"/>
        </g>
        <g id="Group_1149" data-name="Group 1149" transform="translate(32.085 158.132)">
          <path id="Path_1653" data-name="Path 1653" d="M956.87,4002.426a.452.452,0,0,1-.411-.636c1.949-4.331,7.982-18.956,3.8-25.338-3.591-5.481-14.194-5.741-14.3-5.744a.45.45,0,0,1,.008-.9h.009a30.772,30.772,0,0,1,6.019.83c4.357,1.047,7.391,2.837,9.018,5.32,4.312,6.582-1.174,20.516-3.732,26.2A.451.451,0,0,1,956.87,4002.426Z" transform="translate(-945.517 -3969.808)" fill="#f3a8a3"/>
        </g>
        <g id="Group_1150" data-name="Group 1150" transform="translate(50.322 153.771)">
          <path id="Path_1654" data-name="Path 1654" d="M1001.5,3999.138a.45.45,0,0,1-.35-.733c3.374-4.167,6.139-15.54,7.241-21.6,1.14-6.269.472-9.763-2.463-12.893-1.833-1.955-5.012-2.97-7.567-3.786a12.851,12.851,0,0,1-3.277-1.316.45.45,0,0,1,.541-.721,13.024,13.024,0,0,0,3.01,1.178c2.514.8,5.958,1.9,7.95,4.028,3.12,3.328,3.875,7.161,2.692,13.669-.308,1.694-3.133,16.7-7.428,22.008A.449.449,0,0,1,1001.5,3999.138Z" transform="translate(-994.907 -3957.997)" fill="#f3a8a3"/>
        </g>
        <g id="Group_1151" data-name="Group 1151" transform="translate(58.846 148.418)">
          <path id="Path_1655" data-name="Path 1655" d="M1025.974,3986.229a.45.45,0,0,1-.393-.67c3.8-6.791,9.068-23.22,9.26-30.715.15-5.87-9.458-8.462-14.076-9.708a17.944,17.944,0,0,1-2.525-.78.45.45,0,1,1,.4-.806,18.9,18.9,0,0,0,2.357.715c4.84,1.306,14.91,4.024,14.742,10.6-.2,7.751-5.449,24.109-9.374,31.132A.45.45,0,0,1,1025.974,3986.229Z" transform="translate(-1017.991 -3943.502)" fill="#f3a8a3"/>
        </g>
        <g id="Group_1152" data-name="Group 1152" transform="translate(34.265 184.487)">
          <path id="Path_1656" data-name="Path 1656" d="M951.873,4054.632h-.026a.451.451,0,0,1-.424-.475,23.339,23.339,0,0,1,1.817-6.834c1.619-3.973,5.535-6.581,9.1-6.075a.451.451,0,0,1-.127.893c-3.487-.5-6.877,2.416-8.142,5.522a22.973,22.973,0,0,0-1.752,6.545A.45.45,0,0,1,951.873,4054.632Z" transform="translate(-951.422 -4041.184)" fill="#f3a8a3"/>
        </g>
        <g id="Group_1153" data-name="Group 1153" transform="translate(49.666 184.009)">
          <path id="Path_1657" data-name="Path 1657" d="M993.792,4053.667a.451.451,0,0,1-.361-.18c-.648-.864-.281-4.015,1.441-7.6,1.8-3.76,6.366-6.57,9.568-5.9a.45.45,0,1,1-.186.881c-2.509-.525-6.8,1.717-8.57,5.4s-1.813,6.3-1.532,6.67a.451.451,0,0,1-.36.721Z" transform="translate(-993.131 -4039.889)" fill="#f3a8a3"/>
        </g>
        <g id="Group_1154" data-name="Group 1154" transform="translate(59.556 181.528)">
          <path id="Path_1658" data-name="Path 1658" d="M1020.646,4046.6a.447.447,0,0,1-.261-.084c-.313-.224-1.184-1.309.738-5.893,1.975-4.71,6.768-7.907,9.418-7.4a.45.45,0,1,1-.166.885c-2.071-.388-6.517,2.325-8.422,6.868-1.6,3.825-1.059,4.767-1.008,4.842a.451.451,0,0,1-.3.787Zm.3-.781Zm-.041-.035h0Zm0,0h0Z" transform="translate(-1019.914 -4033.171)" fill="#f3a8a3"/>
        </g>
        <g id="Group_1155" data-name="Group 1155" transform="translate(69.352 179.732)">
          <path id="Path_1659" data-name="Path 1659" d="M1046.895,4032.981a.451.451,0,0,1-.382-.689c1.6-2.561,6.591-4.753,8.477-3.725a.451.451,0,0,1-.432.791c-1.356-.741-5.863,1.142-7.281,3.411A.45.45,0,0,1,1046.895,4032.981Z" transform="translate(-1046.445 -4028.308)" fill="#f3a8a3"/>
        </g>
      </g>
      <g id="Group_1157" data-name="Group 1157" transform="translate(160.385 46.109)">
        <path id="Path_1660" data-name="Path 1660" d="M1093.586,3093.417a30.982,30.982,0,0,1-18.94-6.133,28.693,28.693,0,0,1-7.646-8.608,36.994,36.994,0,0,1-15.255.4c-11.047-2.048-21.76-13.8-27.037-23.858a.9.9,0,0,1,1.6-.837c5.082,9.682,15.314,20.985,25.77,22.923a35.314,35.314,0,0,0,14.068-.283,22.048,22.048,0,0,1-2.128-8.232c-.228-4.276,1.008-8.02,3.393-10.271a9.348,9.348,0,0,1,11.265-1.088c3.212,2.1,4.211,5.92,2.672,10.223-1.864,5.211-6.688,8.7-12.551,10.522a27.049,27.049,0,0,0,6.943,7.673c11.539,8.772,26.849,6.146,34.036,1.479a.9.9,0,1,1,.981,1.511C1106.777,3091.422,1100.458,3093.417,1093.586,3093.417Zm-19.779-35.6a7.547,7.547,0,0,0-5.162,2.01c-2,1.887-3.03,5.118-2.831,8.864a20.335,20.335,0,0,0,2.1,7.862q.467-.138.924-.291c3.891-1.3,8.925-3.958,10.807-9.218,1.258-3.517.544-6.472-1.96-8.107A7.091,7.091,0,0,0,1073.807,3057.82Z" transform="translate(-1024.606 -3053.899)" fill="#48c4da"/>
      </g>
      <g id="Group_1158" data-name="Group 1158" transform="translate(419.772)">
        <path id="Path_1661" data-name="Path 1661" d="M1729.9,2997.487a.9.9,0,0,1-.777-.444,13.633,13.633,0,0,1-1.067-12.181,11.247,11.247,0,0,1,7.5-6.749c11.865-3.117,12.953-9.868,11.778-14.983-1.291-5.614-.826-10.183,1.383-13.58,1.9-2.919,4.987-4.813,9.183-5.63,3.743-.728,6.426-2.389,7.759-4.8,1.322-2.4,1.323-5.46,0-8.861a.9.9,0,1,1,1.679-.652c1.52,3.915,1.484,7.505-.1,10.384-1.6,2.9-4.708,4.87-8.992,5.7-3.7.72-6.4,2.349-8.017,4.843-1.932,2.972-2.314,7.075-1.137,12.194,1.109,4.823.885,13.463-13.076,17.13a9.457,9.457,0,0,0-6.292,5.693,11.849,11.849,0,0,0,.954,10.58.9.9,0,0,1-.776,1.358Z" transform="translate(-1727.091 -2929.026)" fill="#f6eb86"/>
      </g>
      <g id="Group_1159" data-name="Group 1159" transform="translate(573.994 40.249)">
        <path id="Path_1662" data-name="Path 1662" d="M2147.575,3106.49a.9.9,0,0,1-.777-.444,13.634,13.634,0,0,1-1.067-12.181,11.248,11.248,0,0,1,7.5-6.75c11.865-3.117,12.954-9.868,11.778-14.983-1.291-5.614-.826-10.183,1.383-13.58,1.9-2.919,4.987-4.813,9.183-5.63,3.743-.728,6.426-2.389,7.759-4.8,1.322-2.4,1.323-5.46,0-8.86a.9.9,0,0,1,1.68-.652c1.52,3.914,1.484,7.5-.1,10.383-1.6,2.9-4.708,4.87-8.992,5.7-3.7.719-6.4,2.349-8.017,4.843-1.932,2.972-2.314,7.075-1.137,12.194,1.108,4.823.885,13.463-13.076,17.131a9.459,9.459,0,0,0-6.292,5.692,11.85,11.85,0,0,0,.954,10.58.9.9,0,0,1-.775,1.358Z" transform="translate(-2144.76 -3038.029)" fill="#6879e8"/>
      </g>
      <g id="Group_1160" data-name="Group 1160" transform="translate(112.342 76.749)">
        <path id="Path_1663" data-name="Path 1663" d="M895.675,3189.592a.9.9,0,0,1-.882-.725,13.632,13.632,0,0,1,3-11.854,11.25,11.25,0,0,1,9.3-3.907c12.232.963,15.479-5.058,16.051-10.275.628-5.726,2.57-9.887,5.773-12.37,2.752-2.132,6.293-2.9,10.525-2.3,3.775.543,6.855-.142,8.907-1.985,2.036-1.828,3.045-4.721,2.917-8.367a.9.9,0,0,1,1.8-.063c.147,4.2-1.068,7.576-3.515,9.771-2.462,2.211-6.048,3.05-10.368,2.427-3.729-.536-6.812.114-9.164,1.936-2.8,2.171-4.513,5.92-5.086,11.142-.5,4.6-3.214,11.981-15.355,11.982-.832,0-1.705-.034-2.628-.107a9.455,9.455,0,0,0-7.814,3.307,11.848,11.848,0,0,0-2.58,10.3.9.9,0,0,1-.707,1.06A.915.915,0,0,1,895.675,3189.592Z" transform="translate(-894.497 -3136.882)" fill="#f6eb86"/>
      </g>
      <g id="Group_1161" data-name="Group 1161" transform="translate(383.606 13.04)">
        <path id="Path_1664" data-name="Path 1664" d="M1630.046,2997.364c-.026,0-.052,0-.078,0a.9.9,0,0,1-.821-.974l2.676-31.221a.9.9,0,0,1,1.8.154l-2.676,31.221A.9.9,0,0,1,1630.046,2997.364Z" transform="translate(-1629.144 -2964.341)" fill="#6879e8"/>
      </g>
      <g id="Group_1162" data-name="Group 1162" transform="translate(668.081 140.859)">
        <path id="Path_1665" data-name="Path 1665" d="M2400.472,3331.932a.9.9,0,0,1-.681-1.49l16.948-19.625A.9.9,0,0,1,2418.1,3312l-16.949,19.625A.9.9,0,0,1,2400.472,3331.932Z" transform="translate(-2399.572 -3310.506)" fill="#a7c3f8"/>
      </g>
      <g id="Group_1163" data-name="Group 1163" transform="translate(426.387 106.828)">
        <path id="Path_1666" data-name="Path 1666" d="M1745.906,3244.228a.9.9,0,0,1-.834-1.241l9.812-24.084a.9.9,0,1,1,1.669.68l-9.812,24.085A.9.9,0,0,1,1745.906,3244.228Z" transform="translate(-1745.006 -3218.342)" fill="#b7bff4"/>
      </g>
    </g>
    <g id="Group_1200" data-name="Group 1200" transform="matrix(1, -0.017, 0.017, 1, 789.349, 5120.862)">
      <path id="Path_1568" data-name="Path 1568" d="M5.377,14.218c-1.006-.024-2.056-.024-3.149.008-.766.024-1.509.06-2.227.112.076-.287.156-.571.231-.858a3.712,3.712,0,0,0,1.162-.343,3.037,3.037,0,0,0,1.237-.962,3.294,3.294,0,0,0,.483-1.205c.259-.946.387-1.417.415-1.545.259-1.273.595-2.531.89-3.8.2-.878.519-2.152.978-3.716a.612.612,0,0,0-.842-.7.864.864,0,0,1,.2-.695c.184-.164.391-.132,1.01-.132A10.536,10.536,0,0,0,6.934.251,7.363,7.363,0,0,0,7.979,0q-.8,3.185-1.6,6.367Q5.493,9.905,4.61,13.444l.715.048C5.337,13.735,5.357,13.979,5.377,14.218Z" transform="translate(7.797 2.244)" fill="#9bbaf7"/>
      <path id="Path_1569" data-name="Path 1569" d="M5.6,8.65h.687c.016.435.084.9.3.966.236.068.463-.375,1.018-.866a5.688,5.688,0,0,1,1.78-.99c1.2-.495,1.409-.263,2.02-.571a3.964,3.964,0,0,0,1.665-4.666A3.277,3.277,0,0,0,11.879,1.15C9.624-.494,6.259-.171,3.908.847A10.028,10.028,0,0,0,0,3.924c.168.18.331.359.5.539A8.676,8.676,0,0,1,3.389,2.08,8.488,8.488,0,0,1,6.415,1.2a4.685,4.685,0,0,1,3.141.447A2.83,2.83,0,0,1,10.6,2.739a3.2,3.2,0,0,1,.012,2.567,3.832,3.832,0,0,1-.623,1.042,4.763,4.763,0,0,1-1.018.914,4.567,4.567,0,0,1-3.193.431C5.72,8.012,5.66,8.331,5.6,8.65Z" transform="translate(8.575 0)" fill="#9bbaf7"/>
      <path id="Path_1570" data-name="Path 1570" d="M0,0" transform="translate(5.766 2.958)" fill="#9bbaf7"/>
      <path id="Path_1571" data-name="Path 1571" d="M1.429,0A33.639,33.639,0,0,0,2.622,3.413c1.17,2.826,1.868,4.459,3.433,5.121A5.7,5.7,0,0,0,8,8.941a8.4,8.4,0,0,0,2.008-.263c.615-.12,1.441-.3,2.431-.531.048.235.1.467.144.7-.535.152-1.289.359-2.2.587a10.6,10.6,0,0,1-2.974.519A6.23,6.23,0,0,1,5.065,9.36,7.964,7.964,0,0,1,1.972,6.339,12.366,12.366,0,0,1,.611,3.792,12.633,12.633,0,0,1,0,1.72,4.319,4.319,0,0,1,.591.786,4.3,4.3,0,0,1,1.429,0Z" transform="translate(15.976 10.483)" fill="#9bbaf7"/>
      <path id="Path_1572" data-name="Path 1572" d="M.947,10.135a.885.885,0,0,0,.607.092.85.85,0,0,0,.555-.519c.172-.471-.212-.986-.379-1.273-.854-1.457-.008-3.565.084-3.788A5.582,5.582,0,0,1,5.083,1.68a8.39,8.39,0,0,1,2.243-.4c.818-.064.882.02,2.2.024.87,0,1.621-.032,3.193-.024.683,0,1.708.02,1.868.451a1.663,1.663,0,0,1,.048.415,3.339,3.339,0,0,1-.036.695,3.512,3.512,0,0,1-.192.742c.3.016.587.028.882.044.243-1.209.487-2.423.734-3.632a42.275,42.275,0,0,1-6.5.3A10.627,10.627,0,0,0,5.1.691,7.919,7.919,0,0,0,2.237,2.463,7.6,7.6,0,0,0,.6,4.838,6.321,6.321,0,0,0,0,7.58C.009,7.848.065,9.7.947,10.135Z" transform="translate(13.62 7.357)" fill="#9bbaf7"/>
      <path id="Path_1573" data-name="Path 1573" d="M1.529.02Q.762,2.942,0,5.868c.483.926.962,1.852,1.445,2.778.144-.647.283-1.289.427-1.936,1.142.02,2.279.044,3.421.064a.5.5,0,0,1,.319.176.48.48,0,0,1,.1.339c-.036.307-.068.619-.1.926.264,0,.527,0,.786-.008.231-1.166.463-2.327.691-3.493-.252-.012-.5-.02-.754-.032a1.264,1.264,0,0,1-.407.882,1.125,1.125,0,0,1-.723.2c-.727,0-1.788.008-3.105-.008L3.621,0C2.922.008,2.227.012,1.529.02Z" transform="translate(19.445 8.615)" fill="#9bbaf7"/>
      <path id="Path_1574" data-name="Path 1574" d="M3.313,0c.567.519,1.134,1.034,1.7,1.553Q4.57,2.876,4.123,4.2c.982.032,1.964.068,2.95.1l-.156.766c-.247.012-.679.032-1.213.032-1.9.012-2.678-.184-4.219-.088-.327.02-.846.064-1.485.168.032-.251.068-.5.1-.754a2.659,2.659,0,0,0,.774-.164A3.022,3.022,0,0,0,2.359,2.866a6.884,6.884,0,0,0,.507-1.317C3.07.918,3.217.379,3.313,0Z" transform="translate(15.098 18.434)" fill="#9bbaf7"/>
      <g id="Group_1052" data-name="Group 1052" transform="translate(0 3.002)">
        <g id="Group_921" data-name="Group 921">
          <path id="Path_1447" data-name="Path 1447" d="M8.8.647c-.327.4-.655.794-.982,1.189a3.909,3.909,0,0,0-2.754-.415.564.564,0,0,0-.371.255A7.717,7.717,0,0,0,.76,3.992C-.537,5.556.025,6.3.968,7.528v0a.562.562,0,0,0,.184.571.574.574,0,1,0,.734-.882.558.558,0,0,0-.339-.12l-.008-.012C.628,5.9.381,5.572,1.315,4.451A7.045,7.045,0,0,1,4.827,2.387a.534.534,0,0,0,.407.1,2.738,2.738,0,0,1,2.171.387,2.741,2.741,0,0,1,.786,2.06.557.557,0,0,0,.176.383,7.073,7.073,0,0,1-1.381,3.84c-.934,1.126-1.289.946-2.638.263H4.34a.567.567,0,1,0-.315.647h0c1.381.695,2.219,1.118,3.521-.451a7.688,7.688,0,0,0,1.549-4.3.544.544,0,0,0,.184-.411,3.9,3.9,0,0,0-.914-2.619L10.28,0C9.789.224,9.294.435,8.8.647Z" fill="#9bbaf7"/>
        </g>
      </g>
      <g id="Group_1053" data-name="Group 1053" transform="translate(23.744 16.39)">
        <g id="Group_923" data-name="Group 923" transform="translate(0 0)">
          <path id="Path_1448" data-name="Path 1448" d="M7.261,4.28A2.162,2.162,0,1,0,4.67,2.236L.619,3.182,0,4.04l4.814-1.1A2.165,2.165,0,0,0,7.261,4.28ZM5.413,2.455a1.441,1.441,0,1,1,1.7,1.114A1.446,1.446,0,0,1,5.413,2.455Z" fill="#9bbaf7"/>
        </g>
      </g>
    </g>
  </g>
</svg>
