<svg xmlns="http://www.w3.org/2000/svg" width="164.605" height="141.789" viewBox="0 0 164.605 141.789">
  <g id="logo-v2" transform="translate(-19.462 -17.187)">
    <path id="Caminho_1440" data-name="Caminho 1440" d="M241.844,144.916c-5.059-.12-10.34-.12-15.841.04-3.855.12-7.589.3-11.2.562.381-1.446.783-2.871,1.164-4.317a18.672,18.672,0,0,0,5.843-1.727,15.274,15.274,0,0,0,6.224-4.839c.5-.7,1.2-1.646,2.429-6.063,1.305-4.758,1.948-7.127,2.088-7.77,1.305-6.4,2.992-12.729,4.477-19.094,1.024-4.417,2.61-10.822,4.919-18.692a3.078,3.078,0,0,0-4.236-3.534,4.347,4.347,0,0,1,1-3.493c.924-.823,1.968-.663,5.08-.663a52.988,52.988,0,0,0,5.883-.663,37.028,37.028,0,0,0,5.26-1.265q-4.036,16.022-8.051,32.023-4.457,17.8-8.894,35.6l3.594.241C241.643,142.486,241.744,143.711,241.844,144.916Z" transform="translate(-156.119 -44.927)" fill="#fff"/>
    <path id="Caminho_1441" data-name="Caminho 1441" d="M262.469,60.7h3.453c.08,2.188.422,4.537,1.526,4.859,1.185.341,2.329-1.887,5.12-4.357,2.771-2.429,5.381-3.514,8.954-4.979,6.043-2.49,7.087-1.325,10.159-2.871,7.248-3.634,11.866-15.259,8.372-23.47a16.486,16.486,0,0,0-6-6.907c-11.344-8.272-28.269-6.646-40.094-1.526A50.44,50.44,0,0,0,234.3,36.926c.843.9,1.666,1.807,2.51,2.71A43.638,43.638,0,0,1,251.346,27.65a42.692,42.692,0,0,1,15.219-4.417c5.22-.482,10.681-1,15.8,2.249a14.232,14.232,0,0,1,5.24,5.481c2.891,5.622.582,11.565.06,12.91a19.274,19.274,0,0,1-3.132,5.24,23.961,23.961,0,0,1-5.12,4.6c-6.445,4.1-14.656,2.47-16.062,2.168C263.071,57.485,262.77,59.091,262.469,60.7Z" transform="translate(-171.704)" fill="#fff"/>
    <path id="Caminho_1442" data-name="Caminho 1442" d="M163.9,91.3" transform="translate(-115.439 -59.233)" fill="#fff"/>
    <path id="Caminho_1443" data-name="Caminho 1443" d="M426.888,279.8a169.185,169.185,0,0,0,6,17.166c5.883,14.215,9.4,22.426,17.267,25.759a28.667,28.667,0,0,0,9.778,2.048c1.968.06,3.835-.08,10.1-1.325,3.092-.6,7.248-1.486,12.227-2.67.241,1.185.482,2.349.723,3.534-2.69.763-6.485,1.807-11.063,2.951-10.42,2.59-12.99,2.69-14.958,2.61a31.34,31.34,0,0,1-11.785-2.992c-7.469-3.574-11.384-9.236-15.56-15.2a62.205,62.205,0,0,1-6.846-12.809,63.56,63.56,0,0,1-3.072-10.42,22.439,22.439,0,0,1,7.188-8.653Z" transform="translate(-319.881 -209.887)" fill="#fff"/>
    <path id="Caminho_1444" data-name="Caminho 1444" d="M365.431,252.476a4.451,4.451,0,0,0,3.052.462,4.275,4.275,0,0,0,2.791-2.61c.863-2.369-1.064-4.959-1.907-6.4-4.3-7.328-.04-17.929.422-19.053,4.1-10.179,14.215-14.134,16.443-14.917a42.2,42.2,0,0,1,11.283-1.988c4.116-.321,4.437.1,11.043.12,4.377,0,8.151-.161,16.062-.12,3.433.02,8.593.1,9.4,2.269a8.376,8.376,0,0,1,.241,2.088,16.8,16.8,0,0,1-.181,3.493,17.674,17.674,0,0,1-.964,3.734c1.486.08,2.951.141,4.437.221,1.225-6.083,2.449-12.187,3.694-18.27a212.61,212.61,0,0,1-32.686,1.506c-7.91-.261-14.155-.944-22.246,1.968a39.836,39.836,0,0,0-14.4,8.914,38.233,38.233,0,0,0-8.232,11.946,31.8,31.8,0,0,0-3.012,13.793C360.713,240.972,360.994,250.268,365.431,252.476Z" transform="translate(-272.699 -147.308)" fill="#fff"/>
    <path id="Caminho_1445" data-name="Caminho 1445" d="M514.29,233.1q-3.855,14.7-7.69,29.413c2.429,4.658,4.839,9.316,7.268,13.974.723-3.253,1.426-6.485,2.148-9.738,5.742.1,11.464.221,17.206.321a2.517,2.517,0,0,1,1.606.883,2.419,2.419,0,0,1,.522,1.707c-.181,1.546-.341,3.112-.522,4.658,1.325-.02,2.65-.02,3.955-.04,1.164-5.863,2.329-11.705,3.473-17.568-1.265-.06-2.53-.1-3.795-.161a6.356,6.356,0,0,1-2.048,4.437,5.66,5.66,0,0,1-3.634,1.024c-3.654,0-8.995.04-15.62-.04L524.81,233C521.3,233.04,517.8,233.06,514.29,233.1Z" transform="translate(-389.334 -172.483)" fill="#fff"/>
    <path id="Caminho_1446" data-name="Caminho 1446" d="M414.364,479c2.851,2.61,5.7,5.2,8.553,7.81q-2.229,6.656-4.477,13.291c4.939.161,9.878.341,14.837.5l-.783,3.855c-1.245.06-3.413.161-6.1.161-9.577.06-13.472-.924-21.222-.442-1.646.1-4.256.321-7.469.843.161-1.265.341-2.53.5-3.795a13.39,13.39,0,0,0,3.9-.823c4.3-1.666,6.485-5.28,7.469-6.987a34.611,34.611,0,0,0,2.55-6.626C413.139,483.618,413.882,480.907,414.364,479Z" transform="translate(-302.298 -369.093)" fill="#fff"/>
    <g id="Grupo_922" data-name="Grupo 922" transform="translate(19.462 32.288)">
      <g id="Grupo_921" data-name="Grupo 921">
        <path id="Caminho_1447" data-name="Caminho 1447" d="M63.7,95.653c-1.646,1.988-3.293,4-4.939,5.983-3.594-2.269-8.352-2.992-13.853-2.088a2.837,2.837,0,0,0-1.867,1.285c-7.73,1.807-15.52,6.545-19.756,11.645-6.525,7.87-3.694,11.625,1.044,17.789v.02a2.826,2.826,0,0,0,.924,2.871,2.887,2.887,0,1,0,3.694-4.437,2.805,2.805,0,0,0-1.707-.6l-.04-.06c-4.578-6-5.822-7.629-1.124-13.271,3.714-4.477,10.822-8.734,17.668-10.38a2.687,2.687,0,0,0,2.048.5c3.253-.542,7.81-.642,10.922,1.948,3.132,2.59,3.875,7.067,3.955,10.36a2.8,2.8,0,0,0,.883,1.927c-.361,7.047-3.232,14.837-6.947,19.314-4.7,5.662-6.485,4.758-13.271,1.325h-.04a2.851,2.851,0,1,0-1.586,3.253h0c6.947,3.493,11.163,5.622,17.708-2.269,4.236-5.1,7.469-13.673,7.79-21.623a2.735,2.735,0,0,0,.924-2.068c-.141-5.561-1.707-10.039-4.6-13.171l9.637-11.5C68.7,93.524,66.21,94.588,63.7,95.653Z" transform="translate(-19.462 -92.4)" fill="#fff"/>
      </g>
    </g>
    <g id="Grupo_924" data-name="Grupo 924" transform="translate(138.89 99.625)">
      <g id="Grupo_923" data-name="Grupo 923" transform="translate(0)">
        <path id="Caminho_1448" data-name="Caminho 1448" d="M650.821,449.314a10.876,10.876,0,1,0-13.03-10.28q-10.179,2.379-20.379,4.758c-1.044,1.446-2.068,2.871-3.112,4.317l24.213-5.541A10.891,10.891,0,0,0,650.821,449.314Zm-9.3-9.175a7.247,7.247,0,1,1,8.553,5.6A7.271,7.271,0,0,1,641.525,440.139Z" transform="translate(-614.3 -427.789)" fill="#fff"/>
      </g>
    </g>
    <g id="Grupo_925" data-name="Grupo 925" transform="translate(26.798 144.601)">
      <path id="Caminho_1449" data-name="Caminho 1449" d="M65.015,662.076l2.57,4.578H65.456l-2.449-4.3H58.871l-.843,4.3H56L58.811,652.6h5.24c3.293,0,5.18,1.506,5.18,4.116A5.213,5.213,0,0,1,65.015,662.076Zm2.209-5.18c0-1.687-1.2-2.55-3.353-2.55H60.477l-1.265,6.3h3.473C65.557,660.651,67.223,659.366,67.223,656.9Z" transform="translate(-56 -652.439)" fill="#fff"/>
      <path id="Caminho_1450" data-name="Caminho 1450" d="M133.157,654.347l-.863,4.317h7.067l-.341,1.707h-7.067l-.9,4.537h8.212l-.341,1.747H128.7l2.811-14.054h9.918l-.341,1.747Z" transform="translate(-114.104 -652.439)" fill="#fff"/>
      <path id="Caminho_1451" data-name="Caminho 1451" d="M191.1,664.469l.883-1.606a6.942,6.942,0,0,0,4.558,1.606c2.269,0,3.795-.863,3.795-2.389,0-2.931-7.208-1.426-7.208-5.923,0-2.69,2.409-4.357,5.843-4.357a8.347,8.347,0,0,1,4.517,1.185l-.8,1.646a6.575,6.575,0,0,0-3.815-1.124c-2.309,0-3.775.984-3.775,2.47,0,2.951,7.208,1.546,7.208,5.822,0,2.731-2.449,4.377-5.943,4.377A8.221,8.221,0,0,1,191.1,664.469Z" transform="translate(-163.975 -651.8)" fill="#fff"/>
      <path id="Caminho_1452" data-name="Caminho 1452" d="M270.991,656.716c0,3.594-2.53,5.682-6.585,5.682h-3.754l-.843,4.256H257.8l2.811-14.054h5.22C269.1,652.6,270.991,654.106,270.991,656.716Zm-2.008.181c0-1.687-1.2-2.55-3.333-2.55h-3.373l-1.265,6.3h3.433C267.317,660.651,268.983,659.366,268.983,656.9Z" transform="translate(-217.284 -652.439)" fill="#fff"/>
      <path id="Caminho_1453" data-name="Caminho 1453" d="M331.811,652.6h2.008l-2.811,14.054H329Z" transform="translate(-274.189 -652.439)" fill="#fff"/>
      <path id="Caminho_1454" data-name="Caminho 1454" d="M369.015,662.076l2.57,4.578h-2.128l-2.449-4.3h-4.136l-.843,4.3H360l2.811-14.054h5.24c3.293,0,5.18,1.506,5.18,4.116A5.213,5.213,0,0,1,369.015,662.076Zm2.208-5.18c0-1.687-1.2-2.55-3.353-2.55h-3.393l-1.265,6.3h3.473C369.557,660.651,371.223,659.366,371.223,656.9Z" transform="translate(-298.965 -652.439)" fill="#fff"/>
      <path id="Caminho_1455" data-name="Caminho 1455" d="M434.006,663.141H426.5l-2.229,3.513H422.1l9.2-14.054h1.988l3.554,14.054h-1.988Zm-.4-1.606-1.666-6.927-4.417,6.927Z" transform="translate(-348.597 -652.439)" fill="#fff"/>
      <path id="Caminho_1456" data-name="Caminho 1456" d="M537.257,654.347l-.984,4.9h7.067L543,660.972h-7.067l-1.124,5.682H532.8l2.811-14.054h9.918l-.341,1.747Z" transform="translate(-437.071 -652.439)" fill="#fff"/>
      <path id="Caminho_1457" data-name="Caminho 1457" d="M599.111,652.6h2.008l-2.811,14.054H596.3Z" transform="translate(-487.822 -652.439)" fill="#fff"/>
      <path id="Caminho_1458" data-name="Caminho 1458" d="M622.7,664.469l.883-1.606a6.942,6.942,0,0,0,4.558,1.606c2.269,0,3.795-.863,3.795-2.389,0-2.931-7.208-1.426-7.208-5.923,0-2.69,2.409-4.357,5.842-4.357a8.347,8.347,0,0,1,4.517,1.185l-.8,1.646a6.575,6.575,0,0,0-3.815-1.124c-2.309,0-3.775.984-3.775,2.47,0,2.951,7.208,1.546,7.208,5.822,0,2.731-2.449,4.377-5.943,4.377A8.221,8.221,0,0,1,622.7,664.469Z" transform="translate(-508.922 -651.8)" fill="#fff"/>
      <path id="Caminho_1459" data-name="Caminho 1459" d="M692.211,652.6h2.008l-2.811,14.054H689.4Z" transform="translate(-562.23 -652.439)" fill="#fff"/>
      <path id="Caminho_1460" data-name="Caminho 1460" d="M721.2,660.253a8.2,8.2,0,0,1,8.533-8.453c4.2,0,6.626,2.409,6.626,5.923a8.221,8.221,0,0,1-8.553,8.453C723.609,666.175,721.2,663.766,721.2,660.253Zm13.131-2.409c0-2.53-1.646-4.256-4.758-4.256a6.271,6.271,0,0,0-6.365,6.545c0,2.53,1.666,4.256,4.778,4.256A6.254,6.254,0,0,0,734.331,657.843Z" transform="translate(-587.645 -651.8)" fill="#fff"/>
    </g>
  </g>
</svg>
