<svg xmlns="http://www.w3.org/2000/svg" width="43.864" height="36.524" viewBox="0 0 43.864 36.524">
  <g id="Group_1170" data-name="Group 1170" transform="translate(-1075.383 655.929) rotate(-82)">
    <g id="Group_1168" data-name="Group 1168" transform="translate(766.382 1002.479) rotate(-30)">
      <path id="Path_1541" data-name="Path 1541" d="M754.351,565.32a1.063,1.063,0,0,1-.92-.529l-11.205-19.3a1.063,1.063,0,0,1,1.839-1.068l11.205,19.3a1.063,1.063,0,0,1-.919,1.6Z" transform="translate(-742.082 -543.896)" fill="#48c4da"/>
    </g>
    <g id="Group_1169" data-name="Group 1169" transform="translate(783.338 978.313) rotate(-30)">
      <path id="Path_1542" data-name="Path 1542" d="M808.935,542.971a1.063,1.063,0,0,1-1.047-.884l-4.357-25.523a1.063,1.063,0,0,1,2.1-.358l4.357,25.522a1.064,1.064,0,0,1-.87,1.227A1.039,1.039,0,0,1,808.935,542.971Z" transform="translate(-803.516 -515.322)" fill="#48c4da"/>
    </g>
  </g>
</svg>
