<svg xmlns="http://www.w3.org/2000/svg" width="101.389" height="87.69" viewBox="0 0 101.389 87.69">
  <g id="Group_1172" data-name="Group 1172" transform="translate(101.389 52.276) rotate(124)">
    <g id="Group_1021" data-name="Group 1021" transform="translate(0 0)">
      <g id="Group_1020" data-name="Group 1020">
        <g id="Group_1019" data-name="Group 1019">
          <path id="Path_1545" data-name="Path 1545" d="M4.891,93.485a1.061,1.061,0,0,1-.831-.4A17.406,17.406,0,0,1,.5,77.886a14.341,14.341,0,0,1,8.245-9.879c14.574-6.15,14.724-14.978,12.283-21.3-2.653-6.872-2.9-12.737-.72-17.433,1.867-4.03,5.43-6.983,10.587-8.777,4.65-1.617,7.776-4.236,9.038-7.573,1.253-3.311.694-7.231-1.618-11.337A1.063,1.063,0,0,1,40.17.542c2.63,4.672,3.237,9.213,1.754,13.132-1.492,3.946-5.064,7-10.328,8.83-4.593,1.6-7.741,4.175-9.356,7.662-1.924,4.152-1.663,9.459.775,15.774,2.259,5.85,1.67,11.119-1.749,15.661-3.129,4.157-8.085,6.844-11.692,8.366a12.236,12.236,0,0,0-7.01,8.443,15.3,15.3,0,0,0,3.158,13.35,1.063,1.063,0,0,1-.83,1.727Z" fill="#89ebc9"/>
        </g>
      </g>
    </g>
  </g>
</svg>
