<svg xmlns="http://www.w3.org/2000/svg" width="45.104" height="68.047" viewBox="0 0 45.104 68.047">
  <g id="Group_1221" data-name="Group 1221" transform="translate(-699.365 -2051.408)">
    <g id="Group_1171" data-name="Group 1171" transform="matrix(0.934, -0.358, 0.358, 0.934, -375.371, 1423.836)">
      <g id="Group_1168" data-name="Group 1168" transform="translate(766.382 1002.479) rotate(-30)">
        <path id="Path_1541" data-name="Path 1541" d="M754.351,565.32a1.063,1.063,0,0,1-.92-.529l-11.205-19.3a1.063,1.063,0,0,1,1.839-1.068l11.205,19.3a1.063,1.063,0,0,1-.919,1.6Z" transform="translate(-742.082 -543.896)" fill="#89ebc9"/>
      </g>
      <g id="Group_1169" data-name="Group 1169" transform="translate(783.338 978.313) rotate(-30)">
        <path id="Path_1542" data-name="Path 1542" d="M808.935,542.971a1.063,1.063,0,0,1-1.047-.884l-4.357-25.523a1.063,1.063,0,0,1,2.1-.358l4.357,25.522a1.064,1.064,0,0,1-.87,1.227A1.039,1.039,0,0,1,808.935,542.971Z" transform="translate(-803.516 -515.322)" fill="#89ebc9"/>
      </g>
    </g>
    <g id="Group_1173" data-name="Group 1173" transform="translate(723.045 2098.031)">
      <path id="Path_1543" data-name="Path 1543" d="M638.5,665.329a10.712,10.712,0,1,1,10.712-10.712A10.725,10.725,0,0,1,638.5,665.329Zm0-19.3a8.586,8.586,0,1,0,8.585,8.586A8.6,8.6,0,0,0,638.5,646.031Z" transform="translate(-627.785 -643.905)" fill="#7e8ceb"/>
    </g>
  </g>
</svg>
