<svg xmlns="http://www.w3.org/2000/svg" width="81.319" height="94.27" viewBox="0 0 81.319 94.27">
  <g id="Group_1167" data-name="Group 1167" transform="matrix(0.545, 0.839, -0.839, 0.545, 34.759, 0)">
    <path id="Path_1544" data-name="Path 1544" d="M940.482,456.1a40.146,40.146,0,0,1-8.637-.929,1.063,1.063,0,0,1,.457-2.077c9.787,2.153,20.574.328,30.368-5.138a50.1,50.1,0,0,0,11.664-8.969,22.125,22.125,0,0,1-6.241-4.722,16.179,16.179,0,0,1-4.259-9.024c-.427-4.151,1.2-7.637,4.34-9.326a10.482,10.482,0,0,1,12.024,1.456c3.567,3.262,4.27,8.549,1.881,14.144a28.69,28.69,0,0,1-4.205,6.735q.954.364,2,.674c14.868,4.407,31.548-7.4,34.575-15.221a1.063,1.063,0,1,1,1.983.767c-2.843,7.35-15.917,17.552-29.72,17.553a26.084,26.084,0,0,1-7.442-1.06,28.953,28.953,0,0,1-2.862-1.012C968.559,448.513,955,456.1,940.482,456.1Zm32.66-39.3a8.365,8.365,0,0,0-3.96.984c-2.359,1.267-3.567,3.972-3.232,7.236.4,3.922,3.265,9.112,9.857,12.332a26.843,26.843,0,0,0,4.317-6.676c2.049-4.8,1.552-9.076-1.36-11.74A8.345,8.345,0,0,0,973.142,416.8Z" transform="translate(-931.01 -414.654)" fill="#9384e8"/>
  </g>
</svg>
