<svg xmlns="http://www.w3.org/2000/svg" width="432" height="71.42" viewBox="0 0 432 71.42">
  <g id="Group_182" data-name="Group 182" transform="translate(-676 -7176.745)">
    <path id="estrela" d="M74.332,27.48a3.953,3.953,0,0,0-3.41-2.724L49.412,22.8,40.906,2.895a3.961,3.961,0,0,0-7.285,0L25.115,22.8,3.6,24.756a3.965,3.965,0,0,0-2.248,6.931L17.612,45.947l-4.794,21.12a3.955,3.955,0,0,0,5.891,4.279L37.263,60.257,55.811,71.346a3.96,3.96,0,0,0,5.894-4.279l-4.794-21.12L73.17,31.691a3.963,3.963,0,0,0,1.162-4.21Zm0,0" transform="translate(676 7176.253)" fill="#ffc107"/>
    <path id="estrela-2" data-name="estrela" d="M74.332,27.48a3.953,3.953,0,0,0-3.41-2.724L49.412,22.8,40.906,2.895a3.961,3.961,0,0,0-7.285,0L25.115,22.8,3.6,24.756a3.965,3.965,0,0,0-2.248,6.931L17.612,45.947l-4.794,21.12a3.955,3.955,0,0,0,5.891,4.279L37.263,60.257,55.811,71.346a3.96,3.96,0,0,0,5.894-4.279l-4.794-21.12L73.17,31.691a3.963,3.963,0,0,0,1.162-4.21Zm0,0" transform="translate(764.986 7176.253)" fill="#ffc107"/>
    <path id="estrela-3" data-name="estrela" d="M74.332,27.48a3.953,3.953,0,0,0-3.41-2.724L49.412,22.8,40.906,2.895a3.961,3.961,0,0,0-7.285,0L25.115,22.8,3.6,24.756a3.965,3.965,0,0,0-2.248,6.931L17.612,45.947l-4.794,21.12a3.955,3.955,0,0,0,5.891,4.279L37.263,60.257,55.811,71.346a3.96,3.96,0,0,0,5.894-4.279l-4.794-21.12L73.17,31.691a3.963,3.963,0,0,0,1.162-4.21Zm0,0" transform="translate(944.488 7176.253)" fill="#ffc107"/>
    <path id="estrela-4" data-name="estrela" d="M74.332,27.48a3.953,3.953,0,0,0-3.41-2.724L49.412,22.8,40.906,2.895a3.961,3.961,0,0,0-7.285,0L25.115,22.8,3.6,24.756a3.965,3.965,0,0,0-2.248,6.931L17.612,45.947l-4.794,21.12a3.955,3.955,0,0,0,5.891,4.279L37.263,60.257,55.811,71.346a3.96,3.96,0,0,0,5.894-4.279l-4.794-21.12L73.17,31.691a3.963,3.963,0,0,0,1.162-4.21Zm0,0" transform="translate(853.972 7176.253)" fill="#ffc107"/>
    <path id="estrela-5" data-name="estrela" d="M74.332,27.48a3.953,3.953,0,0,0-3.41-2.724L49.412,22.8,40.906,2.895a3.961,3.961,0,0,0-7.285,0L25.115,22.8,3.6,24.756a3.965,3.965,0,0,0-2.248,6.931L17.612,45.947l-4.794,21.12a3.955,3.955,0,0,0,5.891,4.279L37.263,60.257,55.811,71.346a3.96,3.96,0,0,0,5.894-4.279l-4.794-21.12L73.17,31.691a3.963,3.963,0,0,0,1.162-4.21Zm0,0" transform="translate(1033.474 7176.253)" fill="#ffc107"/>
  </g>
</svg>
