<svg id="whatsapp" xmlns="http://www.w3.org/2000/svg" width="113.236" height="114.159" viewBox="0 0 113.236 114.159">
  <path id="Caminho_1438" data-name="Caminho 1438" d="M55.54.066A56.641,56.641,0,0,0,7.853,82.331L1.842,111.509A2.2,2.2,0,0,0,4.508,114.1L33.1,107.325A56.623,56.623,0,1,0,55.54.066Zm34.116,87.9a44.361,44.361,0,0,1-51.078,8.361L34.6,94.344,17.066,98.5l3.69-17.912-1.962-3.841A44.371,44.371,0,0,1,26.96,25.271a44.332,44.332,0,1,1,62.7,62.7Z" transform="translate(-1.69 0)" fill="#fff"/>
  <path id="Caminho_1439" data-name="Caminho 1439" d="M160.585,146.987l-10.967-3.149a4.087,4.087,0,0,0-4.045,1.066l-2.682,2.732a4,4,0,0,1-4.343.917c-5.188-2.1-16.1-11.8-18.888-16.656a4,4,0,0,1,.316-4.428l2.341-3.029a4.087,4.087,0,0,0,.5-4.153l-4.614-10.436a4.09,4.09,0,0,0-6.386-1.462c-3.061,2.589-6.693,6.523-7.134,10.881-.778,7.684,2.517,17.37,14.978,29,14.4,13.437,25.925,15.212,33.431,13.394,4.257-1.031,7.66-5.165,9.807-8.55A4.09,4.09,0,0,0,160.585,146.987Z" transform="translate(-76.489 -78.09)" fill="#fff"/>
</svg>
