<svg xmlns="http://www.w3.org/2000/svg" width="50.326" height="50.325" viewBox="0 0 50.326 50.325">
  <g id="Group_1057" data-name="Group 1057" transform="translate(-48 -688)">
    <g id="Group_1049" data-name="Group 1049" transform="translate(-1343.785 -889.601)" opacity="0.999">
      <g id="Group_1047" data-name="Group 1047" transform="translate(1391.785 1577.601)">
        <path id="Path_1566" data-name="Path 1566" d="M1416.948,1627.926a25.163,25.163,0,1,1,25.164-25.163A25.191,25.191,0,0,1,1416.948,1627.926Zm0-48.661a23.5,23.5,0,1,0,23.5,23.5A23.525,23.525,0,0,0,1416.948,1579.266Z" transform="translate(-1391.785 -1577.601)" fill="#fff"/>
      </g>
    </g>
    <g id="Group_1056" data-name="Group 1056" transform="translate(1 -2)">
      <g id="Group_1048" data-name="Group 1048" transform="translate(68 719.238)">
        <path id="Path_1567" data-name="Path 1567" d="M1440.987,1634.141l4.223-7.315a.222.222,0,0,0-.193-.333h-8.447a.222.222,0,0,0-.192.333l4.224,7.315A.222.222,0,0,0,1440.987,1634.141Z" transform="translate(-1436.349 -1626.493)" fill="#fff"/>
      </g>
      <path id="Path_1575" data-name="Path 1575" d="M0,19V0" transform="translate(72.5 703)" fill="none" stroke="#fff" stroke-width="1.5"/>
    </g>
  </g>
</svg>
